<svg xmlns="http://www.w3.org/2000/svg" viewBox="0 0 1028.37 287.68"><defs><style>.cls-1{fill:#ff0013;}</style></defs><title>Asset 1</title><g id="Layer_2" data-name="Layer 2"><g id="Слой_1" data-name="Слой 1"><path class="cls-1" d="M841.17,216.8q-1.67,21.15-3.34,42.32,30.39-17.3,61.29-33.8Q870.19,220.72,841.17,216.8Z"/><path class="cls-1" d="M190.48,259.12q-1.66-21.15-3.34-42.32-29,3.91-57.89,8.52Q160.14,241.84,190.48,259.12Z"/><path class="cls-1" d="M183.37,169.2q1.89,23.79,3.77,47.6a2445.83,2445.83,0,0,1,654,0L845,169.19A2474.32,2474.32,0,0,0,183.37,169.2Z"/><path class="cls-1" d="M1028.37,95.21A2535.35,2535.35,0,0,0,0,95.21q33.71,42.35,66.23,85.59-22.15,53.25-43,106.88,83.22-17.24,167.23-28.57-30.36-17.28-61.23-33.79,28.91-4.6,57.88-8.52-1.89-23.81-3.77-47.6a2474.32,2474.32,0,0,1,661.58,0q-1.89,23.81-3.77,47.61,29,3.91,58,8.52-30.9,16.52-61.29,33.79,84,11.33,167.27,28.57-20.8-53.62-43-106.88Q994.67,137.57,1028.37,95.21Z"/><path class="cls-1" d="M899.12,225.32a2445.93,2445.93,0,0,0-769.87,0L111.19,31.91a2560.43,2560.43,0,0,1,806,0Q908.16,128.62,899.12,225.32Z"/></g></g></svg>