<svg id="Layer_1" data-name="Layer 1" xmlns="http://www.w3.org/2000/svg" viewBox="0 0 464.48 992.22"><defs><style>.cls-1{fill:#ffdec7;}.cls-2{fill:#f9b995;}.cls-3{fill:#003b6b;}.cls-12,.cls-3,.cls-7{stroke:#002342;}.cls-10,.cls-11,.cls-12,.cls-13,.cls-3,.cls-7{stroke-miterlimit:10;}.cls-4{fill:#ffdbbb;}.cls-5{fill:#3c3c3b;}.cls-6{fill:#ffd5b8;}.cls-12,.cls-7{fill:#76b2ef;}.cls-11,.cls-8{fill:#fff;}.cls-9{fill:#ef9181;}.cls-10{fill:none;stroke:#000;stroke-width:3.81px;}.cls-11{stroke:#b5b5b5;stroke-width:1.45px;}.cls-12{stroke-width:1.45px;}.cls-13{fill:#036;stroke:#00154f;stroke-width:1.86px;}</style></defs><title>teeny blue</title><g id="front"><path class="cls-1" d="M792,850.79a127.76,127.76,0,0,0-3,20.55c-.38,5.32-.76,11,.38,16.74.38,2.28,1.14,5.33,3.8,6.09,2.67,1.14,3.81-.76,4.57-3,.76-3-.38-8.38,4.19-9.14s2.66,23.6,5.32,25.88c1.91,1.9,6.09-5.33,6.85-9.13.76-4.19,2.67-11.8,2.67-11.8s-2.67,24.35.38,24.35c7.61-.76,9.89-23.59,9.89-23.59s-2.66,19.79.38,20.17c6.09,1.14,9.14-22.07,9.14-22.07s-3.43,19.41-.38,20.17c9.13,1.9,11.79-23.6,9.51-32.73-3-12.18-16.36-32.35-27.4-40.72" transform="translate(-381.94 -168.91)"/><path class="cls-2" d="M816,879.71c-.38,1.52-.38,2.28.38,3.42a.71.71,0,0,0,1.14,0c.76-1.14.38-2.28,0-3.42,0-1.14-1.14-.76-1.52,0Z" transform="translate(-381.94 -168.91)"/><path class="cls-2" d="M827.37,881.61v2.28c0,.39.76.77.76.39a3.24,3.24,0,0,0,.76-2.67.77.77,0,1,0-1.52,0Z" transform="translate(-381.94 -168.91)"/><path class="cls-2" d="M836.51,879.71c0,1.52-.38,2.66-.38,4.18a1.32,1.32,0,0,0,2.28.77,4.69,4.69,0,0,0,.38-4.95c-.76-1.14-2.28-.76-2.28,0Z" transform="translate(-381.94 -168.91)"/><path class="cls-3" d="M780.57,838.23c.76,4.57,0,6.09,2.28,10.27,9.89,3,31.58-2.28,38.81-5.32,1.53-.76,7.62-4.19,8.38-5.71-.76-4.57-5.71-12.18-9.14-16" transform="translate(-381.94 -168.91)"/><path class="cls-4" d="M699.13,1100.8c.76,6.09-1.52,9.52,7.23,15.22,5.33,3.43,16.36,6.47,22.07,8.76s11.8,5.71,15.22,10.65,4.19,10.66,4.57,16.75a4.82,4.82,0,0,1-.38,2.28,3.21,3.21,0,0,1-2.66.76c-12.94.38-25.5-1.14-38.06-3a113.87,113.87,0,0,1-19.79-3.81c-9.13-3-17.12-8-25.11-12.94-.38-.38-.76-.38-1.14-1.14a1.7,1.7,0,0,1,0-1.9c1.9-13.32,4.18-26.64,10.27-38.82" transform="translate(-381.94 -168.91)"/><path d="M657.27,1133.15c1.14-8,3.05-21.31,4.57-23.21,1.52-1.53,2.28.76,3.42,1.52,3.43,2.28,8,2.66,11.8,3,4.19.38,9.13.76,12.94-1.9s8.37-7.23,11.41-6.85c3.43.38,1.15,5.33,10.28,10.66,6.09,3.42,12.56,5.7,19,8.37s12.93,6.09,16.74,11.79c3.8,5.33,4.57,11.8,4.95,18.27,0,.76,0,1.9-.38,2.28a4.13,4.13,0,0,1-3,.76c-14.08.39-27.78-1.52-41.48-3-7.23-.76-14.84-1.9-21.69-4.19-9.89-3-18.65-8.75-27.4-14.08-.38-.38-1.14-.76-1.14-1.14C656.89,1134.67,657.27,1133.91,657.27,1133.15Z" transform="translate(-381.94 -168.91)"/><path class="cls-5" d="M657.27,1134.67v-1.52c1.14-6.85,2.28-13.32,3.43-20.17,3.8,3,6.47,7.61,8.75,12.18s4.18,9.51,4.56,14.46a135.76,135.76,0,0,0,38.06,12.56,15.62,15.62,0,0,1,.38-4.19c1.9-9.89,8.75-18.27,17.5-24,.38,0,.77.38,1.15.38,6.47,2.66,14.84,6.09,18.64,11.41s7.23,12.56,1.52,21.69c-29.68,8.38-68.87-2.66-93.23-19.4C656.89,1137,656.51,1135.81,657.27,1134.67Zm66.6-13.32c2.28-1.9-.38-5.71-3-4.18-5,3-11,6.47-13.7,11.79-1.52,2.67,3,5.71,5.33,3.43,1.9-1.9,3.42-4.19,5.33-6.09A68.19,68.19,0,0,1,723.87,1121.35Zm-8.76-4.94c2.29-1.53-.38-4.57-2.66-3.81-5.33,2.28-10.28,5.33-13.7,9.89a3.59,3.59,0,0,0-.38,3.43c0,.38.38.38.38.76a2.32,2.32,0,0,0,2.66,1.14c3.05-.38,3.43-3,5.33-5C709,1120.59,712.07,1118.69,715.11,1116.41Zm-8.37-5c2.67-1.9-.38-5.71-3-4.19-4.19,2.67-10.28,5-12.94,9.14a3,3,0,0,0-.38,3c0,.38.38.38.38.76.76,1.14,2.28,1.9,3.42,1.14,1.91-1.14,3.05-3,5-4.56C701.79,1114.88,704.46,1113.36,706.74,1111.46Z" transform="translate(-381.94 -168.91)"/><path d="M720.44,847.36c6.85,84.86,2.66,214.63-12.18,257.25-5.7,3.42-40,11.8-61.26-1.52-4.57-33.87-8-113-41.48-177-25.12-47.56-70.4,11.8-70.4,11.8L550,840.51s-39.58,3.43,38.81-17.88l78.78-21.31" transform="translate(-381.94 -168.91)"/><path class="cls-4" d="M517.61,1101.56c-.76,6.09,1.52,9.52-7.23,15.23-5.33,3.42-16.36,6.47-22.07,8.75s-11.8,5.71-15.22,10.65-4.19,10.66-4.57,16.75a4.82,4.82,0,0,0,.38,2.28,3.23,3.23,0,0,0,2.67.76c12.55.38,25.49-1.14,38.05-3a113.87,113.87,0,0,0,19.79-3.81c9.13-3,17.12-8,25.11-12.94.39-.38.77-.38,1.15-1.14a1.7,1.7,0,0,0,0-1.9c-1.91-13.32-4.19-26.64-10.28-38.82" transform="translate(-381.94 -168.91)"/><path d="M559.47,1133.91c-1.14-8-3-21.31-4.56-23.21-1.53-1.52-2.29.76-3.43,1.52-3.42,2.28-8,2.66-11.8,3-4.18.38-9.13.76-12.93-1.9s-8.38-7.23-11.42-6.85-1.14,5.33-10.28,10.66c-6.08,3.42-12.55,5.7-19,8.37s-12.94,6.09-16.75,11.8c-3.8,5.32-4.56,11.79-4.94,18.26,0,.76,0,1.9.38,2.28.76.77,1.9.77,3,.77,14.08.38,27.78-1.53,41.48-3.05a104.25,104.25,0,0,0,21.69-4.18c9.9-3.05,18.65-8.76,27.4-14.08.38-.39,1.14-.77,1.14-1.15Z" transform="translate(-381.94 -168.91)"/><path class="cls-5" d="M558.33,1138.86c-24.35,16.74-63.55,27.78-93.23,19.41-5.71-9.14-1.9-16.37,1.52-21.7,3.81-5.7,12.56-9.13,18.65-11.41.38,0,.76-.38,1.14-.38,8.75,6.09,15.6,14.08,17.5,24a14.32,14.32,0,0,1,.38,4.19,135.76,135.76,0,0,0,38.06-12.56c.38-5,2.28-9.89,4.56-14.46a39.85,39.85,0,0,1,8.76-12.18,171.77,171.77,0,0,1,3.42,20.17v1.52A2.21,2.21,0,0,1,558.33,1138.86Zm-59.74-11.8c1.9,1.9,3.42,4.19,5.32,6.09,2.29,2.28,6.85-.76,5.33-3.43-2.66-5.32-8.75-8.75-13.7-11.79-2.66-1.52-5.33,2.28-3,4.18A39.54,39.54,0,0,1,498.59,1127.06Zm11-3c1.9,1.9,2.28,4.56,5.33,4.94a3.45,3.45,0,0,0,2.66-1.14c0-.38.38-.38.38-.76.76-1.14.38-2.28-.38-3.42-3.42-5-8.37-7.62-13.7-9.9-2.28-.76-4.56,1.9-2.66,3.81C504.29,1119.45,507.34,1121.35,509.62,1124Zm7.61-6.47c1.9,1.52,2.67,3.42,4.95,4.56,1.14.76,2.66,0,3.42-1.14,0-.38.38-.38.38-.76a2.29,2.29,0,0,0-.38-3c-2.66-4.19-8.75-6.47-12.93-9.14-2.67-1.52-5.33,2.67-3,4.19C512.28,1114.12,515,1115.64,517.23,1117.55Z" transform="translate(-381.94 -168.91)"/><path d="M500.11,851.17c-6.85,84.86-3.43,213.48,11.41,256.48,5.71,3.43,40,11.8,61.27-1.52,4.57-33.87,8-113,41.48-177,25.12-47.57,70.4,11.8,70.4,11.8l-14.84-97.42S709.41,847,631,825.67l-78.77-21.31" transform="translate(-381.94 -168.91)"/><path class="cls-6" d="M581.16,564.24c3.43,29.68-6.09,41.1-33.48,47.19,0,0-1.91,40.72,51.37,47.18,21.69,2.67,55.94-21.31,62-41.09-23.22-4.19-33.11-30.83-25.88-50.24" transform="translate(-381.94 -168.91)"/><path class="cls-1" d="M440.36,845.08a127,127,0,0,1,.76,20.93c-.38,5.33-.76,11-2.28,16.36-.76,2.29-1.9,5-4.19,5.71-2.66.76-3.8-1.14-4.18-3.42-.38-3,1.14-8.38-3.05-9.52-4.56-1.14-5.32,23.22-8.37,25.12-2.28,1.52-5.71-5.71-5.71-9.9s-1.52-12.17-1.52-12.17,0,24.73-3,24c-7.23-1.52-7.23-24.35-7.23-24.35s.38,19.78-2.67,20.16c-6.47.39-6.85-22.83-6.85-22.83s1.53,19.79-2.28,19.79c-9.13.76-9.13-25.12-5.71-33.49,4.57-11.79,19.79-30.44,32-36.91" transform="translate(-381.94 -168.91)"/><path class="cls-2" d="M411.44,870.58c-.76,1.14-1.14,1.9-.38,3.42.38.38.76.76,1.14.38,1.14-1.14,1.14-1.9.76-3.42a.81.81,0,0,0-1.52-.38Z" transform="translate(-381.94 -168.91)"/><path class="cls-2" d="M400,871.72a2.31,2.31,0,0,0,.38,2.66c.38.38.76.38.76,0a4.82,4.82,0,0,0,.38-2.28c.38-1.52-1.52-1.52-1.52-.38Z" transform="translate(-381.94 -168.91)"/><path class="cls-2" d="M390.89,868.67c-.76,1.91-1.14,3.05-.38,5a1.2,1.2,0,0,0,2.28-.38c.39-1.52,0-2.66,0-4.19a1,1,0,0,0-1.9-.38Z" transform="translate(-381.94 -168.91)"/><path class="cls-3" d="M449.12,833.66c-.77,4.57,0,6.09-2.29,10.28-10.27,3-33.49-2.29-41.48-5.33-1.9-.76-8.37-4.19-8.75-6.09.76-4.56,6.09-12.18,9.51-16" transform="translate(-381.94 -168.91)"/><path class="cls-7" d="M679.72,685.63c-1.52,20.93,31.59,50.61,44.15,67.36,13.7,17.88,35,56.7,53.65,82.2,12.56,6.08,36.15.38,43.38-11,1.91-27-67.35-181.9-85.24-194.08-39.57-27-79.15-26.25-91.71-39.57a5.91,5.91,0,0,0-8-.76c-4.19,3-15.22,6.85-23.21,6.85s-19-3.81-23.22-6.85a5.84,5.84,0,0,0-8,.76c-12.94,13.7-52.51,12.56-92.47,39.57-20.93,14.08-87.14,167.06-85.24,192.56,7.23,11.41,30.82,17.12,43.38,11,18.65-25.49,52.9-70.4,66.22-88.28,4.56-6.09,10.65-13.32,16.36-21.31,9.51-12.94,19-27.4,24.35-42.24" transform="translate(-381.94 -168.91)"/><path class="cls-1" d="M422.48,395.66c2.66,17.51,3,53.28,1.52,71.16-1.9,22.07-4.57,33.87,14.84,62.79,24,36.15,65.45,52.14,98.56,58.6,42.24,8.38,90.19,9.14,132.43-.38,32.73-7.61,70-23.21,91.33-55.94,14.46-22.83,22.45-33.1,21.69-62.4a229,229,0,0,1,4.57-51c3.42-18.64,8.75-60.12,1.9-85.62C769.15,255.24,678.2,195.5,595.62,198.16c-59,1.9-130.9,33.87-162.11,99.7C416,335.15,418.67,370.93,422.48,395.66Z" transform="translate(-381.94 -168.91)"/><path d="M508.86,441.71c42.62,3.42,47.95-62.79,5.33-66.22-42.24-3.42-48,62.79-5.33,66.22Z" transform="translate(-381.94 -168.91)"/><path class="cls-8" d="M495.16,445.51c15.6,1.14,17.51-22.83,1.9-24s-17.5,22.83-1.9,24Z" transform="translate(-381.94 -168.91)"/><path class="cls-8" d="M537,414.31c15.6,1.14,17.5-22.84,1.9-24.36-15.6-.76-17.5,23.22-1.9,24.36Z" transform="translate(-381.94 -168.91)"/><path d="M689.62,439.42c42.62-3.42,37.29-69.64-5.33-66.21s-37.29,69.64,5.33,66.21Z" transform="translate(-381.94 -168.91)"/><path class="cls-8" d="M697.61,442.09c15.6-1.14,13.32-25.12-1.9-24-15.23,1.52-13.32,25.5,1.9,24Z" transform="translate(-381.94 -168.91)"/><path class="cls-8" d="M655.75,411.26c15.6-1.14,13.7-25.49-1.9-24.35-15.61,1.52-13.7,25.49,1.9,24.35Z" transform="translate(-381.94 -168.91)"/><path class="cls-9" d="M691.14,482c-1.14-12.17,16-12.17,24-11.79,9.52.76,30.07,3,20.55,17.12-6.47,9.51-23.21,11.8-33.1,8.75C696.09,494.22,691.9,487.75,691.14,482Z" transform="translate(-381.94 -168.91)"/><path class="cls-9" d="M519.9,482c1.14-12.17-16-12.17-24-11.79-9.51.76-30.06,3-20.55,17.12,6.47,9.51,23.22,11.8,33.11,8.75A16.12,16.12,0,0,0,519.9,482Z" transform="translate(-381.94 -168.91)"/><path class="cls-1" d="M439.22,462.26c-4.57-10.28-18.27-14.08-28.54-9.9s-17.5,14.08-20.55,25.12a32.07,32.07,0,0,0-1.52,10.27c.38,14.08,11.8,25.88,24.73,31.59,7.23,3,15.23,4.94,22.84,3.42s14.84-6.85,17.5-14.08" transform="translate(-381.94 -168.91)"/><path class="cls-2" d="M405.35,477.48c-1.14-6.47,4.95-13.32,11.8-10.28,8.75,3.81.76,13.32,1.9,19.41,1.14,4.57,6.47,4.57,9.9,6.47,2.66,1.52,5.32,4.95,5.7,8,1.15,8-8.37,4.95-12.17,3-1.14-.76-2.29.77-1.53,1.91,4.95,4.94,17.89,6.85,17.51-3.43,0-3.8-2.66-8-5.71-10.27A8,8,0,0,0,429,490c-1.15-.38-3.05-.38-4.19-1.14-4.19-3-1.9-5.7-1.14-9.13,1.52-7.23-1.14-15.6-9.9-15.22a10.51,10.51,0,0,0-9.51,13.7c.38.38,1.14,0,1.14-.76Z" transform="translate(-381.94 -168.91)"/><path class="cls-2" d="M404.21,488.13c-.38,4.57,1.9,10.66,6.85,11.8,1.14,0,1.9-1.14,1.14-1.9-3.42-3-6.09-4.95-6.47-9.9a.77.77,0,1,0-1.52,0Z" transform="translate(-381.94 -168.91)"/><path class="cls-1" d="M768.77,453.5c4.57-10.27,18.27-14.08,28.54-9.89s17.51,14.08,20.55,25.11A32.13,32.13,0,0,1,819.38,479c-.38,14.08-11.8,25.88-24.73,31.58-7.23,3.05-15.23,4.95-22.84,3.43s-14.84-6.85-17.5-14.08" transform="translate(-381.94 -168.91)"/><path class="cls-2" d="M803.78,469.11c1.52-6.47-2.28-12.94-9.51-13.7-8.76-.77-11.42,8-10.28,15.22.38,3,1.52,3.8,0,6.85s-1.9,2.28-5,3.42a15.47,15.47,0,0,0-4.18,2.67,15.86,15.86,0,0,0-5.33,9.89c-1.14,10.65,12.18,9.13,17.51,4.19,1.14-1.15-.39-2.29-1.53-1.91-4.18,2.29-13.32,4.95-12.17-3,.38-2.67,2.66-5.71,4.94-7.61,3.05-2.67,9.52-2.29,10.66-7.23,1.14-6.09-6.47-14.46,1.14-19,6.85-4.19,13.7,3.43,12.56,9.89,0,.77,1.14.77,1.14.39Z" transform="translate(-381.94 -168.91)"/><path class="cls-2" d="M802.26,479c-.38,4.95-3.43,6.85-6.47,9.89-.76.76,0,1.91,1.14,1.91,5-.77,7.61-7.23,6.85-11.8,0-.76-1.14-.76-1.52,0Z" transform="translate(-381.94 -168.91)"/><path class="cls-7" d="M706.74,639.59c-1.52,43,33.49,224.52,30.44,243.92C735.66,893.79,675.92,901,618.08,901c-48.71,0-130.53-11.8-130.53-11.8s31.2-210.06,29.68-249.63" transform="translate(-381.94 -168.91)"/><path d="M662.6,241.92c6.85-1.14,13.7-2.66,20.17-4.18A96.61,96.61,0,0,0,701,230.51a56.45,56.45,0,0,0,15.22-11.8c4.57-4.57,8-10.28,11-16.74a36,36,0,0,1-6.09,20.54c-3.8,6.47-9.89,11.42-16.36,14.85a57.76,57.76,0,0,1-20.93,6.08A57.05,57.05,0,0,1,662.6,241.92Z" transform="translate(-381.94 -168.91)"/><path d="M728.81,281.12c14.46-1.9,28.16-4.57,40.34-10.66a54.39,54.39,0,0,0,16-11.79,81.31,81.31,0,0,0,12.18-17.13c0,7.23-2.66,14.84-6.85,21.31A45.06,45.06,0,0,1,773,278.07a55.75,55.75,0,0,1-22.08,5.71A60.8,60.8,0,0,1,728.81,281.12Z" transform="translate(-381.94 -168.91)"/><path d="M587.25,245a102.41,102.41,0,0,0,12.38-17,64.56,64.56,0,0,0,7.81-18.35,79.42,79.42,0,0,0,2.28-19.7,124.72,124.72,0,0,0-2.93-21,44.77,44.77,0,0,1,9.12,20,53.52,53.52,0,0,1-.65,22.7,51,51,0,0,1-10.42,20C599.63,237.66,593.77,242.33,587.25,245Z" transform="translate(-381.94 -168.91)"/><path d="M554.52,232c-12.93-3.81-25.49-6.85-37.67-6.47-6.09.38-12.18,1.14-17.88,3.42a82.24,82.24,0,0,0-16.75,9.52,35.26,35.26,0,0,1,14.08-14.84A38.54,38.54,0,0,1,516.47,218,53.14,53.14,0,0,1,537,221.37,58.31,58.31,0,0,1,554.52,232Z" transform="translate(-381.94 -168.91)"/><path d="M513.81,257.14c-13.32-1.52-26.26-2.28-38.44.38-6.09,1.53-11.79,3.43-17.12,6.85-5.33,3.05-9.9,7.61-14.46,12.56a36.09,36.09,0,0,1,11-17.12,43,43,0,0,1,19-9.52,55.42,55.42,0,0,1,20.93-.38A50.8,50.8,0,0,1,513.81,257.14Z" transform="translate(-381.94 -168.91)"/><path d="M479.18,285.3c-12.94,3.43-25.12,7.61-35.39,14.46a59.54,59.54,0,0,0-13.32,12.56c-3.81,4.95-6.47,10.66-9.13,17.13a34,34,0,0,1,4.18-20.17c3.05-6.47,8.37-11.8,14.08-15.6A53.14,53.14,0,0,1,459,286.06,45.27,45.27,0,0,1,479.18,285.3Z" transform="translate(-381.94 -168.91)"/><path d="M745.56,310.8c14.08,3.81,27.78,6.85,41.09,6.47a65.2,65.2,0,0,0,19.41-4.19,73.4,73.4,0,0,0,17.89-11,39.33,39.33,0,0,1-14.84,16.74A45.51,45.51,0,0,1,787,325.64a56.72,56.72,0,0,1-22.46-3.42C757.73,319.17,750.88,315.75,745.56,310.8Z" transform="translate(-381.94 -168.91)"/><path d="M766.11,349.23c10.27,8.38,20.93,15.61,32.34,19.79a56.76,56.76,0,0,0,17.89,3.05,84.24,84.24,0,0,0,19-2.67,35.7,35.7,0,0,1-18.26,8.76,43.74,43.74,0,0,1-20.93-1.91,51.65,51.65,0,0,1-17.51-10.65A57.11,57.11,0,0,1,766.11,349.23Z" transform="translate(-381.94 -168.91)"/><path d="M425.14,405.94a56.84,56.84,0,0,1-7.61-18.65,53.45,53.45,0,0,1-.38-20.55,40.4,40.4,0,0,1,9.13-19A35.79,35.79,0,0,1,443,336.3a62.86,62.86,0,0,0-12.18,14.84,54.62,54.62,0,0,0-6.47,17.12C422.1,380.06,423.24,392.62,425.14,405.94Z" transform="translate(-381.94 -168.91)"/><path id="smile" class="cls-10" d="M558,496.5c4.57,3.43,19.41,14.46,41.48,14.08A67.13,67.13,0,0,0,642.05,495" transform="translate(-381.94 -168.91)"/><g id="shirt"><path class="cls-11" d="M570.51,592.78,511.9,616c-1.52.77-1.9,3.43-.38,4.19L569,659.38a1.79,1.79,0,0,0,2.28-.38l50.61-60.13c1.14-1.52.38-3.81-1.14-4.19l-49.47-2.28C570.89,592.4,570.89,592.78,570.51,592.78Z" transform="translate(-381.94 -168.91)"/><path class="cls-11" d="M649.66,591.64l58.6,23.21c1.53.76,1.91,3.43.38,4.19l-57.46,39.19a1.79,1.79,0,0,1-2.28-.38l-50.61-59.74c-1.14-1.52-.38-3.81,1.14-4.19l49.47-2.28Z" transform="translate(-381.94 -168.91)"/></g><g id="bow"><path class="cls-12" d="M605.14,593.92l55.56-16.74a4.16,4.16,0,0,1,5.32,4.18l-.38,39.58a4.09,4.09,0,0,1-5.71,3.81l-55.17-22.84A4.23,4.23,0,0,1,605.14,593.92Z" transform="translate(-381.94 -168.91)"/><path class="cls-12" d="M608.94,593.92l-55.56-16.74a4.16,4.16,0,0,0-5.32,4.18l.38,39.58a4.09,4.09,0,0,0,5.7,3.81l55.18-22.84C612.75,600.39,612.75,595.06,608.94,593.92Z" transform="translate(-381.94 -168.91)"/><circle class="cls-13" cx="225.1" cy="429.2" r="5.33"/></g></g></svg>