<svg id="Layer_1" data-name="Layer 1" xmlns="http://www.w3.org/2000/svg" viewBox="0 0 587.64 1000.9"><defs><style>.cls-1,.cls-5{fill:#010101;}.cls-1,.cls-10{stroke:#010101;}.cls-1,.cls-10,.cls-11,.cls-12,.cls-13,.cls-14,.cls-15,.cls-16,.cls-4,.cls-9{stroke-miterlimit:10;}.cls-1{stroke-width:3.85px;}.cls-2{fill:#fcddc8;}.cls-3{fill:#f8ba96;}.cls-12,.cls-4,.cls-7,.cls-9{fill:#fff;}.cls-12,.cls-4,.cls-9{stroke:#b6b6b5;}.cls-4{stroke-width:1.19px;}.cls-6{fill:#fcd4b9;}.cls-8{fill:#ef9181;}.cls-9{stroke-width:1.15px;}.cls-10{fill:none;stroke-width:3.79px;}.cls-11,.cls-13,.cls-14,.cls-15,.cls-16{fill:#7ab0e0;}.cls-11{stroke:#1a1a38;}.cls-11,.cls-13,.cls-15{stroke-width:1.44px;}.cls-12{stroke-width:1.21px;}.cls-13{stroke:#1d2142;}.cls-14{stroke:#1b1d3c;}.cls-14,.cls-16{stroke-width:1.86px;}.cls-15{stroke:#181834;}.cls-16{stroke:#152d49;}</style></defs><title>teena blue</title><path class="cls-1" d="M767.34,329.49c3.79-15.92,9.47-40.55,26.15-45.48,17-4.93,37.9,13.27,48.51,29.56,5.69,9.1,14,26.53,8.34,96.65-4.17,53.82-11.75,77.32.38,86,13.64,9.47,38.28-9.1,40.93-4.55,3,5.31-22.74,37.52-49.65,35.63-31.46-2.28-49.65-51.17-63.29-87.55C757.1,380.66,764.68,341.24,767.34,329.49Z" transform="translate(-306.18 -158.51)"/><path class="cls-1" d="M432.66,337.45c-3.79-15.92-9.47-40.55-26.15-45.48-17.05-4.93-37.9,13.27-48.51,29.56-5.69,9.1-14,26.53-8.34,96.65,4.17,53.82,11.75,77.32-.38,86-13.64,9.47-38.28-9.1-40.93-4.55-3,5.31,22.74,37.52,49.65,35.63,31.46-2.28,49.65-51.17,63.29-87.56C443.28,388.62,435.32,349.2,432.66,337.45Z" transform="translate(-306.18 -158.51)"/><path class="cls-2" d="M776.05,846.47a127.73,127.73,0,0,0-3,20.47c-.38,5.3-.76,11,.38,16.67.38,2.28,1.14,5.31,3.79,6.07,2.65,1.13,3.79-.76,4.55-3,.76-3-.38-8.33,4.17-9.09s2.65,23.5,5.3,25.77c1.9,1.9,6.07-5.31,6.83-9.1.75-4.16,2.65-11.75,2.65-11.75s-2.65,24.26.38,24.26c7.58-.76,9.85-23.5,9.85-23.5s-2.65,19.71.38,20.09c6.07,1.14,9.1-22,9.1-22S817,900.67,820,901.43c9.09,1.89,11.75-23.5,9.47-32.6-3-12.13-16.29-32.22-27.29-40.55" transform="translate(-306.18 -158.51)"/><path class="cls-3" d="M804.1,876c-.38,1.52-.38,2.28.38,3.41a.71.71,0,0,0,1.14,0c.75-1.13.37-2.27,0-3.41,0-1.14-1.14-.76-1.52,0Z" transform="translate(-306.18 -158.51)"/><path class="cls-3" d="M815.47,877.93v2.27c0,.38.76.76.76.38a3.19,3.19,0,0,0,.76-2.65.77.77,0,1,0-1.52,0Z" transform="translate(-306.18 -158.51)"/><path class="cls-3" d="M824.57,876c0,1.52-.38,2.65-.38,4.17a1.32,1.32,0,0,0,2.27.76,4.66,4.66,0,0,0,.38-4.93c-.76-1.14-2.27-.76-2.27,0Z" transform="translate(-306.18 -158.51)"/><path class="cls-2" d="M694.56,1099.65c.76,6.06-1.51,9.48,7.21,15.16,5.3,3.41,16.29,6.44,22,8.72s11.75,5.68,15.16,10.61,4.17,10.61,4.55,16.68a4.78,4.78,0,0,1-.38,2.27,3.21,3.21,0,0,1-2.66.76c-12.88.38-25.39-1.14-37.9-3a114.06,114.06,0,0,1-19.71-3.79c-9.09-3-17-8-25-12.89-.38-.38-.76-.38-1.14-1.14a1.68,1.68,0,0,1,0-1.89c1.9-13.27,4.17-26.53,10.24-38.66" transform="translate(-306.18 -158.51)"/><path class="cls-2" d="M706.31,845c1.52,44.35,1.14,92.1-1.51,142.89-2.28,39.42-5.69,76.56-10.24,111.81-5.68,3.41-9.47,17.81-30.7,4.55-6.82-25-12.5-48.89-15.54-61.78-8.33-34.11-22.74-75.8-47-116.74-4.93-8.34-11-17.81-20.47-18.57-17.81-1.89-33.35,28.43-33.35,28.43L546,840.78A374,374,0,0,1,584.65,823a366.52,366.52,0,0,1,78.46-21.23C677.51,815.77,691.91,830.55,706.31,845Z" transform="translate(-306.18 -158.51)"/><path class="cls-4" d="M699.87,1059.47c-.38,1.9-1.52,47.38.38,51.17,1.52,3.41,4.17,4.93,6.06,6.45,5.31,3.41,16.3,6.44,22,8.71s11.75,5.69,15.16,10.61,3,9.86,3.41,15.92a4.82,4.82,0,0,1-.38,2.28,3.19,3.19,0,0,1-2.65.76,198.06,198.06,0,0,1-36.77-2.28,113.12,113.12,0,0,1-19.71-3.79c-9.09-3-17.05-8-25-12.89-.38-.37-.76-.37-1.14-1.13a1.7,1.7,0,0,1,0-1.9c0-6.06-.38-12.13-.76-18.57-1.13-20.47-6.82-37.14-9.47-55C661.21,1060.23,689.64,1059.1,699.87,1059.47Z" transform="translate(-306.18 -158.51)"/><path class="cls-5" d="M655.9,1132.62c1.14-6.82,2.28-13.26,3.42-20.08,3.79,3,4.54,3.79,6.82,8.34s3.79,6.82,4.17,11.74a134.63,134.63,0,0,0,37.9,12.51V1144c1.89-9.86,5.68-15.17,14.4-20.85.38,0,2.65.76,3,.76,6.45,2.65,15.16,5.68,19,11s7.21,12.51,1.52,21.6c-29.56,8.34-66.71-2.27-91-19" transform="translate(-306.18 -158.51)"/><path class="cls-2" d="M558.88,1092.45c6.06,12.13,8.34,25.39,10.23,38.66a1.68,1.68,0,0,1,0,1.89c-.38.76-.76.76-1.14,1.14-8,4.93-15.92,9.86-25,12.89a114.06,114.06,0,0,1-19.71,3.79c-12.51,1.89-25,3.41-37.9,3a3.21,3.21,0,0,1-2.66-.76,4.9,4.9,0,0,1-.37-2.27c.37-6.07,1.13-11.75,4.54-16.68s9.48-8.34,15.16-10.61,16.68-5.31,22-8.72c8.71-5.68,6.44-9.1,7.2-15.16" transform="translate(-306.18 -158.51)"/><path class="cls-2" d="M562.67,801.37a365.77,365.77,0,0,1,78.45,21.22,375.08,375.08,0,0,1,38.66,17.81l-1.51,94.76s-15.16-30.32-33.36-28.43c-9.47,1.14-15.54,10.24-20.46,18.57-24.26,41.32-38.66,83-47,117.12-3,13.26-8.72,37.14-15.54,61.78-21.23,13.26-25-1.14-30.7-4.55-4.55-34.87-8-72.39-10.23-111.81-2.66-50.79-3-98.92-1.52-142.89C533.86,830.55,548.26,815.77,562.67,801.37Z" transform="translate(-306.18 -158.51)"/><path class="cls-4" d="M574.8,1058c-2.66,17.81-8.34,34.87-9.48,55-.38,6.06-.38,12.5-.76,18.57a1.68,1.68,0,0,1,0,1.89c-.38.76-.76.76-1.13,1.14-8,4.93-15.92,9.85-25,12.89a113.88,113.88,0,0,1-19.71,3.79,198,198,0,0,1-36.76,2.27,3.21,3.21,0,0,1-2.66-.76,4.78,4.78,0,0,1-.38-2.27c.38-6.07,0-11,3.42-15.92s9.47-8.34,15.16-10.61,16.67-5.31,22-8.72c2.27-1.52,4.93-3,6.06-6.44,1.52-3.41.76-49.28.38-51.17C536.52,1057.58,564.56,1058.34,574.8,1058Z" transform="translate(-306.18 -158.51)"/><path class="cls-5" d="M570.25,1137.17c-24.26,16.68-61.4,27.29-91,18.95-5.68-9.09-2.27-16.29,1.52-21.6s12.51-8.34,18.95-11c.38,0,2.65-.76,3-.76,8.72,5.69,12.51,11,14.41,20.85v1.13a135,135,0,0,0,37.9-12.5c.38-4.93,1.89-7.21,4.17-11.75s3-5.31,6.82-8.34c1.14,6.82,2.27,13.26,3.41,20.09" transform="translate(-306.18 -158.51)"/><path class="cls-6" d="M575.93,565.24c3.41,29.56-6.44,40.93-34.49,47,0,0-1.89,40.55,53.06,47,22.37,2.65,57.61-21.23,64.06-40.94-23.88-4.17-34.11-30.7-26.53-50" transform="translate(-306.18 -158.51)"/><path class="cls-2" d="M433,843.82a125.91,125.91,0,0,1,.76,20.84c-.38,5.31-.76,11-2.27,16.3-.76,2.27-1.9,4.93-4.17,5.68-2.65.76-3.79-1.13-4.17-3.41-.38-3,1.14-8.34-3-9.47-4.55-1.14-5.31,23.12-8.34,25-2.27,1.52-5.69-5.68-5.69-9.85a90.56,90.56,0,0,0-1.51-12.13s0,24.64-3,23.88c-7.21-1.52-7.21-24.26-7.21-24.26s.38,19.71-2.65,20.09c-6.44.38-6.82-22.74-6.82-22.74s1.52,19.71-2.27,19.71c-9.1.75-9.1-25-5.69-33.36,4.55-11.75,19.71-30.32,31.84-36.76" transform="translate(-306.18 -158.51)"/><path class="cls-3" d="M404.24,869.21c-.76,1.14-1.14,1.89-.38,3.41.38.38.76.76,1.14.38,1.13-1.14,1.13-1.9.75-3.41a.81.81,0,0,0-1.51-.38Z" transform="translate(-306.18 -158.51)"/><path class="cls-3" d="M392.87,870.35a2.33,2.33,0,0,0,.38,2.65c.38.38.76.38.76,0a4.92,4.92,0,0,0,.37-2.27c.38-1.52-1.51-1.52-1.51-.38Z" transform="translate(-306.18 -158.51)"/><path class="cls-3" d="M383.77,867.31c-.76,1.9-1.13,3-.38,4.93a1.2,1.2,0,0,0,2.28-.38c.38-1.51,0-2.65,0-4.17a1,1,0,0,0-1.9-.38Z" transform="translate(-306.18 -158.51)"/><path class="cls-2" d="M662.73,680.46c4.92,9.85,9.47,16.68,22.36,33,6.44,8.72,18.57,26.16,20.47,28.05,12.5,17.44,34.87,51.17,70.11,106.5,12.51,6.07,36.39-1.89,31.46-14.4-8.72-23.12-61-163.35-78.45-185-30.33-37.14-80.73-40.55-93.62-54.2a5.83,5.83,0,0,0-8-.75c-4.17,3-15.16,6.82-23.12,6.82l-2.27-.38c-8,0-19-3.79-23.12-6.82a5.83,5.83,0,0,0-8,.75c-12.89,13.65-63.3,17.06-93.62,54.2-17.43,21.23-69.74,161.84-78.46,185-4.92,12.51,18.95,20.47,31.46,14.41,35.25-55.34,57.61-89.07,70.12-106.51,1.89-1.89,13.64-19.71,20.47-28,12.5-16.3,17.43-23.12,22.36-33" transform="translate(-306.18 -158.51)"/><path class="cls-2" d="M419,387.48c2.65,16.68,3,50.41,1.52,67.47-1.9,20.84-4.55,32.21,14.78,59.5,23.88,34.11,65.19,49.27,98.16,55.34,42.07,8,89.83,8.71,131.9-.38,32.6-7.2,69.74-22,91-53.06,14.41-21.61,22.37-31.46,21.61-59.13a202.83,202.83,0,0,1,4.55-48.13c3.41-17.82,8.71-56.86,1.89-81.11C764.3,254.45,673.72,198,591.47,200.63,532.72,202.52,461.09,232.84,430,295,412.58,330.25,415.23,364,419,387.48Z" transform="translate(-306.18 -158.51)"/><path class="cls-5" d="M505.06,443.2c42.45,3.41,47.75-62.54,5.3-65.95-42.07-3.41-47.75,62.54-5.3,65.95Z" transform="translate(-306.18 -158.51)"/><path class="cls-7" d="M491.41,447c15.54,1.13,17.44-22.74,1.9-23.88s-17.44,22.74-1.9,23.88Z" transform="translate(-306.18 -158.51)"/><path class="cls-7" d="M533.1,415.91c15.54,1.13,17.44-22.74,1.9-24.26-15.54-.76-17.44,23.12-1.9,24.26Z" transform="translate(-306.18 -158.51)"/><path class="cls-5" d="M685.09,440.92c42.45-3.41,37.14-69.36-5.31-65.95S642.64,444.33,685.09,440.92Z" transform="translate(-306.18 -158.51)"/><path class="cls-7" d="M693.05,443.58c15.54-1.14,13.26-25-1.9-23.88-15.16,1.51-13.26,25.39,1.9,23.88Z" transform="translate(-306.18 -158.51)"/><path class="cls-7" d="M651.36,412.88c15.54-1.14,13.64-25.4-1.9-24.26-15.54,1.51-13.64,25.39,1.9,24.26Z" transform="translate(-306.18 -158.51)"/><path class="cls-8" d="M686.6,483.37c-1.13-12.13,15.92-12.13,23.88-11.75,9.48.76,29.94,3,20.47,17.06-6.44,9.47-23.12,11.75-33,8.72C691.53,495.5,687.36,489.06,686.6,483.37Z" transform="translate(-306.18 -158.51)"/><path class="cls-8" d="M516.05,483.37c1.14-12.13-15.92-12.13-23.88-11.75-9.48.76-29.94,3-20.47,17.06,6.45,9.47,23.12,11.75,33,8.72A16.07,16.07,0,0,0,516.05,483.37Z" transform="translate(-306.18 -158.51)"/><path class="cls-2" d="M435.7,463.66c-4.55-10.23-18.2-14-28.43-9.85s-17.43,14-20.47,25a32.19,32.19,0,0,0-1.51,10.24c.38,14,11.75,25.77,24.63,31.46,7.21,3,15.16,4.92,22.74,3.41s14.79-6.83,17.44-14" transform="translate(-306.18 -158.51)"/><path class="cls-3" d="M402,478.82c-1.13-6.44,4.93-13.26,11.75-10.23,8.72,3.79.76,13.27,1.9,19.33,1.14,4.55,6.44,4.55,9.85,6.44,2.66,1.52,5.31,4.93,5.69,8,1.14,8-8.34,4.93-12.13,3-1.14-.76-2.27.75-1.52,1.89,4.93,4.93,17.82,6.82,17.44-3.41,0-3.79-2.65-8-5.69-10.23a7.81,7.81,0,0,0-3.79-2.28c-1.13-.38-3-.38-4.17-1.14-4.16-3-1.89-5.68-1.13-9.09,1.51-7.2-1.14-15.54-9.86-15.16a10.46,10.46,0,0,0-9.47,13.64c.38.38,1.13,0,1.13-.76Z" transform="translate(-306.18 -158.51)"/><path class="cls-3" d="M400.83,489.44c-.38,4.54,1.89,10.61,6.82,11.75,1.14,0,1.9-1.14,1.14-1.9-3.41-3-6.07-4.93-6.45-9.85a.76.76,0,1,0-1.51,0Z" transform="translate(-306.18 -158.51)"/><path class="cls-2" d="M763.92,455c4.55-10.24,18.2-14,28.43-9.86s17.43,14,20.47,25a32.09,32.09,0,0,1,1.51,10.23c-.38,14-11.75,25.77-24.63,31.46-7.2,3-15.16,4.93-22.74,3.41s-14.79-6.82-17.44-14" transform="translate(-306.18 -158.51)"/><path class="cls-3" d="M798.79,470.49c1.52-6.45-2.27-12.89-9.47-13.65-8.72-.76-11.37,8-10.24,15.16.38,3,1.52,3.79,0,6.82s-1.89,2.28-4.92,3.42a15.36,15.36,0,0,0-4.17,2.65,15.85,15.85,0,0,0-5.31,9.85c-1.14,10.62,12.13,9.1,17.44,4.17,1.13-1.14-.38-2.27-1.52-1.89-4.17,2.27-13.26,4.92-12.13-3,.38-2.65,2.66-5.68,4.93-7.58,3-2.65,9.47-2.27,10.61-7.2,1.14-6.06-6.44-14.4,1.14-18.95,6.82-4.17,13.64,3.41,12.51,9.86,0,.75,1.13.75,1.13.38Z" transform="translate(-306.18 -158.51)"/><path class="cls-3" d="M797.28,480.34c-.38,4.93-3.41,6.82-6.45,9.85-.75.76,0,1.9,1.14,1.9,4.93-.76,7.58-7.2,6.82-11.75,0-.76-1.13-.76-1.51,0Z" transform="translate(-306.18 -158.51)"/><path class="cls-9" d="M700.25,661.13c-1.52,35.63,14.78,160.32,12.13,176.24-1.52,8.34-46.62,5.69-100.82,5.69-45.48,0-109.16-1.9-109.16-1.9s-.38-150.09-1.89-182.68c-.76-1.52-1.14-23.88.38-31.46,1.51-6.82,47.75-25,47.75-25H660.45l39,18.58C699.49,621.33,700.25,661.13,700.25,661.13Z" transform="translate(-306.18 -158.51)"/><path class="cls-5" d="M543.72,365.88a223,223,0,0,0,29.94-15.16,118.47,118.47,0,0,0,25.77-20.09,154.26,154.26,0,0,0,19.71-25,244,244,0,0,0,14.4-29.94c.76,10.24-1.51,21.23-5.68,32.22a91.78,91.78,0,0,1-20.47,29.94,93.7,93.7,0,0,1-29.94,20.47A81.69,81.69,0,0,1,543.72,365.88Z" transform="translate(-306.18 -158.51)"/><path id="smile" class="cls-10" d="M554,497.77c4.55,3.42,19.33,14.41,41.31,14a66.88,66.88,0,0,0,42.45-15.54" transform="translate(-306.18 -158.51)"/><path class="cls-4" d="M690.77,611.1c11-4.93,26.16,8,37.15,17.06,11.75,9.85,17.05,20.08,18.57,23.49a1.4,1.4,0,0,1,.38,1.14c3,7.2,15.16,35.25,6.44,45.1-.76.76-.76.76-3.41,2.28-6.06,3.79-11.37,7.58-21.6,14.78-12.89,9.1-19.33,13.64-19.71,14-1.9,1.52-2.28,2.28-3.41,2.28-9.86,1.13-20.85-42.07-22-47.38-3.79-15.16-6.44-26.15-4.92-41.31C679.4,633.08,680.54,615.65,690.77,611.1Z" transform="translate(-306.18 -158.51)"/><path class="cls-4" d="M517.56,610.72c-11-4.93-26.15,8-37.14,17.06-11.75,9.85-17.05,20.08-18.57,23.5a1.37,1.37,0,0,0-.38,1.13c-3,7.2-15.16,35.25-6.44,45.11.75.75.75.75,3.41,2.27,6.06,3.79,11.37,7.58,21.6,14.78,12.89,9.1,19.33,13.65,19.71,14,1.9,1.52,2.27,2.28,3.41,2.28,9.86,1.14,20.85-42.07,22-47.38,3.79-15.16,6.45-26.15,4.93-41.31C528.93,632.33,527.8,615.27,517.56,610.72Z" transform="translate(-306.18 -158.51)"/><path class="cls-11" d="M564.94,599a151,151,0,0,0-19.71,1.52c-4.92.76-4.55.76-10.23,1.89-11,2.66-23.88,5.69-23.88,5.69s-1.52,49.27-1.52,49.65A775.89,775.89,0,0,1,499,761.57c-12.13,70.87-42.83,162.6-62.91,209.59C455,977.61,488,984.05,512.64,988.6a473.73,473.73,0,0,0,94.75,8.34,516.93,516.93,0,0,0,95.51-9.86c22.74-4.55,53.82-10.23,72-16.29-19.71-48.52-50-141-62.54-211.5A818.68,818.68,0,0,1,701,657.34s-1.52-49.27-1.52-49.65c0,0-13.26-3-23.88-5.69a131.3,131.3,0,0,0-29.56-3.41l-48.89-1.13C586.54,598.21,575.93,598.59,564.94,599Z" transform="translate(-306.18 -158.51)"/><g id="shirt"><path class="cls-12" d="M572.52,589.12l-44.34,10.61c-1.14.76-1.52,3-.38,3.79l43.58,46.62c.76.38,1.14.38,1.9-.38l38.28-55c.76-1.51.38-3.41-.76-3.79l-37.52-2.27C572.9,588.74,572.9,589.12,572.52,589.12Z" transform="translate(-306.18 -158.51)"/><path class="cls-12" d="M632.78,588.36,677.13,599c1.14.76,1.52,3,.38,3.79l-43.59,46.62c-.76.38-1.14.38-1.89-.38l-38.28-55c-.76-1.51-.38-3.41.75-3.79L632,588C632.41,588.36,632.41,588.36,632.78,588.36Z" transform="translate(-306.18 -158.51)"/></g><path class="cls-1" d="M658.56,183.19C679.4,217.3,631.27,295.38,572.14,334c-56.09,36.76-115.6,34.49-139.48,32.22-1.51,12.13-3,30.7-3.79,53.44-.75,24.25.38,33.35-2.27,34.11-4.93,1.14-20.09-34.49-25-74.29,0,0-.38-3.41-.76-6.06-2.28-25.78,2.65-100.44,42.45-148.58C502.78,153.63,634.68,144.15,658.56,183.19Z" transform="translate(-306.18 -158.51)"/><path class="cls-1" d="M618.38,185.85c-26.91,26.53-2.27,110.29,51.55,152.36,37.9,29.56,81.49,31.46,100.44,31.08,1.13,12.13,2.65,30.7,3.79,53.44,1.51,25,1.51,31.46,3.79,31.84,3,.76,18.57-34.11,23.12-72.39a51.67,51.67,0,0,1,.76-6.07c8.71-93.62-42.45-148.57-42.45-148.57C720,184.33,644.16,160.45,618.38,185.85Z" transform="translate(-306.18 -158.51)"/><g id="bow"><path class="cls-13" d="M786.66,285.15l36.39-44.73c1.9-2.27,4.93-1.89,6.82.38l21.61,33a4.21,4.21,0,0,1-2.66,6.44l-58,11.75A4.19,4.19,0,0,1,786.66,285.15Z" transform="translate(-306.18 -158.51)"/><path class="cls-13" d="M789.7,282.87l-55.34,17.06c-2.65.76-3.79,3.79-1.89,6.44L754.83,339c1.51,2.65,5.3,2.27,6.82,0l33-49.65C796.52,286.28,793.49,281.74,789.7,282.87Z" transform="translate(-306.18 -158.51)"/><circle class="cls-14" cx="484.27" cy="128.91" r="5.31"/></g><g id="bow-2" data-name="bow"><path class="cls-15" d="M410.3,297.28l-58.37-11.75c-2.65-.38-4.16-3.79-2.65-6.45l21.61-33c1.51-2.65,4.92-2.65,6.82-.38l36.38,44.72A4.12,4.12,0,0,1,410.3,297.28Z" transform="translate(-306.18 -158.51)"/><path class="cls-15" d="M406.51,294.62l33,49.65c1.51,2.28,5.3,2.66,6.82,0l22.36-32.59c1.52-2.65.38-5.69-1.89-6.44l-55.72-17.06C407.65,287,404.62,291.59,406.51,294.62Z" transform="translate(-306.18 -158.51)"/><circle class="cls-16" cx="104.12" cy="134.22" r="5.31"/></g><path class="cls-5" d="M706.31,388.24c4.93,1.52,8,2.65,10.62,2.65,2.65.38,5.68,0,10.61-1.13a7.83,7.83,0,0,1-3.79,6.44,11.46,11.46,0,0,1-8,1.89,12.77,12.77,0,0,1-7.2-3.41A10.91,10.91,0,0,1,706.31,388.24Z" transform="translate(-306.18 -158.51)"/><path class="cls-5" d="M485,390.51a9.52,9.52,0,0,1-3,6.83,12.17,12.17,0,0,1-15.16,1.51,8.82,8.82,0,0,1-3.79-6.44c4.92,1.14,8,1.51,10.61,1.14A42.52,42.52,0,0,0,485,390.51Z" transform="translate(-306.18 -158.51)"/></svg>