<svg width="1955" height="353" viewBox="0 0 1955 353" fill="none" xmlns="http://www.w3.org/2000/svg">
<path d="M1943 274.322C1893.93 244.547 1874.63 206.929 1812.91 207.136C1709.59 207.482 1577.44 226.435 1477.53 243.263C1352.97 264.242 1226.3 276.585 1097.43 274.322C993.468 272.496 901.692 260.544 801.564 241.578C696.847 221.743 601.913 181.791 511.124 142.32C447.618 114.71 395.969 40.5082 325.025 21.5746C229.399 -3.94649 121.265 22.8492 20.1305 37.8537" stroke="#FF0013" stroke-width="23" stroke-linecap="round" stroke-dasharray="78 78"/>
<path d="M1934.87 321.689C1885.8 291.914 1866.5 254.296 1804.78 254.503C1701.46 254.849 1569.31 273.802 1469.4 290.63C1344.84 311.608 1214.1 343.148 1085.23 340.885C981.272 339.059 893.562 307.91 793.434 288.945C688.716 269.11 593.782 229.158 502.993 189.687C439.487 162.077 387.838 87.875 316.895 68.9414C221.268 43.4203 113.135 70.216 12 85.2205" stroke="#84E849" stroke-width="23" stroke-linecap="round" stroke-dasharray="78 78"/>
</svg>
