<svg width="1900" height="383" viewBox="0 0 1900 383" fill="none" xmlns="http://www.w3.org/2000/svg">
<path d="M11.7192 189.699C60.7792 171.919 81.522 146.262 141.137 151.027C240.932 159.005 367.538 182.543 463.115 202.139C582.268 226.568 703.954 244.935 828.575 252.944C929.104 259.405 1018.43 257.658 1116.21 251.485C1218.48 245.028 1312.42 223.347 1402.33 201.702C1465.22 186.562 1519.25 136.97 1588.84 128.636C1682.64 117.403 1785.61 144.795 1882.47 163.169" stroke="#FF0013" stroke-width="23" stroke-linecap="round" stroke-dasharray="78 78"/>
<path d="M16.9313 224.43C65.9913 206.65 86.7342 180.993 146.349 185.759C246.144 193.736 372.75 217.275 468.327 236.87C587.48 261.3 712.022 293.8 836.644 301.809C937.173 308.269 1023.64 292.39 1121.43 286.216C1223.69 279.759 1317.63 258.079 1407.54 236.434C1470.43 221.293 1524.46 171.701 1594.05 163.368C1687.85 152.135 1790.82 179.527 1887.68 197.9" stroke="#84E849" stroke-width="23" stroke-linecap="round" stroke-dasharray="78 78"/>
</svg>
