<svg width="1924" height="436" viewBox="0 0 1924 436" fill="none" xmlns="http://www.w3.org/2000/svg">
<path d="M12 340.221C60.278 302.995 79.2682 255.963 140 256.221C241.665 256.654 371.695 280.35 470 301.389C592.553 327.618 717.196 343.05 844 340.221C946.289 337.939 1036.59 322.995 1135.11 299.282C1238.15 274.483 1331.56 224.534 1420.89 175.184C1483.38 140.664 1534.2 47.893 1604 24.221C1698.09 -7.68702 1804.49 25.8146 1904 44.5742" stroke="#FCF1FD" stroke-width="23" stroke-linecap="round" stroke-dasharray="78 78"/>
<path d="M20 399.442C68.278 362.216 87.2682 315.183 148 315.442C249.665 315.875 379.695 339.571 478 360.61C600.553 386.839 729.196 426.271 856 423.442C958.289 421.16 1044.59 382.215 1143.11 358.503C1246.15 333.704 1339.56 283.755 1428.89 234.405C1491.38 199.885 1542.2 107.114 1612 83.4419C1706.09 51.5339 1812.49 85.0355 1912 103.795" stroke="#84E849" stroke-width="23" stroke-linecap="round" stroke-dasharray="78 78"/>
</svg>
