<svg width="2001" height="2280" viewBox="0 0 2001 2280" fill="none" xmlns="http://www.w3.org/2000/svg">
<path d="M952.263 2279.14H436.798L0.373047 484.116C210.915 193.539 580.109 0.859375 1000.37 0.859375C1420.64 0.859375 1789.83 193.539 2000.37 484.116L1563.94 2279.14H952.263Z" fill="#FFA314"/>
<path d="M506.517 2213.84H1494.23L1668.53 1498.16L1752.95 1151.5C1752.95 735.869 1416.01 398.945 1000.37 398.945C584.734 398.945 247.795 735.869 247.795 1151.5L332.221 1498.16L506.517 2213.84Z" fill="white"/>
<path d="M807.242 1717.65C825.245 1697.12 847.752 1667.12 847.752 1667.12L861.592 1646.23C874.214 1621.88 883.621 1598.25 890.48 1578.13C902.173 1543.84 906.434 1519.75 906.434 1519.75C908.323 1516.03 906.398 1509.86 909.946 1505.36C913.493 1500.85 915.566 1484.31 915.566 1484.31C929.058 1436.71 929.011 1336.1 929.011 1336.1C929.889 1333.66 928.674 1328.57 930.061 1325.5C931.437 1322.42 930.442 1319.05 931.355 1302.65C932.268 1286.26 939.974 1291.71 939.974 1291.71C947.888 1298.88 952.682 1290.15 955.582 1285.14C957.821 1281.27 957.793 1273.19 957.664 1269.7C957.621 1268.67 957.574 1268.02 957.574 1268.02C951.533 1261.78 954.508 1257.35 955.312 1254.34C956.112 1251.34 961.677 1225.06 959.753 1218.9C959.463 1217.99 959.298 1217.04 959.232 1216.08C959.232 1216.08 971.3 1217.48 975.918 1216.92C980.535 1216.35 985.588 1214.57 989.056 1214.14C992.521 1213.72 1000.69 1208.64 1004.43 1210.51C1008.18 1212.38 1015.31 1217.89 1015.31 1217.89C1015.31 1217.89 1020.14 1219.05 1024.18 1218.55C1028.22 1218.05 1031.98 1215.27 1034.66 1213.19C1035.41 1212.62 1036.78 1211.71 1038.39 1210.65C1042.5 1207.92 1048.25 1203.99 1049.55 1200.9C1051.38 1196.61 1054.8 1186.3 1053.59 1181.21C1052.38 1176.13 1054.01 1160.8 1054.38 1159.02C1054.74 1157.23 1056 1148.35 1060.67 1153.01C1065.35 1157.67 1068.44 1159.04 1071.91 1158.61C1075.38 1158.18 1086.85 1156.19 1083.44 1161.85C1080.04 1167.5 1080.52 1171.51 1081.39 1173.73C1082.24 1175.95 1084.47 1179.75 1082.78 1189.85C1081.09 1199.93 1082.4 1215.48 1082.11 1217.84C1081.82 1220.2 1081.88 1244.62 1081.88 1244.62L1082.98 1253.12C1083.78 1253.48 1084.67 1254.29 1085.6 1255.8C1089.26 1261.75 1094.43 1270.42 1093.11 1278.72C1093.11 1278.72 1097.22 1278.8 1097.13 1282.88C1097.04 1286.96 1096.2 1303.93 1096.2 1303.93C1096.2 1303.93 1096.05 1307.44 1098.36 1307.16V1307.16C1100.67 1306.88 1106.79 1309.03 1098.48 1312.96C1090.17 1316.89 1090.39 1313.95 1087.64 1320.11C1084.87 1326.27 1081.85 1325.47 1082.55 1331.2C1083.26 1336.94 1086.39 1348.18 1084.51 1351.9C1082.62 1355.62 1084.39 1365.29 1084.74 1368.16C1084.74 1368.16 1088.22 1386.92 1087.26 1393.43C1086.72 1397.13 1087.12 1400.69 1087.75 1403.92C1088.25 1406.39 1088.88 1408.67 1089.37 1410.63C1090.52 1415.14 1096.51 1435.34 1095.99 1440.64H1096C1095.48 1445.93 1090.91 1475.58 1091.04 1481.38C1091.16 1487.18 1091.78 1496.99 1094.08 1501.36C1096.37 1505.73 1096.05 1517.41 1095.66 1523.85C1095.66 1523.85 1099.89 1534.39 1100.38 1538.4C1100.87 1542.4 1102.21 1553.29 1102.21 1553.29L1100.61 1559.3L1104.66 1743.84C1104.66 1743.84 1101.19 1759.88 1099.72 1767.04C1098.25 1774.2 1102.62 1785.88 1095.31 1793.17C1088.01 1800.47 1085.39 1803.11 1085.08 1810.13C1084.77 1817.15 1087.2 1827.32 1081.41 1832.69C1081.41 1832.69 1075.42 1855.52 1075.55 1861.32C1075.55 1861.32 1066.73 1889.74 1065.2 1896.33C1063.66 1902.91 1057.07 1935.13 1060.22 1941.72C1063.37 1948.31 1068.12 1953.54 1065.06 1962.07C1062 1970.58 1058.29 1983.26 1064.09 1997.08C1069.89 2010.91 1072.39 2017 1068.85 2021.51C1065.3 2026.01 1056.85 2052.64 1055.81 2058.58C1054.79 2064.53 1054.87 2084.29 1054.86 2088.95C1054.84 2093.6 1054.67 2101.76 1052.49 2107.85C1052.49 2107.85 1046.43 2130.11 1047.42 2138.13C1048.4 2146.15 1045.26 2158.75 1043.08 2164.83L1040.31 2176.68C1037.71 2177.28 1035.05 2180.65 1033.85 2185.17C1033.19 2187.61 1032.02 2189.84 1030.46 2191.86C1030.46 2191.86 1017.49 2180.78 1017.08 2172.69C1016.67 2164.59 1016.12 2155.35 1013.11 2149.91C1010.1 2144.46 1006.38 2133.28 1005.95 2129.85L978.364 2072.17C978.364 2072.17 932.715 1972.5 927.463 1967.91C927.463 1967.91 922.261 1964.99 917.444 1961.17C912.709 1957.41 908.342 1952.78 909.636 1949.16C912.262 1941.86 911.733 1937.56 907.527 1931.97C903.325 1926.38 901.401 1917.89 900.668 1911.87C900.668 1911.87 873.25 1853.3 864.744 1841.26L807.242 1717.65Z" fill="#2F9A31"/>
<path d="M821.47 697.897C823.513 689.78 826.186 681.83 829.482 674.132C836.687 657.309 846.764 641.862 859.252 628.484L867.244 619.923C878.866 607.47 891.876 596.378 906.006 586.857L936.493 566.325L997.758 534.623C1017.43 521.963 1035.92 507.534 1052.98 491.526L1061.14 483.875C1047.25 517.239 1025.71 546.872 998.268 570.386L973.464 591.631L900.585 640.219L853.051 668.739L837.718 680.666C829.122 687.353 822.693 696.431 819.252 706.764L821.47 697.897Z" fill="#CE1126"/>
<path d="M779.758 807.296C777.959 802.342 777.594 796.98 778.707 791.825L781.545 778.714C784.109 766.837 789.545 755.772 797.369 746.479L809.32 732.289C815.925 724.446 823.313 717.304 831.38 710.982L863.623 685.7L936.494 640.22L1003.05 591.632L1046.36 552.553L1072.85 526.052C1083.89 515.018 1097.47 506.869 1112.41 502.322C1129.3 497.179 1147.3 496.846 1164.37 501.358L1194.23 509.244L1174.33 511.502C1150.81 514.167 1128.61 523.763 1110.56 539.065C1096.8 550.722 1085.87 565.339 1078.58 581.821L1074.82 590.299C1065.8 610.677 1061.14 632.722 1061.14 655.009V689.992C1061.14 710.276 1059.08 730.51 1054.99 750.371L1048.27 783.022C1047 789.187 1044.86 795.145 1041.91 800.711C1032.68 818.15 1016.17 830.575 996.861 834.628L965.429 841.225C949.786 844.506 933.691 844.984 917.883 842.636L801.932 825.397C791.78 823.892 783.27 816.939 779.758 807.296Z" fill="#CE1126"/>
<path d="M1086.67 831.117C1071.83 827.186 1065.55 809.571 1074.56 797.134C1076.84 793.986 1078.24 790.282 1078.62 786.406L1084.38 726.834V673.162C1084.38 656.946 1086.79 640.821 1091.53 625.315C1094.51 615.555 1098.39 606.1 1103.12 597.065L1103.43 596.474C1113.87 576.569 1128.12 558.919 1145.39 544.53L1157.27 534.625L1145.29 564.54C1140.61 576.236 1137.07 588.36 1134.71 600.734C1128.72 632.233 1130.53 664.723 1140.01 695.355L1143.53 706.765L1157.27 747.957L1160.03 756.248C1163.1 765.451 1164.66 775.085 1164.66 784.783V797.298C1164.66 804.424 1162.85 811.437 1159.38 817.661L1158.87 818.582C1149.85 834.814 1130.96 842.857 1113.01 838.102L1086.67 831.117Z" fill="#CE1126"/>
<path d="M1226.6 822.96C1205.79 822.96 1189.96 804.267 1193.37 783.74C1193.95 780.33 1193.99 776.861 1193.5 773.435L1190.2 750.333C1187.96 734.736 1183.75 719.493 1177.66 704.966L1170.8 688.641C1166.72 678.92 1163.53 668.846 1161.27 658.545L1159.82 651.909C1158.12 644.145 1157.27 636.219 1157.27 628.27C1157.27 610.478 1161.55 592.954 1169.77 577.173L1169.94 576.852C1173.41 606.006 1183.8 633.906 1200.23 658.232L1201.63 660.298L1218.23 685.482C1227.53 699.604 1238.81 712.323 1251.71 723.267L1271.72 740.22C1277.74 745.327 1282.61 751.65 1286 758.776L1287.23 761.363C1289.99 767.148 1291.42 773.47 1291.42 779.883C1291.42 803.668 1272.12 822.96 1248.33 822.96H1226.6Z" fill="#CE1126"/>
<path d="M1464.12 791.219H538.615V1121.11H1464.12V791.219Z" fill="#2F9A31"/>
<path d="M1464.12 791.219H538.615V1011.14H1464.12V791.219Z" fill="white"/>
<path d="M1464.12 791.219H538.615V901.181H1464.12V791.219Z" fill="black"/>
<path d="M538.615 791.219L742.509 956.163L538.615 1121.11V791.219Z" fill="#CE1126"/>
<path d="M944.117 2025.61L903.341 2024.89L862.557 2024.17L854.404 2016.26L846.247 2008.36L840.967 2016.5C834.253 2027.28 834.496 2030.4 843.127 2038.55C853.683 2048.61 852.73 2057.48 839.772 2074.97C825.861 2093.9 812.424 2100.85 789.874 2100.85C780.761 2100.85 773.568 2101.57 773.568 2102.53C773.568 2103.49 777.649 2107.08 782.446 2110.44C795.875 2119.3 814.823 2119.07 828.021 2109.48C844.812 2097.26 852.961 2084.32 858.723 2060.11L861.361 2048.13L910.777 2047.41L960.184 2046.93L1044.62 2048.85C1044.62 2047.9 1108.67 2046.69 1186.87 2046.46L1328.87 2045.5L1360.05 2036.39C1397.95 2025.13 1403.95 2023.93 1437.04 2020.58C1451.44 2018.9 1463.91 2016.98 1464.63 2016.26C1465.6 2015.3 1467.03 2011.23 1467.76 2007.15L1469.43 1999.72L1441.13 1998.05C1400.11 1995.65 1363.65 1989.42 1363.65 1984.63C1363.65 1983.67 1367 1981.28 1371.33 1979.6C1375.4 1977.92 1387.88 1968.09 1398.67 1957.79C1409.7 1947.49 1420.26 1939.1 1422.18 1939.1C1426.5 1939.1 1432.25 1947.25 1434.41 1956.35C1435.37 1960.18 1437.53 1963.07 1439.44 1963.07C1447.12 1963.07 1440.16 1924.96 1431.05 1916.57C1424.34 1910.35 1419.06 1913.22 1406.82 1929.75C1386.43 1957.07 1367 1970.73 1337.74 1978.16C1326.23 1981.04 1324.55 1982.23 1320.47 1991.34L1315.91 2001.4H1323.59C1331.51 2001.64 1370.36 2009.55 1372.28 2011.71C1373 2012.19 1363.89 2015.3 1352.37 2018.42C1331.53 2024.16 1330.31 2024.17 1189.48 2024.89L1189.02 2024.89L1046.78 2025.61H944.117Z" fill="black"/>
<path d="M1372.28 1884.44L1366.28 1892.11L1356.21 1886.6L1346.14 1880.85L1339.42 1888.99C1331.98 1897.86 1331.03 1900.74 1335.1 1900.74C1336.54 1900.74 1340.86 1903.13 1344.94 1905.76C1351.89 1910.8 1352.13 1910.8 1355.25 1906.49C1366.28 1891.15 1364.61 1891.87 1375.4 1897.86C1386.2 1904.09 1387.63 1903.61 1394.83 1893.79L1399.62 1886.84L1391.47 1881.8C1380.92 1875.09 1379.48 1875.33 1372.28 1884.44Z" fill="black"/>
<path d="M742.383 1983.88L737.107 1992.74L742.626 2004.49C748.145 2015.99 748.145 2016.23 743.587 2019.59C736.39 2024.86 727.03 2025.58 673.542 2024.86L622.692 2024.14L614.296 2015.99C609.498 2011.44 605.418 2008.08 604.701 2008.8C604.219 2009.28 601.581 2014.08 598.943 2019.35L594.145 2028.93L602.302 2037.8C611.654 2048.35 612.375 2053.14 605.9 2065.6C593.667 2089.56 568.957 2103.94 544.251 2101.3C537.055 2100.58 531.301 2100.34 531.301 2101.07C531.301 2101.54 535.855 2105.13 541.374 2109.21C549.531 2115.2 553.369 2116.39 565.12 2116.39C577.114 2116.39 580.234 2115.44 589.347 2108.49C602.541 2098.42 614.535 2078.53 618.133 2060.8L621.01 2046.9H674.741C709.286 2046.9 732.067 2045.95 738.068 2044.03C749.098 2040.67 755.82 2033.24 759.414 2019.59C761.813 2011.2 761.335 2007.36 757.015 1993.71C754.138 1984.84 750.783 1976.93 749.58 1976.21C748.619 1975.49 745.264 1979.09 742.383 1983.88Z" fill="black"/>
<path d="M687.223 2074.69C684.342 2079.24 682.186 2083.31 682.664 2083.79C683.142 2084.03 686.984 2086.67 691.299 2089.54L698.735 2094.81L704.254 2086.19C709.534 2077.56 709.534 2077.32 704.971 2073.97C693.937 2065.58 692.738 2065.58 687.223 2074.69Z" fill="black"/>
<path d="M659.632 2079.52C656.034 2084.07 653.635 2088.14 653.874 2088.62C662.27 2094.62 670.905 2099.89 671.383 2099.41C675.702 2092.7 680.018 2085.03 680.018 2083.35C680.018 2082.39 676.902 2079.03 673.065 2076.16L666.107 2071.13L659.632 2079.52Z" fill="black"/>
<path d="M440.263 1229.79C438.472 1232.71 443.175 1238.75 447.209 1238.75C449 1238.75 451.465 1240.76 453.033 1243.22C456.169 1248.14 466.023 1249.26 466.023 1244.79C466.023 1240.76 461.319 1236.51 457.063 1236.51C455.271 1236.51 452.359 1234.49 450.791 1232.03C447.879 1227.11 442.505 1226.21 440.263 1229.79Z" fill="black"/>
<path d="M1562.91 1249.29C1562.02 1249.96 1561.34 1256.01 1561.34 1262.27C1561.34 1281.51 1574.11 1292.7 1582.4 1280.84C1584.41 1278.16 1585.98 1273.9 1585.98 1271.67C1585.98 1269.21 1586.88 1268.31 1588.45 1269.21C1592.26 1271.44 1589.79 1290.24 1583.97 1302.1C1580.16 1309.94 1577.02 1313.06 1569.63 1316.2C1555.75 1322.02 1564.93 1322.68 1579.93 1317.09C1586.88 1314.41 1594.27 1310.16 1596.06 1307.47C1604.57 1295.39 1596.06 1262.49 1581.5 1252.2C1575.23 1247.72 1565.82 1246.38 1562.91 1249.29ZM1578.15 1265.4C1578.15 1270.32 1570.98 1273.9 1567.84 1270.77C1565.82 1268.76 1565.82 1267.19 1568.06 1264.51C1571.42 1260.25 1578.15 1260.92 1578.15 1265.4Z" fill="black"/>
<path d="M407.783 1262.72C395.017 1282.86 401.962 1293.38 421.224 1283.53C426.378 1280.84 433.32 1279.05 436.455 1279.5C442.057 1280.17 442.504 1280.84 441.833 1288.45C441.159 1296.06 441.833 1297.4 451.911 1304.57C458.629 1309.71 464.23 1312.17 467.143 1311.5C470.278 1310.83 472.52 1312.17 473.861 1315.31C475.205 1317.99 481.253 1322.91 487.748 1326.5C498.727 1332.76 499.621 1332.76 504.772 1329.4C509.926 1326.04 510.373 1326.27 519.557 1336.12C524.707 1341.71 529.638 1346.19 530.532 1346.19C538.598 1346.19 552.035 1315.97 545.987 1312.17C539.939 1308.36 523.139 1310.38 514.853 1315.97L506.567 1321.57L496.485 1315.53C490.884 1312.17 485.734 1307.92 485.063 1306.35C484.389 1304.79 486.631 1299.86 489.767 1295.61C493.126 1291.36 494.917 1288 494.247 1288C490.884 1288 482.821 1293.38 479.239 1297.85C475.429 1302.55 475.205 1302.55 467.366 1298.29C454.6 1291.58 449.896 1285.32 452.358 1278.61C456.614 1267.42 447.207 1264.96 430.407 1272.34C412.487 1280.62 407.56 1277.49 412.937 1261.59C414.729 1256.45 415.85 1252.2 415.399 1252.2C414.952 1252.2 411.37 1256.89 407.783 1262.72ZM534.114 1322.24C535.459 1324.25 535.686 1326.5 534.788 1327.39C532.774 1329.62 524.037 1321.57 525.605 1318.89C527.396 1316.2 531.206 1317.54 534.114 1322.24Z" fill="black"/>
<path d="M1543.42 1286.01C1540.29 1286.91 1530.88 1287.58 1522.59 1287.8C1502.43 1288.03 1492.81 1292.28 1490.79 1301.45C1488.77 1310.63 1490.12 1311.53 1498.41 1307.27C1506.02 1303.25 1516.54 1302.57 1516.54 1305.93C1516.54 1308.39 1503.11 1317.34 1490.34 1323.38L1482.27 1327.19L1469.29 1312.87L1456.07 1298.55V1306.38C1456.07 1312.19 1457.86 1315.77 1463.91 1321.59C1468.17 1325.84 1471.75 1329.88 1471.75 1330.99C1471.75 1331.89 1465.48 1335.92 1458.08 1339.72C1447.11 1345.09 1443.75 1345.99 1442.41 1343.52C1441.29 1341.96 1440.39 1339.95 1440.39 1338.82C1440.39 1337.93 1439.49 1337.26 1438.37 1337.26C1435.91 1337.26 1439.72 1352.25 1443.53 1357.85C1445.99 1361.2 1447.33 1360.97 1459.43 1354.49C1468.84 1349.34 1473.09 1345.76 1473.54 1342.18C1474.21 1337.26 1479.59 1335.25 1481.16 1339.72C1481.6 1341.07 1488.1 1339.27 1497.29 1334.8C1508.03 1329.65 1514.53 1324.95 1518.57 1318.91C1521.92 1314.21 1529.54 1307.94 1536.04 1304.37C1544.99 1299.66 1547.9 1296.76 1548.81 1291.61C1550.37 1283.78 1550.59 1283.78 1543.42 1286.01Z" fill="black"/>
<path d="M1396.49 1313.75C1395.59 1315.76 1392.24 1317.11 1388.65 1317.11C1383.27 1317.11 1382.15 1318 1382.15 1322.7C1382.15 1327.17 1383.27 1328.3 1387.76 1328.3C1391.11 1328.3 1393.36 1326.96 1393.36 1325.16C1393.36 1323.15 1396.04 1321.58 1400.3 1321.13C1405.23 1320.69 1407.91 1318.9 1409.26 1315.32C1410.83 1310.85 1410.37 1310.39 1404.33 1310.39C1400.52 1310.39 1397.16 1311.74 1396.49 1313.75Z" fill="black"/>
<path d="M612.067 1315.29C608.485 1318.87 612.965 1326.93 617.669 1324.91C619.683 1324.24 623.266 1325.58 625.955 1328.05C629.537 1331.18 631.779 1331.85 636.036 1330.28C641.187 1328.27 641.187 1328.05 637.153 1323.57C634.692 1320.66 631.333 1319.54 628.42 1320.21C625.285 1321.11 622.819 1319.98 621.028 1317.08C617.892 1311.93 615.877 1311.48 612.067 1315.29Z" fill="black"/>
<path d="M445.194 1321.81C439.146 1325.39 440.714 1330.54 448.106 1332.1C451.912 1332.77 455.945 1335.24 457.063 1337.25C459.305 1341.5 468.265 1341.05 468.265 1336.8C468.265 1330.98 463.785 1326.73 458.184 1327.63C454.154 1328.52 452.582 1327.85 452.582 1325.39C452.582 1320.47 449.897 1319.35 445.194 1321.81Z" fill="black"/>
<path d="M571.752 1329.84C563.686 1333.87 551.143 1347.07 551.143 1351.76C551.143 1353.33 554.278 1357.36 558.312 1360.49C562.341 1363.63 565.03 1366.76 564.136 1367.43C563.462 1368.1 557.191 1369.45 550.249 1370.11C539.047 1371.23 537.032 1370.79 529.863 1365.42C525.61 1362.06 522.023 1360.49 522.023 1362.06C522.023 1366.76 541.289 1384.22 546.439 1384.22C552.264 1384.22 567.045 1377.05 570.855 1372.35C573.32 1369.67 576.456 1370.34 594.373 1377.72C605.575 1382.42 616.327 1386.45 617.895 1386.45C622.822 1386.45 631.782 1364.07 631.782 1351.32C631.782 1334.09 625.734 1329.61 610.949 1335.88C601.095 1339.91 595.27 1347.07 596.838 1352.44C598.853 1358.26 609.381 1362.5 616.997 1360.49C622.822 1359.15 623.045 1359.37 621.477 1365.42C620.58 1369 619.91 1372.13 619.686 1372.35C619.463 1372.35 611.396 1369.22 601.542 1365.19L583.621 1357.81L584.295 1344.61C585.189 1328.05 582.277 1324.69 571.752 1329.84ZM573.093 1344.61C573.544 1348.86 572.869 1350.65 570.408 1350.65C565.481 1350.65 561.894 1343.04 565.254 1339.68C569.063 1335.88 572.423 1337.89 573.093 1344.61ZM618.118 1345.95C619.463 1348.18 619.91 1350.65 619.012 1351.32C616.997 1353.56 609.381 1348.64 609.381 1345.05C609.381 1340.35 615.429 1341.03 618.118 1345.95Z" fill="black"/>
<path d="M1401.42 1339.72C1399.62 1348.67 1399.62 1369.48 1401.42 1373.96C1405.23 1383.8 1427.18 1371.94 1430.54 1358.51C1431.21 1355.83 1430.31 1350.01 1428.52 1345.54C1425.83 1339.27 1423.14 1337.03 1416.43 1335.24C1404.1 1331.66 1402.98 1332.11 1401.42 1339.72ZM1417.32 1348.89C1421.36 1350.46 1424.71 1352.25 1424.71 1353.15C1424.71 1356.28 1414.85 1361.87 1409.48 1361.87C1405 1361.87 1404.33 1360.98 1405.45 1356.73C1406.12 1354.04 1406.79 1350.46 1406.79 1348.89C1406.79 1345.54 1407.91 1345.54 1417.32 1348.89Z" fill="black"/>
<path d="M676.796 1345.95C674.107 1347.74 673.884 1348.64 676.573 1351.55C678.14 1353.56 681.276 1354.68 683.291 1354.01C685.306 1353.33 688.441 1354.23 690.013 1356.24C692.921 1359.82 700.318 1360.72 702.101 1357.81C704.124 1354.46 697.174 1347.97 692.702 1349.31C690.233 1350.2 687.32 1349.31 685.529 1347.29C682.397 1343.49 681.053 1343.27 676.796 1345.95Z" fill="black"/>
<path d="M1342.73 1365.2C1337.36 1377.96 1340.04 1393.4 1348.1 1396.53C1352.81 1398.32 1361.99 1391.61 1361.99 1386.24C1361.99 1383.78 1363.12 1382.44 1364.23 1383.1C1368.26 1385.56 1366.48 1394.07 1359.75 1405.93C1352.14 1419.13 1345.64 1424.5 1336.91 1424.5C1333.55 1424.5 1330.19 1425.4 1329.51 1426.74C1327.72 1429.65 1344.97 1429.65 1355.5 1426.74C1365.8 1423.83 1370.73 1416.45 1372.52 1402.13C1374.31 1387.58 1369.83 1372.14 1361.55 1363.86C1352.58 1355.13 1346.98 1355.36 1342.73 1365.2ZM1356.39 1377.51C1356.39 1379.52 1353.92 1381.09 1350.35 1381.53C1343.62 1382.44 1343.4 1381.98 1345.42 1376.39C1347.21 1371.92 1356.39 1372.81 1356.39 1377.51Z" fill="black"/>
<path d="M1242.39 1365.41C1241.27 1369.21 1241.94 1372.57 1244.17 1375.03C1248.88 1380.18 1261.42 1408.82 1260.08 1411.28C1259.41 1412.39 1254.48 1414.19 1249.56 1415.75C1241.27 1417.77 1239.7 1417.77 1237.23 1414.19C1235.66 1411.95 1234.32 1407.92 1234.32 1405.01C1234.32 1402.11 1233.42 1399.87 1232.09 1399.87C1229.84 1399.87 1228.27 1405.01 1227.15 1415.53C1226.48 1420.46 1225.14 1421.35 1213.49 1423.13C1198.7 1425.6 1196.02 1424.04 1195.79 1413.52C1195.35 1400.76 1189.08 1406.35 1188.63 1419.78C1188.4 1427.84 1188.4 1427.84 1174.96 1430.52C1163.1 1432.98 1161.3 1432.76 1159.28 1429.63C1158.16 1427.84 1155.25 1424.04 1153.24 1421.35L1149.42 1416.65L1144.5 1421.57C1141.81 1424.26 1136.88 1431.19 1133.75 1437.24C1125.46 1452.67 1119.41 1452.01 1113.36 1434.77C1109.33 1423.36 1108.44 1430.3 1112.02 1444.85C1118.74 1470.35 1124.57 1471.25 1136.66 1449.09C1141.14 1440.37 1146.29 1433.43 1147.86 1433.43C1149.2 1433.43 1152.34 1436.34 1154.35 1440.15C1158.83 1447.53 1161.52 1447.97 1178.1 1444.4C1186.39 1442.61 1189.3 1440.82 1190.42 1437.24C1191.76 1432.54 1191.99 1432.54 1194.9 1436.34C1197.81 1439.92 1199.38 1440.15 1213.04 1437.68C1224.69 1435.67 1228.5 1434.11 1229.17 1430.97C1230.51 1425.82 1231.63 1425.82 1236.34 1429.85C1239.47 1432.54 1244.4 1431.86 1272.4 1424.04C1315.4 1412.18 1315.63 1412.18 1318.09 1399.42C1320.56 1387.11 1318.55 1383.53 1306.9 1379.73C1299.73 1377.27 1298.16 1377.71 1290.54 1382.86C1286.06 1385.99 1278.89 1392.26 1274.64 1396.51L1267.25 1404.12L1262.99 1391.59C1259.86 1382.86 1259.41 1378.38 1260.98 1376.82C1265.23 1372.57 1263.67 1366.75 1257.39 1364.51C1253.81 1363.39 1249.56 1361.6 1247.53 1360.71C1244.85 1359.81 1243.51 1360.93 1242.39 1365.41ZM1302.64 1393.6C1305.78 1394.94 1308.24 1396.73 1308.24 1397.63C1308.24 1398.97 1277.55 1408.82 1273.29 1408.82C1270.61 1408.82 1279.79 1399.42 1286.96 1395.16C1294.8 1390.24 1295.25 1390.24 1302.64 1393.6Z" fill="black"/>
<path d="M731.451 1369.02L725.176 1373.94L730.33 1377.97C733.909 1380.87 734.356 1381.99 731.898 1381.99C729.883 1381.99 727.641 1383.11 726.967 1384.24C726.073 1385.8 728.762 1386.02 735.257 1385.13C750.712 1382.67 752.053 1380.87 741.752 1376.85C731.004 1372.37 729.209 1367.45 739.287 1369.24C744.214 1370.36 746.005 1369.91 746.005 1367.45C746.005 1362.52 738.616 1363.42 731.451 1369.02Z" fill="black"/>
<path d="M1211.02 1377.31C1206.32 1382.46 1206.54 1383.58 1212.14 1386.48C1215.73 1388.5 1217.74 1388.27 1221.1 1385.14C1226.7 1380.22 1226.48 1378.65 1219.98 1375.75C1215.5 1373.73 1213.93 1374.18 1211.02 1377.31Z" fill="black"/>
<path d="M650.82 1387.59C646.563 1401.91 647.01 1408.62 652.388 1411.98C655.296 1413.77 657.985 1412.88 664.707 1407.5C675.231 1399 686.661 1392.96 688.672 1394.75C689.346 1395.65 690.013 1398.78 690.013 1402.13C690.013 1409.97 694.94 1414 709.952 1418.92C719.806 1422.05 722.275 1422.27 723.843 1419.81C725.407 1417.35 726.301 1417.58 728.77 1420.71C732.576 1426.08 754.977 1431.45 760.579 1428.31C763.483 1426.75 765.051 1426.97 766.399 1429.66C768.637 1433.46 777.821 1436.82 792.606 1439.05C800.446 1440.4 802.907 1439.96 805.596 1436.37C808.508 1432.57 808.736 1432.57 810.076 1437.27C810.974 1440.17 813.882 1442.64 817.469 1443.31C831.133 1446.21 856.219 1449.12 858.233 1448.01C859.135 1447.34 861.593 1441.74 863.388 1435.7C866.751 1424.73 865.849 1416.68 860.703 1407.73C858.908 1404.38 858.233 1404.6 853.981 1409.97C849.496 1415.56 849.496 1416.46 852.413 1422.5C858.233 1433.46 857.34 1434.36 839.642 1432.57C830.905 1431.89 823.066 1430.55 822.4 1430.1C821.945 1429.43 823.293 1426.97 825.304 1424.73C827.774 1422.05 828.667 1418.69 827.993 1416.01C823.74 1403.03 806.266 1399.23 796.859 1409.07L791.713 1414.89L798.207 1418.47C801.567 1420.49 803.809 1423.17 803.134 1424.51C801.786 1426.75 796.193 1426.08 782.301 1421.83C775.132 1419.59 774.909 1419.37 776.253 1410.86C777.147 1405.94 776.928 1402.13 775.579 1402.13C772.894 1402.13 766.172 1409.74 766.172 1412.88C766.172 1417.35 762.589 1417.58 750.721 1414C737.95 1410.42 737.503 1409.07 742.881 1394.3C744.218 1390.72 743.101 1391.17 737.503 1396.31C733.47 1400.12 730.338 1404.38 730.338 1406.16C730.338 1409.51 723.389 1408.62 707.937 1403.26C701.215 1401.01 699.871 1399.45 698.977 1391.84C697.409 1380.2 692.709 1379.53 677.474 1389.61C659.329 1401.69 652.388 1399.67 655.523 1382.89C657.761 1371.03 654.626 1373.94 650.82 1387.59Z" fill="black"/>
<path d="M840.543 1384.68C836.286 1388.93 843.675 1395.87 849.057 1392.51C852.412 1390.49 854.207 1390.95 858.013 1394.3C862.266 1398.11 862.94 1398.33 866.303 1394.75C869.882 1391.39 869.662 1390.72 866.076 1386.69C862.721 1383.11 861.372 1382.67 857.793 1384.9C854.43 1386.92 852.639 1386.92 849.057 1384.68C843.675 1381.33 843.902 1381.33 840.543 1384.68Z" fill="black"/>
<path d="M1132.17 1390.26C1129.93 1393.62 1128.81 1393.85 1125 1391.61C1121.41 1389.37 1119.85 1389.6 1116.93 1392.95C1114.25 1395.86 1114.03 1397.42 1116.04 1399.44C1119.63 1403.02 1123.43 1402.8 1126.79 1398.77C1128.81 1396.3 1130.38 1396.08 1133.74 1398.32C1137.1 1400.34 1138.67 1400.11 1141.8 1396.98C1145.61 1393.18 1145.61 1392.72 1141.57 1389.6C1135.98 1385.57 1135.08 1385.57 1132.17 1390.26Z" fill="black"/>
<path d="M751.16 1445.32C744.889 1448.01 744.889 1449.57 750.043 1454.27C754.523 1458.3 763.927 1457.18 763.927 1452.48C763.927 1451.14 762.139 1448.23 760.117 1446.44C756.985 1443.75 754.97 1443.53 751.16 1445.32Z" fill="black"/>
<path d="M1194.01 1456.96C1192.44 1458.97 1189.3 1459.87 1186.39 1458.97C1179.9 1457.41 1173.4 1464.13 1178.55 1467.26C1182.81 1469.94 1189.52 1469.72 1189.52 1466.81C1189.52 1465.24 1191.99 1465.02 1196.03 1465.91C1201.17 1467.03 1203.19 1466.36 1204.98 1462.78C1206.33 1460.32 1206.77 1457.86 1205.88 1457.41C1200.06 1454.28 1196.25 1454.28 1194.01 1456.96Z" fill="black"/>
<path d="M1219.62 103.844C1207.83 105.855 1196.04 109.873 1193.75 112.456C1189.43 116.764 1190.3 117.054 1206.39 115.043C1225.65 112.746 1242.32 107 1242.32 102.406C1242.32 100.685 1242.04 99.2504 1241.75 99.5366C1241.17 99.8227 1231.39 101.547 1219.62 103.844Z" fill="black"/>
<path d="M1227.36 127.966C1221.04 138.878 1213.57 139.451 1213.57 128.542L1213.28 120.789L1207.53 128.542C1204.37 133.136 1198.91 136.581 1195.74 136.581C1190.86 136.581 1190.28 135.147 1191.72 128.542L1193.45 120.789L1187.7 127.68C1177.06 140.313 1186.26 156.682 1199.48 148.642C1203.79 145.769 1206.38 145.769 1209.26 148.066C1215.58 153.236 1223.92 148.928 1229.38 137.73C1235.7 124.521 1233.97 116.481 1227.36 127.966Z" fill="black"/>
<path d="M823.23 162.436C818.342 177.08 817.484 183.684 819.499 192.586C820.933 198.905 824.955 223.885 828.694 247.72C832.144 271.842 836.165 291.652 837.031 291.652C840.191 291.652 842.778 272.7 842.778 249.441C842.778 228.769 835.875 167.316 831.567 152.096C829.553 144.343 828.98 144.919 823.23 162.436Z" fill="black"/>
<path d="M770.923 163.873C768.05 175.933 768.05 180.241 770.633 183.687C775.231 189.143 785.583 232.216 786.151 249.733C786.728 263.515 786.728 263.515 776.956 264.663C771.5 265.239 762.006 267.246 755.684 268.971C749.651 270.696 743.905 271.268 743.329 270.696C742.467 270.119 743.329 266.098 745.054 261.79C746.488 257.486 747.927 249.157 747.927 243.415C747.927 232.216 738.727 214.123 733.267 214.123C723.782 214.123 696.473 255.189 693.314 274.427C691.875 283.329 690.441 284.763 678.078 288.209C670.317 290.506 663.422 291.658 662.846 290.796C662.27 290.22 656.234 265.812 649.625 236.81C643.013 207.808 636.976 182.824 635.828 181.676C634.676 180.527 631.516 186.56 628.929 194.885L624.041 210.678L635.538 253.179C641.864 276.438 646.462 296.252 645.886 297.11C645.023 297.687 636.114 300.56 625.766 303.143C606.219 308.023 604.208 307.45 604.208 295.103C604.208 292.516 602.773 285.053 600.759 278.735L597.599 267.246L593.86 281.318C591.563 290.506 591.273 297.687 592.998 302.28C594.436 306.016 595.585 310.32 595.585 311.182C595.585 314.055 579.2 320.084 577.19 318.073C576.327 317.214 575.465 308.599 575.179 299.121C574.889 281.894 574.889 281.894 571.153 290.22C568.852 294.813 567.132 304.863 566.842 312.33V325.54L549.595 331.282L532.638 337.024L531.776 316.638C530.914 296.824 530.624 296.252 527.178 304.577C524.877 309.171 523.153 319.221 523.153 326.688C523.153 341.332 521.428 343.629 507.917 348.513C503.319 349.948 496.997 352.245 494.41 353.393C490.098 355.118 489.236 353.969 489.236 346.788C489.236 328.699 459.627 313.193 447.558 324.967C440.369 332.431 421.974 360.86 414.789 375.794C411.054 383.257 407.315 388.999 406.742 388.141C405.88 387.279 404.728 381.246 404.155 374.932C403.579 368.327 400.13 356.552 396.681 348.799C392.083 337.887 391.507 333.579 394.094 330.996C395.818 329.271 397.257 322.381 397.257 315.776C397.257 304.291 396.681 303.715 387.481 301.994C382.021 300.846 376.271 298.259 374.26 295.962C368.51 289.071 366.499 290.796 364.202 304.863C362.764 314.627 363.336 319.221 366.499 322.671C376.847 334.441 401.854 395.032 399.268 401.923C398.405 404.219 390.644 409.962 381.735 414.846C361.325 426.617 357.303 424.61 350.977 400.198L346.379 382.109L343.506 395.894C341.205 406.516 341.205 412.835 344.368 422.885C348.966 437.529 350.115 435.518 325.97 452.749C319.361 457.629 311.6 461.078 309.013 460.502C306.426 459.93 302.691 453.897 300.39 445.282C298.089 437.243 295.216 429.776 293.777 428.341C290.042 424.32 287.169 455.908 290.618 464.81C292.343 469.404 293.777 473.998 293.777 475.432C293.777 480.602 258.998 507.021 252.099 507.021C245.491 507.021 242.614 502.141 232.842 472.563C231.98 470.266 230.255 474.284 229.106 481.751C227.668 491.515 228.244 499.268 231.693 509.032L236.291 522.527L221.345 537.747C201.798 557.561 197.776 558.71 186.276 547.511C177.943 539.468 176.504 538.896 171.62 542.627C166.733 546.073 165.584 551.529 164.146 583.69C161.845 636.241 159.834 638.824 139.424 617.289C124.478 600.921 123.616 603.79 137.413 626.477C150.634 648.302 158.109 656.341 166.156 656.341C174.78 656.341 175.928 652.033 175.928 615.278C175.928 581.969 177.657 570.194 182.255 570.194C183.689 570.194 188.577 573.067 193.175 576.227C203.813 584.266 211.574 582.255 228.53 567.035C240.603 556.699 242.041 554.112 242.041 543.49C242.041 534.302 242.904 532.577 245.491 535.16C250.951 540.616 259.288 539.182 270.498 530.853C291.19 515.922 299.527 506.159 299.527 497.833C299.527 489.218 302.114 487.783 307.574 493.239C312.176 497.833 320.509 493.525 338.904 476.871C350.977 466.244 354.14 461.651 354.14 454.76C354.14 446.144 354.426 446.144 359.314 450.452C362.187 453.325 365.637 455.332 366.499 455.332C367.651 455.332 383.746 446.144 402.431 434.946C420.826 423.747 455.605 405.082 479.46 393.307C503.605 381.536 524.015 370.048 524.877 367.465C526.312 364.019 527.751 363.733 530.338 366.03C534.363 369.189 561.091 360.86 569.719 353.393C572.016 351.382 576.327 349.948 578.914 349.948C585.813 349.948 607.085 340.184 607.085 337.024C607.085 335.59 608.52 335.304 609.958 336.166C611.683 337.314 620.016 335.876 628.929 333.293C641.288 329.847 645.313 326.974 647.61 320.946C650.774 313.479 650.774 313.479 653.647 319.221L656.524 325.254L694.18 316.066C715.154 310.896 747.064 303.143 765.459 299.121L799.086 291.368L800.811 276.148C802.25 266.674 801.101 250.882 798.228 233.365L793.34 205.798L800.243 190.577L807.424 175.361L794.489 167.318C787.594 163.01 781.271 156.982 780.405 153.823C777.822 144.059 774.941 147.218 770.923 163.873ZM732.977 256.048C739.876 270.696 722.343 283.615 710.557 272.993C703.376 266.388 703.376 263.515 711.133 255.189C719.47 246.288 728.955 246.574 732.977 256.048ZM463.366 353.393C474 358.849 474 361.436 464.228 368.613C451.58 377.229 417.376 395.604 417.376 393.883C417.376 386.702 446.982 349.085 452.442 349.085C453.88 349.085 458.768 351.096 463.366 353.393Z" fill="black"/>
<path d="M700.219 178.213C695.045 187.977 695.045 187.977 702.226 193.719L709.124 199.466L715.451 191.712C723.788 181.949 723.788 181.086 713.726 174.195L705.675 168.453L700.219 178.213Z" fill="black"/>
<path d="M1282.84 175.079L1276.23 182.256L1282.55 191.158C1288.58 199.773 1289.16 199.773 1294.34 195.179C1299.51 190.295 1300.37 190.586 1308.42 198.339L1317.04 206.664L1332.57 191.158L1324.23 182.542C1316.76 174.789 1315.6 174.503 1311.29 178.239C1304.97 183.981 1303.53 183.695 1296.06 175.079L1289.74 167.898L1282.84 175.079Z" fill="black"/>
<path d="M1364.76 195.736C1358.73 205.5 1357.29 209.518 1359.88 212.105C1363.62 215.836 1364.19 290.494 1360.45 292.795C1356.14 295.664 1329.12 288.774 1322.22 283.317C1316.48 278.437 1316.19 276.999 1319.06 257.185L1321.93 236.222L1314.17 244.838C1309.29 250.294 1305.56 258.623 1304.4 266.949C1303.25 274.13 1301.53 280.158 1300.38 280.158C1299.23 280.158 1288.01 276.999 1275.37 273.267C1251.51 266.377 1251.51 266.377 1254.38 250.58C1254.96 246.563 1251.8 243.689 1240.88 239.382C1233.12 236.512 1218.17 227.321 1207.82 219.572C1197.48 211.819 1186.27 204.638 1182.53 203.489C1173.61 201.478 1162.98 208.945 1156.08 222.727L1150.34 234.216L1157.24 231.056C1163.27 228.183 1166.72 229.045 1180.23 237.085C1189.14 241.969 1196.33 247.135 1196.33 248.573C1196.33 250.008 1192.01 252.305 1186.84 254.03C1175.05 258.047 1128.78 250.87 1121.31 243.976C1118.43 241.392 1113.55 233.067 1110.39 225.314C1106.93 217.561 1103.48 211.242 1102.62 211.242C1101.76 211.242 1098.89 216.699 1096.3 223.017C1091.13 234.788 1091.41 235.074 1098.02 248.859L1104.92 262.641L1098.6 275.564C1090.55 292.505 1066.12 314.616 1055.77 314.616C1051.46 314.616 1045.14 312.605 1041.68 310.022C1035.07 305.428 1030.48 306.001 1033.64 311.171C1037.37 317.489 1066.98 334.716 1073.59 334.716C1077.33 334.716 1083.65 332.133 1087.68 329.264C1094.57 323.808 1112.97 289.636 1112.97 282.169C1112.97 276.427 1116.42 274.13 1120.16 277.289C1121.88 278.723 1133.67 281.597 1145.74 283.317C1167.87 286.19 1168.16 286.19 1185.4 277.289C1201.5 268.96 1204.37 268.387 1217.59 270.394C1231.97 272.981 1232.25 273.267 1233.69 284.18L1235.13 295.378L1262.43 301.983L1289.74 308.588L1294.91 302.555C1297.79 299.4 1300.38 297.099 1300.67 297.675C1301.24 298.247 1303.54 302.269 1306.12 306.291C1309.86 312.319 1315.61 314.906 1335.44 320.072C1348.96 323.231 1361.31 326.105 1362.75 326.105C1367.63 326.105 1374.25 297.961 1376.55 269.246C1378.27 243.403 1378.85 241.106 1387.76 231.342L1397.24 221.006L1387.47 206.935C1382.01 199.181 1377.41 190.566 1377.41 187.697C1377.41 179.368 1373.67 181.664 1364.76 195.736Z" fill="black"/>
<path d="M1016.68 196.874C1011.79 208.072 1011.79 208.644 1017.83 223.002C1027.32 245.975 1027.61 245.689 997.711 245.689C983.342 245.689 969.258 244.255 966.095 242.816C963.218 241.095 957.182 233.052 952.874 224.727L945.403 209.793L939.649 222.43L934.185 235.353L941.664 250.859L949.421 266.362L943.389 278.713C936.776 292.494 908.895 320.347 901.711 320.347C899.12 320.347 893.373 318.337 888.776 316.04C883.892 313.457 880.152 312.884 880.152 314.605C880.152 318.051 898.261 330.111 912.921 336.14L923.841 340.738L934.761 329.249C945.113 318.337 957.758 291.632 957.758 280.72C957.758 276.416 962.07 275.84 994.262 274.977C1014.39 274.405 1031.34 273.543 1031.92 272.966C1032.49 272.394 1034.21 262.058 1035.66 249.711C1038.24 230.469 1037.66 225.013 1032.49 208.072C1029.34 197.446 1025.6 187.972 1024.16 187.11C1023.01 186.247 1019.56 190.555 1016.68 196.874Z" fill="black"/>
<path d="M1418.23 215.243C1409.6 227.304 1408.74 230.463 1404.72 270.663C1402.41 293.922 1399.83 320.055 1398.97 328.38C1395.52 362.838 1412.76 327.808 1419.09 287.604C1423.97 255.443 1429.72 204.907 1428.28 203.754C1427.71 203.182 1423.11 208.352 1418.23 215.243Z" fill="black"/>
<path d="M1496.69 245.667C1491.81 250.833 1491.81 251.695 1496.41 258.586C1500.14 264.042 1502.73 265.477 1507.9 264.042C1513.36 262.894 1515.95 264.042 1519.68 269.785C1525.44 278.686 1526.3 278.686 1534.92 272.082L1541.54 266.915L1535.21 258.876C1530.61 252.844 1527.44 251.409 1522.27 252.558C1517.1 253.992 1514.51 252.558 1510.78 247.101C1505.02 238.486 1503.3 238.2 1496.69 245.667Z" fill="black"/>
<path d="M1584.07 297.367L1577.17 302.824L1605.91 303.396C1640.98 304.258 1647.88 303.686 1652.47 299.664C1660.53 293.06 1655.07 291.625 1623.45 291.625C1595.28 291.625 1589.81 292.487 1584.07 297.367Z" fill="black"/>
<path d="M979.019 315.199C974.421 324.101 974.421 324.387 982.178 330.705L990.229 337.024L995.403 330.992L1000.29 324.677L1007.48 331.282L1014.66 337.886L1027.31 320.083L1020.69 312.902C1012.94 304.577 1007.48 304.001 1005.17 311.754C1004.32 314.913 1002.3 317.496 1001.15 317.496C1000 317.496 996.551 314.913 993.678 311.754C986.776 304.001 984.483 304.577 979.019 315.199Z" fill="black"/>
<path d="M1461.06 319.188C1450.42 357.953 1450.71 383.51 1461.63 390.404C1465.94 392.987 1469.97 390.114 1486.06 372.597C1508.77 348.48 1518.26 345.32 1518.26 361.975C1518.26 380.064 1524.87 390.977 1540.96 399.016L1555.33 406.483L1560.8 400.454L1566.54 394.708L1572.01 402.751C1575.17 407.055 1582.64 419.406 1588.67 430.028C1595 440.941 1600.75 449.556 1601.9 449.556C1603.05 449.556 1605.06 446.973 1605.92 443.814C1606.79 440.655 1608.8 438.072 1609.95 438.072C1617.71 438.072 1695.31 491.767 1742.45 529.671C1763.15 546.325 1771.2 550.347 1771.2 544.314C1771.2 542.594 1773.21 541.445 1775.8 541.445C1778.96 541.445 1779.82 542.88 1778.68 546.039C1776.37 552.068 1785 565.567 1801.09 581.359C1814.89 594.855 1814.32 594.855 1831.56 585.381C1832.42 584.805 1838.17 594.855 1844.5 607.488C1850.53 620.125 1856.85 630.461 1858 630.461C1863.18 630.461 1877.55 621.56 1880.14 616.68C1881.58 613.806 1885.02 603.184 1887.61 593.134C1890.2 582.794 1892.79 572.172 1893.64 569.585C1895.66 562.98 1879.27 552.93 1867.21 552.93C1861.45 552.93 1852.26 556.665 1843.35 562.694L1828.69 572.458L1812.88 555.227C1804.26 545.463 1797.07 535.989 1797.07 533.692C1797.07 531.681 1800.52 523.356 1804.55 515.313C1808.85 507.56 1811.44 500.383 1810.58 499.234C1807.42 496.075 1789.02 510.147 1787.29 517.037C1786.15 521.059 1784.13 524.214 1782.41 524.214C1778.96 524.214 1742.45 495.213 1742.45 492.63C1742.45 491.481 1745.05 488.322 1748.21 485.449C1760.28 474.536 1751.08 435.485 1735.27 429.456C1726.36 426.011 1702.5 426.011 1685.83 429.17C1678.94 430.605 1673.47 430.891 1673.47 429.742C1673.47 428.88 1676.64 421.703 1680.65 413.66C1684.68 405.907 1688.7 394.708 1689.86 388.68C1690.71 382.651 1693.02 377.767 1695.03 377.767C1696.75 377.767 1701.36 374.608 1704.8 370.877L1711.41 363.986L1704.52 343.309L1697.62 322.923L1689.86 330.676C1685.54 334.98 1682.1 341.585 1682.1 345.32C1682.1 351.349 1669.73 413.95 1666 425.721C1664.28 431.467 1653.92 430.028 1640.41 421.989C1625.47 413.374 1623.75 409.356 1624.9 384.086C1626.04 358.816 1624.61 356.805 1606.79 358.24C1595.29 359.388 1590.69 361.689 1581.49 370.59C1568.85 382.937 1567.98 382.937 1544.41 367.717C1533.2 360.826 1532.63 359.678 1532.63 346.469C1532.63 316.891 1525.16 316.028 1497.85 341.875C1486.93 352.211 1476.29 360.54 1474 360.54C1465.66 360.54 1462.79 352.211 1464.22 330.386C1465.08 318.615 1465.37 308.852 1464.79 308.852C1464.22 308.852 1462.5 313.445 1461.06 319.188ZM1609.66 382.937C1613.69 388.394 1614.26 400.454 1610.24 406.483C1607.07 411.363 1607.36 411.653 1597.59 394.422C1593.28 386.955 1590.4 379.492 1591.55 377.767C1593.85 373.746 1604.77 376.905 1609.66 382.937ZM1715.15 445.535C1725.21 450.129 1727.23 453.288 1730.96 468.794C1734.12 482.289 1730.1 481.141 1701.36 461.617C1678.07 446.111 1677.21 445.249 1684.39 443.528C1697.9 440.369 1705.37 440.941 1715.15 445.535ZM1865.48 571.882C1872.09 576.479 1873.53 585.667 1868.93 593.134C1866.92 596.289 1864.9 593.992 1860.59 583.37C1857.14 575.903 1854.56 569.012 1854.56 568.436C1854.56 566.139 1859.15 567.288 1865.48 571.882Z" fill="black"/>
<path d="M1726.65 376.065C1722.05 379.224 1721.76 381.521 1724.06 389.56C1726.94 399.614 1734.41 403.346 1742.17 398.176C1745.62 395.879 1745.9 393.582 1742.74 383.818C1739.01 371.471 1735.56 369.46 1726.65 376.065Z" fill="black"/>
<path d="M255.258 385.81C254.681 386.958 252.671 392.705 250.66 399.019C246.634 411.656 249.221 415.102 262.442 415.102C268.479 415.102 270.493 413.377 271.928 407.062C273.08 402.755 274.515 397.299 275.377 394.712C276.24 391.552 273.653 389.255 266.468 387.248C261.008 385.524 255.834 384.948 255.258 385.81Z" fill="black"/>
<path d="M1805.11 434.362C1799.07 435.797 1798.21 445.847 1803.38 456.76C1806.83 464.227 1808.84 465.089 1819.48 462.216C1826.67 460.205 1826.95 458.194 1822.64 442.978C1819.76 432.352 1817.18 431.203 1805.11 434.362Z" fill="black"/>
<path d="M366.78 493.771C364.769 501.234 362.755 502.673 355.57 502.673C347.809 502.673 346.947 503.535 346.084 513.009C345.222 521.911 346.37 523.635 351.834 525.356C361.892 527.943 362.182 527.653 363.331 519.041C364.193 512.147 365.342 511.288 374.251 511.288C383.164 511.288 384.313 510.426 386.037 501.234C388.624 489.177 388.048 487.739 377.7 486.304C370.516 485.156 369.077 486.304 366.78 493.771Z" fill="black"/>
<path d="M132.235 495.807C129.362 497.242 127.061 501.835 127.061 505.285C127.061 512.176 122.177 515.621 112.402 515.621C107.804 515.621 106.941 517.632 106.941 527.106C106.941 537.156 107.804 538.594 113.554 538.594C121.887 538.594 127.061 533.424 127.061 525.095C127.061 519.929 128.786 518.494 134.246 518.494C142.007 518.494 147.181 511.313 147.181 500.115C147.181 492.075 141.435 490.351 132.235 495.807Z" fill="black"/>
<path d="M259.284 578.795C259.284 586.834 258.421 587.407 249.226 587.407C239.45 587.407 239.164 587.697 239.164 598.895C239.164 609.518 239.74 610.38 247.501 610.38C254.11 610.38 256.411 608.659 258.708 602.055C261.008 595.736 263.882 593.439 269.918 592.577C276.816 591.714 277.969 590.28 278.831 580.802C279.694 570.466 279.694 570.18 269.632 570.18C260.146 570.18 259.284 570.752 259.284 578.795Z" fill="black"/>
</svg>
