<svg width="102" height="102" viewBox="0 0 102 102" fill="none" xmlns="http://www.w3.org/2000/svg">
<g filter="url(#filter0_di_33_29)">
<path d="M52.4617 1.50391C58.4992 1.58694 64.4621 2.87096 70.0017 5.2832L70.5359 5.52051C76.0404 8.00207 80.9981 11.5551 85.1179 15.9746L85.5134 16.4043C89.5732 20.8729 92.7043 26.1065 94.7224 31.8008L94.8884 32.293C96.529 37.3976 95.6578 43.1348 92.5525 47.5156L92.5486 47.5215C91.0448 49.6193 89.0944 51.3553 86.8406 52.6045L86.3855 52.8477C83.939 54.1103 81.2275 54.7749 78.4744 54.7861H66.7087C64.9305 54.7799 63.2057 55.3713 61.8083 56.46L61.5329 56.6836C60.0903 57.9152 59.1374 59.6237 58.8464 61.498C58.5555 63.3724 58.9456 65.2894 59.947 66.9004L60.1413 67.1973C61.0761 68.5609 62.4141 69.5983 63.9675 70.1641L64.3044 70.2783L64.3415 70.29L64.3786 70.3037C68.3531 71.7853 71.1737 75.39 71.4578 79.665C71.6971 81.9367 71.189 84.2202 70.0154 86.1709L69.7712 86.5576C68.4182 88.5992 66.3931 90.1035 64.0476 90.8086L64.0369 90.8115L64.0251 90.8145C60.0521 91.9436 55.9406 92.5103 51.8103 92.499V92.5L51.8083 92.499L51.8064 92.5V92.499C43.4704 92.4933 35.2957 90.1983 28.1755 85.8633L28.1697 85.8594C21.2996 81.6278 15.6708 75.6617 11.8464 68.5674L11.4822 67.8779C7.65515 60.4803 5.9142 52.1801 6.44603 43.8682V43.8604L6.44701 43.8525C7.06438 35.5475 9.93105 27.5674 14.739 20.7676L15.1951 20.1338C19.9586 13.6342 26.3533 8.49993 33.739 5.25391L33.7468 5.25L34.2839 5.02148C39.8547 2.69222 45.8356 1.49449 51.8777 1.5L52.4617 1.50391ZM35.2859 57.9287C34.0168 57.9287 32.7996 58.4328 31.9021 59.3301C31.0047 60.2275 30.4998 61.4448 30.4997 62.7139C30.4997 63.9831 31.0046 65.2011 31.9021 66.0986L32.074 66.2617C32.9518 67.0566 34.096 67.5 35.2859 67.5C36.555 67.5 37.7722 66.996 38.6697 66.0986L38.8337 65.9268C39.6287 65.0489 40.071 63.9038 40.071 62.7139C40.0709 61.5241 39.6285 60.3797 38.8337 59.502L38.6697 59.3301C37.7722 58.4327 36.555 57.9288 35.2859 57.9287ZM35.2859 29.6426C33.3145 29.6426 31.419 30.3774 29.9646 31.6943L29.6794 31.9648C28.1926 33.4517 27.3572 35.4685 27.3572 37.5713C27.3572 39.6741 28.1925 41.6908 29.6794 43.1777C31.1663 44.6646 33.1831 45.5 35.2859 45.5C36.327 45.5 37.3582 45.2949 38.3201 44.8965C39.2819 44.498 40.1561 43.9139 40.8923 43.1777L41.1609 42.8955C41.7714 42.2218 42.2624 41.4472 42.6111 40.6055L42.7507 40.2412C43.0568 39.3853 43.2146 38.4822 43.2146 37.5713C43.2146 36.6603 43.0569 35.7573 42.7507 34.9014L42.6111 34.5371C42.2624 33.6953 41.7714 32.9208 41.1609 32.2471L40.8923 31.9648C40.2481 31.3207 39.4983 30.7931 38.6765 30.4043L38.3201 30.2461C37.3582 29.8477 36.327 29.6426 35.2859 29.6426ZM63.571 20.2139C61.4686 20.214 59.4523 21.0496 57.9656 22.5361C56.4787 24.023 55.6434 26.0399 55.6433 28.1426C55.6433 30.2454 56.4787 32.2621 57.9656 33.749L58.2497 34.0205C59.7041 35.3374 61.5998 36.0712 63.571 36.0713C65.6738 36.0713 67.6906 35.2359 69.1775 33.749L69.449 33.4639C70.7657 32.0095 71.4997 30.1138 71.4997 28.1426C71.4997 26.0399 70.6643 24.023 69.1775 22.5361C67.6906 21.0494 65.6737 20.2139 63.571 20.2139Z" fill="white" stroke="black" stroke-width="3"/>
</g>
<defs>
<filter id="filter0_di_33_29" x="0.852282" y="0" width="100.35" height="102" filterUnits="userSpaceOnUse" color-interpolation-filters="sRGB">
<feFlood flood-opacity="0" result="BackgroundImageFix"/>
<feColorMatrix in="SourceAlpha" type="matrix" values="0 0 0 0 0 0 0 0 0 0 0 0 0 0 0 0 0 0 127 0" result="hardAlpha"/>
<feOffset dy="4"/>
<feGaussianBlur stdDeviation="2"/>
<feComposite in2="hardAlpha" operator="out"/>
<feColorMatrix type="matrix" values="0 0 0 0 0 0 0 0 0 0 0 0 0 0 0 0 0 0 0.25 0"/>
<feBlend mode="normal" in2="BackgroundImageFix" result="effect1_dropShadow_33_29"/>
<feBlend mode="normal" in="SourceGraphic" in2="effect1_dropShadow_33_29" result="shape"/>
<feColorMatrix in="SourceAlpha" type="matrix" values="0 0 0 0 0 0 0 0 0 0 0 0 0 0 0 0 0 0 127 0" result="hardAlpha"/>
<feOffset dy="4"/>
<feGaussianBlur stdDeviation="2"/>
<feComposite in2="hardAlpha" operator="arithmetic" k2="-1" k3="1"/>
<feColorMatrix type="matrix" values="0 0 0 0 0 0 0 0 0 0 0 0 0 0 0 0 0 0 0.25 0"/>
<feBlend mode="normal" in2="shape" result="effect2_innerShadow_33_29"/>
</filter>
</defs>
</svg>
