<?xml version="1.0" encoding="utf-8"?>
<!-- Generator: Adobe Illustrator 24.0.1, SVG Export Plug-In . SVG Version: 6.00 Build 0)  -->
<svg version="1.1" id="Layer_17" xmlns="http://www.w3.org/2000/svg" xmlns:xlink="http://www.w3.org/1999/xlink" x="0px" y="0px"
	 viewBox="0 0 1052.8 1060" style="enable-background:new 0 0 1052.8 1060;" xml:space="preserve">
<style type="text/css">
	.st0{fill:#FFFFFF;stroke:#010101;stroke-width:28.64;stroke-miterlimit:10;}
	.st1{enable-background:new    ;}
	.st2{fill:#010101;}
</style>
<title>alkhaleelmap</title>
<path class="st0" d="M260,776.3c-24.4-164.1-197.5-41-166.7-226C170,224.4-94.2,317.6,68.1,154.9c9.1-12.2,23.2-43.7-2.3-63.6
	c4.1-35.5,39.8,41.4,106.5-47C287.7-70,138.1,186.6,400.9,84.1c60-11.3,48.4,76,92.8,99.3c120.9,9.5,95.8,24.2,146.6,120
	c40.7,43.9,59.1-5,103.2,4.3c8.7,60.1,84.3,70.3,148.7,87.9c89.1,52.4-13.8,113.8,28.3,166.8c108.4,45.6,174.9,521.1,51.4,480.8
	c-514.9-29.1-368.2-66.3-430.5-138.1c-34.2-33.1-63.5,34.7-113.9,36.6C348.2,918.6,265.4,871.7,260,776.3z"/>
<g class="st1">
	<path class="st2" d="M415.7,580.7h-14.5c-3,0-5.4-0.7-7.1-2c-0.8,8.9-3.8,16-8.8,21.2c-5,5.2-11.3,7.8-18.9,7.8
		c-11.7,0-21.1-3.5-28.2-10.6c-7.1-7.1-10.7-16.7-10.7-28.8c0-8.6,2.4-13,7.1-13c2.3,0,5.7,1.3,10.1,3.9c-1.6,2.8-2.4,5.9-2.4,9.1
		c0,6.6,2.1,11.7,6.3,15.2c4.2,3.6,9.3,4.9,15.3,4c4.4-0.7,7.6-2.6,9.5-5.8c1.9-3.2,2.9-8.2,2.9-15.1l-0.4-37.8
		c0-6.7-0.1-13.1-0.2-19.2c-0.1-6.1-0.1-10.4-0.1-13.1c0-2.6,0-4.1,0-4.3c0-2.6,0.8-4.7,2.3-6.2c1.5-1.5,3.7-2.3,6.4-2.3
		c4.6,0,8.5,1.3,11.8,3.9c-1.4,2.3-2.1,6.8-2.1,13.5l0.2,64.2h21.5V580.7z"/>
	<path class="st2" d="M473.5,580.7h-19.9c-4.2,0-7.1-1.3-9-4c-2.5,2.7-6,4-10.6,4h-21.1v-15.1h11.6c2.1,0,3.6-0.7,4.4-2
		c0.8-1.3,1.3-3.6,1.3-6.7c0-1-0.1-5.9-0.4-14.5c-0.2-6.9-0.3-11.3-0.3-13.2c0-2.6,0.8-4.7,2.3-6.2c1.5-1.5,3.6-2.3,6.3-2.3
		c4.6,0,8.5,1.3,11.8,3.9c-1.4,2.3-2.1,6.8-2.1,13.5l0.2,19.3c0.1,2.4,0.7,4.3,1.8,5.8c1.1,1.5,2.4,2.3,3.7,2.3h19.9V580.7z
		 M430.1,588.1c2.2,0,4.1,0.7,5.6,2.1c1.5,1.4,2.2,3.1,2.2,5.2c0,2.5-0.9,4.6-2.6,6.3c-1.8,1.7-4,2.5-6.6,2.5c-2.2,0-4-0.7-5.4-2.1
		c-1.4-1.4-2.1-3.2-2.1-5.4c0-2.4,0.9-4.5,2.6-6.2C425.4,588.9,427.5,588.1,430.1,588.1z M451.1,588.1c2.3,0,4.2,0.7,5.7,2.1
		c1.4,1.4,2.2,3.1,2.2,5.2c0,2.5-0.9,4.6-2.6,6.3c-1.8,1.7-3.9,2.5-6.5,2.5c-2.2,0-4.1-0.7-5.5-2.1c-1.4-1.4-2.1-3.2-2.1-5.4
		c0-2.4,0.9-4.5,2.6-6.2C446.5,588.9,448.6,588.1,451.1,588.1z"/>
	<path class="st2" d="M519.7,580.7H511c-3.9,0-6.8-1.4-8.6-4.1c-2.4,2.7-6,4.1-10.6,4.1h-21.2v-15.1h11.6c2.1,0,3.6-0.7,4.4-2
		c0.8-1.3,1.3-3.5,1.3-6.6c0-4.2-0.1-15.2-0.3-33l-0.4-31.7c0-2.6,0.8-4.7,2.3-6.2c1.5-1.5,3.7-2.3,6.4-2.3c4.6,0,8.6,1.3,11.8,3.9
		c-1.5,2.3-2.2,6.9-2.2,13.6c0,4.3,0.1,23.1,0.3,56.5c0.1,2.3,0.8,4.2,1.9,5.6c1.1,1.4,2.4,2.2,3.7,2.2h8.1V580.7z"/>
	<path class="st2" d="M621.7,580.7h-13.9c-5.5-0.1-9-2.1-10.5-6c-1.6,2.5-3.5,4.1-5.9,4.9c-2.3,0.7-6.4,1.1-12.1,1.1h-62.4v-15.1
		h52.3c-4.4-1.5-11.4-5.3-20.8-11.3c-10.6-6.6-16.8-11.6-18.6-14.9c-1.3-2.4-1.5-4.9-0.6-7.5c1-2.8,2.8-5.3,5.5-7.4
		c2.7-2.1,5.6-3.2,8.7-3.3c0,2.8,2.2,6.6,6.7,11.2c4.5,4.6,10.2,9.2,17.1,13.9c7,4.6,13.5,8.1,19.5,10.5c6,2.4,10.4,3,13.1,1.9
		c0.2,2.1,0.2,4.4,0.1,7h21.9V580.7z M577.8,529c-2.2,0-4.1-0.7-5.5-2.1c-1.4-1.4-2.1-3.2-2.1-5.4c0-2.4,0.9-4.5,2.6-6.2
		c1.7-1.7,3.9-2.5,6.4-2.5c2.2,0,4.1,0.7,5.6,2.1c1.5,1.4,2.2,3.1,2.2,5.2c0,2.5-0.9,4.6-2.6,6.3C582.6,528.1,580.4,529,577.8,529z"
		/>
	<path class="st2" d="M618.9,565.5h11.6c2.1,0,3.6-0.7,4.4-2c0.8-1.3,1.3-3.5,1.3-6.6l-0.4-33c-0.2-17.8-0.3-28.3-0.3-31.7
		c0-2.6,0.8-4.6,2.3-6.2s3.6-2.3,6.3-2.3c4.6,0,8.6,1.3,11.8,3.9c-1.4,2.3-2.1,6.9-2.1,13.6c0,8.3,0,19.1,0.1,32.5l0.1,31.4
		c0,10.4-4.7,15.6-14.2,15.6h-21.1V565.5z"/>
	<path class="st2" d="M684.5,501.1c0,2.9,0.2,14.8,0.5,35.7l0.4,35.2c0,2.6-0.8,4.7-2.3,6.2c-1.5,1.5-3.6,2.3-6.3,2.3
		c-4.6,0-8.5-1.3-11.8-3.9c1.4-2.3,2.1-6.8,2.1-13.6l-0.4-35.7c-0.3-20.9-0.5-32.6-0.5-35.2c0-2.6,0.8-4.7,2.3-6.2s3.7-2.3,6.4-2.3
		c4.6,0,8.5,1.3,11.8,3.9C685.2,489.8,684.5,494.4,684.5,501.1z"/>
</g>
</svg>
