<?xml version="1.0" encoding="utf-8"?>
<!-- Generator: Adobe Illustrator 24.0.1, SVG Export Plug-In . SVG Version: 6.00 Build 0)  -->
<svg version="1.1" id="Layer_12" xmlns="http://www.w3.org/2000/svg" xmlns:xlink="http://www.w3.org/1999/xlink" x="0px" y="0px"
	 viewBox="0 0 1016.3 1066.3" style="enable-background:new 0 0 1016.3 1066.3;" xml:space="preserve">
<style type="text/css">
	.st0{fill:#FFFFFF;stroke:#010101;stroke-width:31.92;stroke-miterlimit:10;}
	.st1{enable-background:new    ;}
	.st2{fill:#010101;}
</style>
<title>alramlahmap</title>
<path class="st0" d="M253,121c22.6-24,87.5-55.6,122.9-29.9c252.6,334,105.3-151,360.1-64.6c135.6,64.9,70,156.2,132.7,218.3
	c303.5,910.5,13.9,353.8-186.1,703.7c-274.2,301.5-231-163.7-298.1-150c-58.7-24.3-162,12.5-193.4-60.7
	C133.2,575.2-16.6,508.4,22.3,424.8C229.7-118.8,144.6,213.7,253,121z"/>
<g class="st1">
	<path class="st2" d="M415,548.6h-8.6c-4.9-0.1-8.2-1.8-10-5c-3.5,3.4-8.3,5-14.3,5h-7c-9.2,0-16.3-2.7-21.6-8.1
		c-5.2-5.4-7.7-11.9-7.4-19.6c0.1-5,1.3-9.9,3.3-14.6c2.1-4.7,4.9-8.5,8.6-11.4c3.5-3,8.1-5.3,13.9-6.9c5.7-1.7,11.8-2.4,18.2-2.2
		c4.8,0,8.9,1.3,12.4,3.9c-1.5,2.3-2.2,6.8-2.2,13.5l0.1,19.7c0,0.1,0.1,0.4,0.1,0.7c0,2.7,0.6,4.9,1.8,6.6c1.2,1.7,2.6,2.6,4,2.6
		h8.6V548.6z M371.1,476.1c-2.3,0-4.2-0.7-5.7-2.2c-1.5-1.4-2.2-3.3-2.2-5.6c0-2.6,0.9-4.8,2.7-6.5c1.8-1.8,4-2.6,6.7-2.6
		c2.3,0,4.3,0.7,5.8,2.2c1.6,1.5,2.3,3.3,2.3,5.4c0,2.6-0.9,4.8-2.7,6.6C376.2,475.2,373.9,476.1,371.1,476.1z M376,532.8
		c2,0,3.5-0.6,4.5-1.9s1.4-2.8,1.4-4.7l-0.7-26.8c-4.5,1.1-8.6,3.8-12.2,8.3c-3.7,4.5-5.5,8.8-5.5,13
		C363.5,528.8,367.6,532.8,376,532.8z M393.3,476.1c-2.4,0-4.3-0.7-5.8-2.2c-1.5-1.4-2.2-3.3-2.2-5.6c0-2.6,0.9-4.8,2.7-6.5
		c1.8-1.8,4-2.6,6.7-2.6c2.3,0,4.3,0.7,5.8,2.2c1.6,1.5,2.3,3.3,2.3,5.4c0,2.6-0.9,4.8-2.7,6.6C398.3,475.2,396,476.1,393.3,476.1z"
		/>
	<path class="st2" d="M463.2,548.6h-9c-4.1,0-7.1-1.4-9-4.2c-2.5,2.8-6.2,4.2-11,4.2h-22.1v-15.8h12.1c2.2,0,3.7-0.7,4.6-2.1
		s1.3-3.7,1.3-6.9c0-4.4-0.1-15.9-0.3-34.4l-0.4-33c0-2.7,0.8-4.9,2.4-6.5c1.6-1.6,3.8-2.4,6.7-2.4c4.8,0,8.9,1.3,12.4,4
		c-1.6,2.4-2.3,7.2-2.3,14.2c0,4.4,0.1,24.1,0.3,59c0.1,2.4,0.8,4.3,2,5.8c1.2,1.5,2.5,2.3,3.8,2.3h8.5V548.6z"/>
	<path class="st2" d="M531.7,521.1c0.1,3.6-0.4,7.1-1.6,10.3c-1.2,3.3-3,6.2-5.4,8.8c-2.4,2.6-5.4,4.6-9.2,6.1
		c-3.8,1.5-7.9,2.3-12.6,2.3h-10.6c-4.9,0-8.6-1.3-11-4c-1.9,2.7-5.1,4-9.4,4h-11.7v-15.8h11.7c1.3,0,2.5-0.7,3.7-2
		c1.3-1.7,2-3.9,2.2-6.5l0.1-20.8c0-6.7-0.8-11.1-2.3-13.4c3.5-2.6,7.6-3.9,12.4-3.9c13.3-0.5,23.8,2.4,31.5,8.7
		C527.3,501.3,531.3,510,531.7,521.1z M502.2,532.8c8.2,0,12.4-3.9,12.4-11.8c0-4.2-1.8-8.5-5.5-13c-3.7-4.5-7.7-7.2-12.1-8.3
		l-0.7,26.5C496.3,530.6,498.3,532.8,502.2,532.8z"/>
	<path class="st2" d="M597.2,548.6h-14.5c-3.1,0-5.5-0.6-7.4-1.8c0,2.6,0,4.8-0.1,6.7s-0.3,4-0.7,6.2c-0.4,2.2-0.9,4.1-1.6,5.7
		s-1.6,3.1-2.9,4.6s-2.7,2.8-4.3,3.7c-1.7,0.9-3.8,1.7-6.2,2.2c-2.5,0.6-5.3,0.8-8.4,0.8c-3.7,0-6.8-0.9-9.4-2.8
		c-2.6-1.9-3.9-4.1-3.9-6.5c0-2.5,1.3-5.5,3.9-9c1.9,1.8,4.1,2.7,6.5,2.7c3.2,0,5.5-1.3,6.9-4c1.4-2.7,2.1-7,2.1-13.1
		c0-2,0-4.8-0.1-8.2c0-0.3,0.1-2.1,0.1-5.5c0-2-0.1-8-0.4-18c-0.2-8.9-0.3-14.5-0.3-16.7c0-2.8,0.8-5,2.4-6.8
		c1.6-1.8,3.8-2.6,6.5-2.6c5.1,0,9.2,1.6,12.4,4.7c-1.5,2.4-2.3,7.1-2.3,14.1c0,12.6,0,21.8,0.1,27.8h21.9V548.6z"/>
	<path class="st2" d="M594.3,532.8h12.1c2.2,0,3.7-0.7,4.6-2.1s1.3-3.7,1.3-6.9l-0.4-34.4c-0.2-18.6-0.3-29.6-0.3-33
		c0-2.7,0.8-4.8,2.4-6.4c1.6-1.6,3.8-2.4,6.6-2.4c4.8,0,8.9,1.3,12.4,4c-1.5,2.4-2.2,7.2-2.2,14.2c0,8.6,0,19.9,0.1,33.9l0.1,32.7
		c0,10.8-4.9,16.2-14.8,16.2h-22V532.8z"/>
	<path class="st2" d="M662.7,465.6c0,3,0.2,15.4,0.5,37.2l0.4,36.8c0,2.7-0.8,4.9-2.4,6.5c-1.6,1.6-3.8,2.4-6.6,2.4
		c-4.8,0-8.9-1.4-12.4-4.1c1.5-2.4,2.2-7.1,2.2-14.2l-0.4-37.2c-0.3-21.8-0.5-34-0.5-36.8c0-2.7,0.8-4.9,2.4-6.5
		c1.6-1.6,3.8-2.4,6.7-2.4c4.8,0,8.9,1.4,12.3,4.1C663.4,453.8,662.7,458.5,662.7,465.6z"/>
</g>
</svg>
