<?xml version="1.0" encoding="utf-8"?>
<!-- Generator: Adobe Illustrator 24.0.1, SVG Export Plug-In . SVG Version: 6.00 Build 0)  -->
<svg version="1.1" id="Layer_19" xmlns="http://www.w3.org/2000/svg" xmlns:xlink="http://www.w3.org/1999/xlink" x="0px" y="0px"
	 viewBox="0 0 520.1 1070.2" style="enable-background:new 0 0 520.1 1070.2;" xml:space="preserve">
<style type="text/css">
	.st0{fill:#FFFFFF;stroke:#010101;stroke-width:17.39;stroke-miterlimit:10;}
	.st1{enable-background:new    ;}
	.st2{fill:#010101;}
</style>
<title>beeralsabi3map</title>
<path class="st0" d="M51.2,128.4c1.3-9,3.5-17.9,6.6-26.4c1.5-3.9,4.4-7.1,8-9.2c9.3-5.7,18.9-10.9,28.7-15.8c5.3-2.6,10.2-2.2,15,1
	c0.7,0.5,1.5,1,2.2,1.5c12.7,8.1,16.9,8.2,28.5-1.3c6.6-5.4,13.2-7.1,21.3-4.4c7,2.3,13.1,0.3,18.9-4.4c9.8-7.9,14.8-17.2,11.9-30.1
	c-2-9,1.2-17.5,3.6-26c0.9-3.3,3.5-5.3,6.7-4.2c5.9,2,11.7,0.3,17.5,0c8.5-0.5,17.1-0.1,25.6,1.1c5.2,0.7,7.3,2.7,7.9,7.8
	c0.3,2.6,0.2,5.3-0.1,7.9c-1.8,15.9-1,31.8-0.2,47.7c0.3,6.5,3.9,11,10.1,12.7c1.1,0.3,2.3,0.3,3.5,0.5
	c15.3,2.8,24.1,11.4,26.9,26.6c0.4,2,0.6,4.1,0.7,6.2c0.4,10.9,5.8,18.2,16,22.2c6.6,2.6,12.4,6.8,18.5,10.3
	c11.7,6.7,16.6,6.1,26.9-2.9c0.6-0.6,1.3-1.2,2-1.8c2-1.3,4.2-3.3,6.4-2.5c2.5,0.9,2.2,3.9,2.4,6.2c0,0.9,0.1,1.8,0.2,2.7
	c0.8,11.2,2,12.5,12.6,14.5c27.9,5.3,56,8.1,84.2,10.7c3.8,0.4,7.7,0.7,11.4,1.5c6.2,1.2,7.2,2.7,6.8,9.1c0,0.9-0.1,1.8-0.3,2.6
	c-3.3,14.7-0.2,28.7,4.7,42.5c4.7,12.7,10.3,25.1,16.6,37.1c3.9,7.3,4.9,15.8,3,23.9c-1.7,6.4-0.4,13.2,3.5,18.5
	c3.3,4.6,3,6.1-1.8,9.2c-5.5,3.5-11.1,6.7-16.8,9.8c-8.7,4.7-13.3,11.8-14.4,21.8c-1.3,12.3-3.5,24.5-5.4,36.7
	c-0.8,5-1.5,9.6-6.3,13c-4.4,3.2-5,8.7-4.3,13.8c1.4,9.8-1.4,18.5-4.8,27.5c-8.1,21.2-16.8,42.1-27.3,62.3
	c-12,23.1-20.3,47.9-24.5,73.5c-1.4,8.1-3.4,16.1-3.3,24.5c0.2,7.8,1.1,15.2,4.5,22.3c4,8.2,4.3,16.5-1.8,24.1
	c-0.4,0.4-0.8,0.9-1,1.5c-3,14.1-9.3,27.4-9.7,42.1c0,4.4,0.7,8.8,2.2,13c3,9,5.5,18,8.5,27c2.2,6.5,1.1,11.9-3.6,17
	c-9.7,10.3-18.3,21.7-25.6,33.8c-4.1,6.9-7.7,13.9-10.8,21.3c-4.5,9.7-6.4,20.4-5.6,31c0.8,11.5,1.3,23,2.1,34.5
	c0.7,7.1-1.3,14.3-5.5,20c-6.8,9.2-8.9,19.5-9.1,30.8c-0.4,19.8-1.6,39.5-2.2,59.2c-0.2,6.1-2.6,10.5-7.3,14.3
	c-10.3,8.1-17.8,19.3-21.3,31.9c-3.1,11.3-10.7,18.6-19,26.8c-9.1-14.2-15.5-28.3-12.2-45.2c1.3-6.6,1.6-13-4.4-17.8
	c-2-1.7-2.3-4.1-2.8-6.3c-19.5-83-49.3-163-74.3-244.3c-9.7-31.5-19.5-63-29.3-94.5c-3.5-11.3-7.8-22.2-14.2-32.3
	c-4.5-6.9-10-13.2-16.3-18.5c-7.4-6.4-8.1-9.5-4.7-18.5c1.2-3.3,2.3-6.7,3.7-9.9c3.4-7.9,2.7-15.4-3.5-21.2s-7.8-12.3-7.1-20.6
	c1.1-12.6-1.7-24.8-7.3-36c-22.4-45.6-37.7-94.1-58.7-140.2c-9.9-21.7-20.6-43.1-29-65.5c-7-18.5-12.2-37.6-15.5-57.1
	c-1.9-11-4.6-21.9-8-32.6c-0.9-2.8-1.7-5.7-2.3-8.6c-1.2-6.4,0.4-8.5,6.9-9.7c0.9-0.1,1.8-0.1,2.6-0.2c9.4-0.7,16.3-5.5,20.2-13.8
	c4-8.7,9.8-13.5,19.8-13.2c5.7,0.1,10.8-2.8,15.5-5.9c0.8-0.5,1.4-1,2-1.7c2.7-3.2,3.8-7.5,2.8-11.6c-1-4.5-5.5-3.7-8.9-4
	C64.1,126.4,58.3,127.7,51.2,128.4z"/>
<g class="st1">
	<path class="st2" d="M197.8,480.4l-25.9,0c-3.5,0-6.1,0.7-8,2.1c-1.9,1.4-2.8,3.3-2.8,5.8c0,2.4,0.8,4.4,2.4,6
		c1.6,1.5,3.7,2.3,6.4,2.3c1.7,0,3.3-0.4,4.7-1.2c1.4,2.2,2.1,4,2.1,5.2c0,2.5-2.2,3.7-6.7,3.7c-5.4,0-10-1.7-13.7-5
		c-3.7-3.3-5.6-7.4-5.6-12.3c0-3.7,1.5-7,4.4-9.9c2.9-2.9,6.4-4.4,10.5-4.6v0h0c-0.1-0.2-1-3-2.7-8.2c-1.1-3.3-2.1-5.4-2.9-6.2
		c0.1-2.6,0.7-4.5,1.8-5.5c2.5-2.5,6.3-3.8,11.4-3.8c5.3,0,9.6,1.3,12.8,4c3.2,2.7,4.8,6.2,4.8,10.5c0,3.4-1,6.5-3,9.3h10.1V480.4z
		 M168.5,457.3v0.1c1.5,2.3,3.4,7.2,5.5,14.9c1.9-0.5,3.4-1.4,4.5-2.8s1.6-3.1,1.6-5.1c0-2.3-0.7-4.1-2.1-5.5s-3.2-2.1-5.4-2.1
		C171.1,456.7,169.7,456.9,168.5,457.3z"/>
	<path class="st2" d="M221.2,480.4h-4.5c-2,0-3.5-0.7-4.4-2.1c-1.3,1.4-3.1,2.1-5.6,2.1h-11.1v-7.9h6.1c1.1,0,1.8-0.4,2.3-1.1
		c0.4-0.7,0.7-1.8,0.7-3.5c0-1.5,0-4-0.1-7.6c-0.1-4.5-0.2-6.8-0.2-6.9c0-1.4,0.4-2.5,1.2-3.3c0.8-0.8,1.9-1.2,3.3-1.2
		c2.4,0,4.5,0.7,6.2,2.1c-0.8,1.2-1.1,3.6-1.1,7.1l0.1,10.1c0,1.2,0.4,2.3,1,3.1c0.6,0.8,1.3,1.2,2,1.2h4.2V480.4z M208.7,484.5
		c1.2,0,2.1,0.4,2.9,1.1c0.8,0.7,1.2,1.6,1.2,2.7c0,1.3-0.5,2.4-1.4,3.3c-0.9,0.9-2.1,1.3-3.4,1.3c-1.2,0-2.1-0.4-2.9-1.1
		c-0.7-0.7-1.1-1.6-1.1-2.8c0-1.3,0.5-2.4,1.4-3.2C206.3,484.9,207.4,484.5,208.7,484.5z"/>
	<path class="st2" d="M278.8,480.4h-4.2c-1.9,0-3.4-0.8-4.5-2.4c-1.2,1.6-3.2,2.4-5.8,2.4c-4.7,0-7.9-1.3-9.9-3.9
		c-1.1,2.6-3.3,3.9-6.6,3.9c-5,0-8.4-1.5-10.2-4.4c-1.3,3-3.4,4.4-6.3,4.4h-11.6v-7.9h6.7c1.1,0,1.9-0.3,2.3-1
		c0.4-0.7,0.7-1.8,0.7-3.4c0-0.7-0.1-2.5-0.2-5.5c-0.1-2.6-0.2-4.2-0.2-4.8c0-1.4,0.4-2.4,1.2-3.2c0.8-0.8,1.9-1.2,3.3-1.2
		c2.4,0,4.5,0.7,6.2,2.1c-0.7,1.2-1.1,3.1-1.1,5.8c0,1.5,0,2.9,0,4.3l0.1,4.3c0.1,1.1,0.6,1.8,1.2,2.2c0.7,0.3,1.7,0.5,3,0.5
		c1.1,0,1.9-0.3,2.3-1c0.4-0.7,0.6-1.8,0.6-3.4c0-1.4,0-3.6-0.1-6.7c-0.1-3.8-0.2-5.8-0.2-6c0-2.9,1.3-4.4,3.9-4.4
		c3,0,5.3,0.7,6.7,2c-0.7,1.2-1.1,3.4-1.1,6.4l0.1,10.2c0,0.5,0.1,1,0.3,1.4c0.2,0.4,0.4,0.7,0.6,0.9c0.2,0.2,0.5,0.4,0.9,0.5
		c0.4,0.1,0.8,0.2,1.1,0.2c0.3,0,0.8,0,1.3,0c1.1,0,1.8-0.3,2.3-1c0.4-0.7,0.7-1.8,0.7-3.4c0-1.4,0-4-0.1-7.6
		c-0.1-4.5-0.2-6.8-0.2-6.9c0-2.9,1.3-4.4,3.9-4.4c3,0,5.2,0.7,6.7,2c-0.7,1.2-1.1,4-1.1,8.2c0,0.8,0,3.5,0.1,8.1
		c0,0.2,0.1,0.4,0.1,0.5c0,1.3,0.3,2.4,0.9,3.3c0.6,0.9,1.3,1.3,2,1.3h4.2V480.4z"/>
	<path class="st2" d="M277.3,472.5h6.1c1.1,0,1.9-0.3,2.3-1c0.4-0.7,0.7-1.8,0.7-3.5l-0.2-17.3c-0.1-9.3-0.1-14.8-0.1-16.6
		c0-1.3,0.4-2.4,1.2-3.2c0.8-0.8,1.9-1.2,3.3-1.2c2.4,0,4.5,0.7,6.2,2c-0.7,1.2-1.1,3.6-1.1,7.1c0,4.3,0,10,0,17l0.1,16.4
		c0,5.4-2.5,8.1-7.4,8.1h-11V472.5z"/>
	<path class="st2" d="M311.6,438.8c0,1.5,0.1,7.7,0.3,18.6l0.2,18.4c0,1.4-0.4,2.5-1.2,3.3c-0.8,0.8-1.9,1.2-3.3,1.2
		c-2.4,0-4.5-0.7-6.2-2.1c0.7-1.2,1.1-3.6,1.1-7.1l-0.2-18.6c-0.2-10.9-0.3-17.1-0.3-18.4c0-1.4,0.4-2.5,1.2-3.3
		c0.8-0.8,1.9-1.2,3.3-1.2c2.4,0,4.4,0.7,6.2,2.1C312,432.9,311.6,435.3,311.6,438.8z"/>
	<path class="st2" d="M361.6,480.4h-7.3c-1.5,0-2.8-0.3-3.7-0.9c0,1.3,0,2.4-0.1,3.4c0,1-0.2,2-0.4,3.1s-0.5,2.1-0.8,2.8
		c-0.3,0.8-0.8,1.6-1.4,2.3s-1.3,1.4-2.2,1.8c-0.8,0.5-1.9,0.8-3.1,1.1c-1.2,0.3-2.7,0.4-4.2,0.4c-1.8,0-3.4-0.5-4.7-1.4
		c-1.3-0.9-2-2-2-3.3c0-1.3,0.7-2.8,2-4.5c1,0.9,2.1,1.4,3.3,1.4c1.6,0,2.8-0.7,3.5-2s1-3.5,1-6.6c0-1,0-2.4-0.1-4.1
		c0-0.1,0-1.1,0-2.7c0-1-0.1-4-0.2-9c-0.1-4.5-0.1-7.3-0.1-8.4c0-1.4,0.4-2.5,1.2-3.4c0.8-0.9,1.9-1.3,3.3-1.3
		c2.6,0,4.6,0.8,6.2,2.3c-0.8,1.2-1.1,3.6-1.1,7.1c0,6.3,0,10.9,0,13.9h11V480.4z"/>
	<path class="st2" d="M391.8,480.4h-10.4c-2.2,0-3.7-0.7-4.7-2.1c-1.3,1.4-3.2,2.1-5.6,2.1h-11v-7.9h6.1c1.1,0,1.9-0.3,2.3-1
		c0.4-0.7,0.7-1.9,0.7-3.5c0-0.5-0.1-3.1-0.2-7.6c-0.1-3.6-0.1-5.9-0.1-6.9c0-1.4,0.4-2.4,1.2-3.2c0.8-0.8,1.9-1.2,3.3-1.2
		c2.4,0,4.5,0.7,6.2,2.1c-0.7,1.2-1.1,3.6-1.1,7.1l0.1,10.1c0,1.2,0.4,2.3,1,3.1s1.2,1.2,1.9,1.2h10.4V480.4z M378.5,444h-11.6
		c-0.5,0-0.9-0.2-1.3-0.6c-0.3-0.4-0.5-0.8-0.5-1.3c0-0.7,0.2-1.3,0.7-2c0.3,0.3,0.6,0.5,1.1,0.5h2.2c-0.8-1-1.1-2.2-1.1-3.4
		c0-1.6,0.6-2.9,1.8-3.9c1.2-1,2.8-1.5,4.8-1.5c1.9,0,3.3,0.5,4.2,1.4c0.2,0.2,0.4,0.5,0.5,1c0.1,0.4,0.2,0.9,0.2,1.3
		c0,0.4-0.2,0.8-0.5,1.1c-0.3,0.3-0.8,0.5-1.3,0.5c-1,0-1.7-0.2-2.2-0.5c0.2,0,0.4-0.1,0.5-0.4c0.1-0.3,0.1-0.6,0-1v-0.1
		c-0.5-0.1-0.9-0.2-1.3-0.2c-0.8,0-1.5,0.3-2,0.8c-0.5,0.5-0.8,1.2-0.8,2.1c0,0.8,0.2,1.4,0.7,1.9s1.1,0.9,1.8,1h4.1
		c1.3,0,1.9,0.5,1.9,1.4c0,1.1-0.2,1.9-0.7,2.5C379.4,444.2,379,444,378.5,444z"/>
	<path class="st2" d="M409.7,451c-0.7,1.2-1.1,3.6-1.1,7.1l0.1,7.4c0,1.2,0,2.3,0,3.4c0,1.1,0,1.9,0,2.4s0,0.8,0,0.9
		c0,5.4-2.5,8.1-7.4,8.1h-11.1v-7.9h6.1c1.1,0,1.9-0.4,2.3-1.1c0.4-0.7,0.7-1.8,0.7-3.5c0-0.6-0.1-3.1-0.2-7.6
		c-0.1-4.5-0.2-6.8-0.2-6.9c0-1.4,0.4-2.5,1.2-3.3c0.8-0.8,1.9-1.2,3.3-1.2C405.9,448.9,408,449.6,409.7,451z M400.9,484.5
		c1.2,0,2.1,0.4,2.9,1.1c0.8,0.7,1.2,1.6,1.2,2.7c0,1.3-0.5,2.4-1.4,3.3s-2.1,1.3-3.4,1.3c-1.2,0-2.2-0.4-2.9-1.1
		c-0.7-0.7-1.1-1.6-1.1-2.8c0-1.3,0.5-2.4,1.4-3.2C398.5,484.9,399.6,484.5,400.9,484.5z"/>
</g>
</svg>
