<?xml version="1.0" encoding="utf-8"?>
<!-- Generator: Adobe Illustrator 24.0.1, SVG Export Plug-In . SVG Version: 6.00 Build 0)  -->
<svg version="1.1" id="Layer_1" xmlns="http://www.w3.org/2000/svg" xmlns:xlink="http://www.w3.org/1999/xlink" x="0px" y="0px"
	 viewBox="0 0 1737.3 1077.8" style="enable-background:new 0 0 1737.3 1077.8;" xml:space="preserve">
<style type="text/css">
	.st0{fill:#FFFFFF;stroke:#010101;stroke-width:45.88;stroke-miterlimit:10;}
	.st1{enable-background:new    ;}
	.st2{fill:#010101;}
</style>
<title>besaanmap</title>
<g id="Layer_5">
	<path class="st0" d="M922.3,693.5c-0.5-0.4-1-0.8-1.5-1.2C860.6,638,797.2,588.5,720.3,559.5c-31.6-11.9-49.2-32.4-48.2-67.9
		c1.1-39.9-0.7-80,42.5-102.3c95.1-48.9,137.1-126.8,126.9-233.2c-0.7-9.3-0.9-18.5-0.5-27.8C843.4,42.8,906.9-0.2,979,45
		c71.4,44.8,138.2,44.7,211.3,16.1c50-19.6,96.4-10.5,136.7,23.2c31.8,26.6,57,60.8,95,80.5c16.8,8.7,14.7,27.4,16.8,43.3
		c8,59.7,16.4,119.4,24.2,179.1c3.3,25.4,4.7,50.8-0.8,76.2c-26.7,122.2-53.3,244.5-80,366.7c-12.3,56.1-45,101.2-79.3,145.1
		c-16.9,21.7-37.6,32.6-66.7,20.3c-77.7-32.9-81.6-31.5-140.1,31.4c-0.2,0.2-0.4,0.4-0.6,0.6c-7.6,7.5-20.3,5.4-25.7-3.8
		c-15.8-26.8-20.7-56.5-23.2-87.2c-0.2-2.7-1-5.2-2.5-7.5c-7.7-12.3,1.2-29.9-11.5-40.7l0.1,0.3c-12.2-11.2,0.5-31.7-15.4-41.6
		l0.3,0.6c16-30.9-10.9-41.3-27.2-56.7l0.2,0.4c-7.3-8-4.2-22-15.9-27.5l0.7,1c-7.3-15.8-13.8-32.1-29.3-42.2l0.8,1
		C945,708.5,933.2,701.4,922.3,693.5z"/>
	<g class="st1">
		<path class="st2" d="M948.7,438c-2.1,3.4-3.2,10.2-3.2,20.3c0,6.5,0,13.9,0.1,22.3l0.3,20.6c0,15.1-4.5,27.3-13.4,36.9
			c-8.5,9.2-19.2,13.8-31.8,13.8c-9.6,0-18.3-1.4-26.2-4.1c-7.8-2.7-14.7-6.8-20.6-12.2c-5.9-5.4-10.4-12.5-13.7-21.3
			c-3.2-8.8-4.8-18.8-4.8-30.1c0-6.7,0.8-11.6,2.5-14.8c1.7-3.1,4.4-4.7,8.1-4.7c3.6,0,8.6,2,15.1,6c-2.4,4.1-3.6,8.7-3.6,13.6
			c0,15.3,4.5,26.1,13.6,32.5c2.5,1.7,5.3,3,8.5,4.1s6.6,1.7,10.2,1.9c3.6,0.2,7.1-0.2,10.6-1.4c3.4-1.2,6.5-2.9,9.3-5.1
			c2.8-2.3,5-5.6,6.7-10s2.6-9.6,2.6-15.5c0-4.3-0.1-12.3-0.4-23.7c-0.4-13-0.6-20.2-0.6-21.9c0-3.9,1.2-7,3.5-9.3s5.5-3.4,9.6-3.4
			C937.9,432.2,943.8,434.1,948.7,438z M881.4,444.3c-3.3,0-6-1-8.1-3.1s-3.2-4.7-3.2-8c0-3.6,1.3-6.6,3.9-9.1
			c2.6-2.5,5.7-3.8,9.5-3.8c3.4,0,6.3,1,8.5,3.1s3.3,4.6,3.3,7.7c0,3.7-1.3,6.8-4,9.4C888.6,443,885.3,444.3,881.4,444.3z"/>
		<path class="st2" d="M1022.5,521.9h-37c-14.1,0-21.2-7.7-21.2-23.2c0-23.5,0-43.7,0.1-60.4l-0.5-49.1c0-3.9,1.2-7,3.5-9.3
			s5.5-3.5,9.5-3.5c6.9,0,12.8,2,17.8,5.9c-2.1,3.4-3.2,10.2-3.2,20.4c0,9.9,0,23.8-0.1,41.7c-0.1,17.9-0.1,31.9-0.1,41.9
			c0,4.6,0.6,7.9,1.9,9.9c1.3,2,3.5,3,6.6,3h22.8L1022.5,521.9L1022.5,521.9z"/>
		<path class="st2" d="M1185.4,521.9h-12.2c-5.5,0-9.8-2.3-12.9-6.9c-3.6,4.6-9.1,6.9-16.5,6.9c-13.4,0-22.8-3.7-28.3-11.2
			c-3.1,7.5-9.4,11.2-18.9,11.2c-14.2,0-24-4.2-29.3-12.7c-3.8,8.5-9.8,12.7-18,12.7h-33.2v-22.7h19.1c3.2,0,5.4-1,6.6-2.9
			c1.3-2,1.9-5.3,1.9-9.9c0-2-0.2-7.2-0.5-15.8c-0.4-7.6-0.6-12.1-0.6-13.7c0-3.9,1.2-7,3.5-9.3s5.5-3.4,9.4-3.4
			c7,0,12.9,2,17.6,5.9c-2.1,3.4-3.2,8.9-3.2,16.7c0,4.2,0,8.3,0.1,12.4l0.2,12.4c0.4,3.2,1.6,5.3,3.5,6.2c1.9,0.9,4.8,1.4,8.6,1.4
			c3.2,0,5.3-1,6.6-2.9c1.2-2,1.8-5.3,1.8-9.9c0-3.9-0.1-10.3-0.4-19.2c-0.4-11-0.5-16.7-0.5-17.2c0-8.3,3.7-12.5,11.1-12.5
			c8.6,0,15.1,1.9,19.3,5.7c-2.1,3.5-3.2,9.6-3.2,18.4l0.3,29.3c0.1,1.5,0.3,2.8,0.8,3.9s1.1,1.9,1.7,2.5c0.7,0.6,1.6,1.1,2.7,1.4
			s2.2,0.5,3.1,0.6s2.2,0.1,3.7,0.1c3.1,0,5.3-1,6.5-2.9c1.3-2,1.9-5.3,1.9-9.9c0-4.1-0.1-11.4-0.4-21.8c-0.4-13-0.5-19.6-0.5-19.9
			c0-8.4,3.7-12.6,11.2-12.6c8.5,0,15,1.9,19.2,5.8c-2.1,3.5-3.2,11.4-3.2,23.6c0,2.4,0.1,10.1,0.3,23.1c0.1,0.6,0.2,1.1,0.2,1.6
			c0,3.8,0.9,6.9,2.6,9.3c1.8,2.5,3.6,3.7,5.7,3.7h12.2v22.5H1185.4z"/>
		<path class="st2" d="M1272.1,521.9h-29.8c-6.2,0-10.7-2-13.4-6c-3.7,4-9,6-16,6h-31.6v-22.7h17.4c3.2,0,5.4-1,6.6-3
			s1.9-5.3,1.9-10c0-1.5-0.2-8.8-0.5-21.7c-0.3-10.4-0.4-17-0.4-19.9c0-3.9,1.1-7,3.4-9.3s5.4-3.4,9.4-3.4c6.9,0,12.8,2,17.8,5.9
			c-2.1,3.4-3.2,10.2-3.2,20.3l0.3,29c0.1,3.6,1.1,6.5,2.7,8.8c1.7,2.3,3.5,3.4,5.6,3.4h29.8L1272.1,521.9L1272.1,521.9z
			 M1206.9,533c3.4,0,6.1,1,8.4,3.1c2.2,2.1,3.3,4.7,3.3,7.8c0,3.8-1.3,6.9-3.9,9.5c-2.6,2.5-5.9,3.8-9.9,3.8c-3.3,0-6-1-8.1-3.1
			s-3.2-4.7-3.2-8c0-3.6,1.3-6.7,3.9-9.2C1200,534.3,1203.2,533,1206.9,533z M1238.5,533c3.5,0,6.3,1,8.5,3.1s3.3,4.7,3.3,7.8
			c0,3.8-1.3,6.9-3.9,9.5s-5.9,3.8-9.8,3.8c-3.4,0-6.1-1-8.2-3.1s-3.2-4.7-3.2-8c0-3.6,1.3-6.7,3.9-9.2
			C1231.6,534.3,1234.7,533,1238.5,533z"/>
		<path class="st2" d="M1323.5,437.5c-2.1,3.4-3.2,10.2-3.2,20.3l0.2,21.3c0,3.4,0,6.7,0.1,9.9c0,3.2,0.1,5.5,0.1,7s0.1,2.4,0.1,2.7
			c0,15.5-7.1,23.2-21.2,23.2h-31.7v-22.7h17.5c3.2-0.1,5.4-1.1,6.6-3.1c1.3-2,1.9-5.3,1.9-9.9c0-1.6-0.2-8.9-0.5-21.8
			c-0.4-13-0.5-19.6-0.5-19.9c0-4,1.2-7.1,3.5-9.4s5.5-3.4,9.6-3.4C1312.7,431.7,1318.6,433.6,1323.5,437.5z M1298.3,533.7
			c3.4,0,6.1,1.1,8.4,3.2s3.3,4.7,3.3,7.9c0,3.7-1.3,6.8-3.9,9.3s-5.9,3.8-9.8,3.8c-3.4,0-6.2-1-8.2-3c-2.1-2-3.1-4.7-3.1-8
			c0-3.6,1.3-6.7,3.9-9.3C1291.4,534.9,1294.6,533.7,1298.3,533.7z"/>
	</g>
</g>
</svg>
