<?xml version="1.0" encoding="utf-8"?>
<!-- Generator: Adobe Illustrator 24.0.1, SVG Export Plug-In . SVG Version: 6.00 Build 0)  -->
<svg version="1.1" id="Layer_9" xmlns="http://www.w3.org/2000/svg" xmlns:xlink="http://www.w3.org/1999/xlink" x="0px" y="0px"
	 viewBox="0 0 631.5 1067.1" style="enable-background:new 0 0 631.5 1067.1;" xml:space="preserve">
<style type="text/css">
	.st0{fill:#FFFFFF;stroke:#010101;stroke-width:41.38;stroke-miterlimit:10;}
	.st1{enable-background:new    ;}
	.st2{fill:#010101;}
</style>
<title>hayfamap</title>
<path class="st0" d="M435.6,887.4c-34.9,9.8-70.7,9.6-105.9,12.6c-34.9,3-65,13.3-84.4,44.7c-4.4,7.1-10.9,12.6-18.6,15.9
	C162.9,988.8,101,1022,34,1042.8c-3.3,1-6.9,1-11,1.7c-5.5-10.9,0.4-20.5,2.8-30.2c21-87.6,52.7-172.3,69.8-261
	c13-67.7,22.2-135.7,26.2-204.5c0.5-8.2,0-17.2,3.1-24.5c26-61.5,27.6-127.1,32.5-192c4-52.4,13.7-103.3,34.8-151.7
	c1.7-4.3,3.8-8.5,6.1-12.6c1.1-1.7,3.7-2.5,6.1-3.9c14.3,9,16.4,25.4,22.2,39.1c7.6,18.1,14.2,36,37.8,36.8
	c27.5,0.9,52.5-5.4,67.3-31c6.4-11.1,10.1-24,14-36.4c10.8-33.9,22.5-67.5,31-102c4.2-17.1,11.9-30.4,25.6-44
	c14.3,9.4,22.5,22.3,26.5,38.8c5.9,24.2,11.2,48.6,19.2,72.1c16.9,49.6,40,60.9,89.7,45.8c4.5-1.4,9-3.1,13.5-4.3
	c29.7-7.9,43.6-1.1,49.5,28.3c12.6,63.3,6.4,124.5-38.4,174c-46.5,51.5-59.8,111.6-57.5,177.6c1.4,40.1,14,50.3,53.7,44.6
	c34-4.8,40.5-1.9,50.1,18.9c4.5,9.8,2.8,15.6-7,19.4c-11,4.3-22.2,8.5-33,13.1c-16.4,7-31.1,14.5-37,34.7
	c-5.8,19.4-24.9,23.4-43,26.2c-74.6,11.5-104.4,75.9-66.1,142.2C427.4,866.9,435.2,874.8,435.6,887.4z"/>
<g class="st1">
	<path class="st2" d="M214.4,625.7h-25.3c-9.7,0-14.5-5.3-14.5-15.9c0-16.1,0-29.9,0.1-41.3l-0.4-33.6c0-2.7,0.8-4.8,2.4-6.4
		s3.7-2.4,6.5-2.4c4.7,0,8.7,1.3,12.1,4c-1.4,2.3-2.2,7-2.2,13.9c0,6.8,0,16.3-0.1,28.5c0,12.3-0.1,21.8-0.1,28.7
		c0,3.2,0.4,5.4,1.3,6.8s2.4,2,4.5,2h15.6V625.7z"/>
	<path class="st2" d="M291.2,625.7h-8.4c-4.3-0.1-7.4-1.5-9.3-4.1c-2.5,2.7-6.1,4.1-10.9,4.1h-52.5v-15.5h17.5
		c-2.5-4.2-3.8-8.5-3.8-12.9c0-9.7,3.9-17.9,11.7-24.7c3.5-3.1,8.1-5.4,13.7-7.2c5.6-1.7,11.5-2.4,17.7-2.2c4.8,0,8.8,1.3,12.1,4
		c-1.4,2.4-2.2,7-2.2,13.9l0.1,19.4c0,0.1,0.1,0.4,0.1,0.8c0,2.8,0.7,5,2.1,6.7c1.1,1.5,2.3,2.2,3.7,2.2h8.4V625.7z M252.9,610.2
		c2.3,0,3.8-0.5,4.6-1.5s1.2-3,1.2-6c0-1.8-0.1-5.4-0.2-10.9c-0.2-8.4-0.4-12.8-0.4-13.3c-4.7,1.1-8.8,3.5-12.3,7.2
		s-5.2,7.5-5.2,11.5c0,4.5,1,7.8,2.9,9.9C245.5,609.2,248.6,610.2,252.9,610.2z M255.3,555.4c-2.3,0-4.2-0.7-5.6-2.1
		c-1.4-1.4-2.1-3.2-2.1-5.5c0-2.5,0.9-4.6,2.7-6.3c1.8-1.7,3.9-2.6,6.5-2.6c2.3,0,4.2,0.7,5.7,2.2c1.5,1.4,2.3,3.2,2.3,5.3
		c0,2.5-0.9,4.7-2.7,6.4C260.2,554.5,257.9,555.4,255.3,555.4z"/>
	<path class="st2" d="M350.5,625.7H330c-4.3,0-7.3-1.4-9.2-4.1c-2.5,2.7-6.2,4.1-10.9,4.1h-21.6v-15.5h11.9c2.2,0,3.7-0.7,4.5-2
		c0.9-1.4,1.3-3.7,1.3-6.9c0-1.1-0.1-6-0.4-14.9c-0.2-7.1-0.3-11.6-0.3-13.6c0-2.7,0.8-4.8,2.3-6.4c1.6-1.6,3.7-2.3,6.4-2.3
		c4.7,0,8.7,1.3,12.1,4c-1.4,2.3-2.2,7-2.2,13.9l0.2,19.8c0.1,2.4,0.7,4.4,1.9,6c1.1,1.6,2.4,2.3,3.8,2.3h20.4V625.7z M305.9,633.3
		c2.3,0,4.2,0.7,5.7,2.1c1.5,1.4,2.3,3.2,2.3,5.4c0,2.6-0.9,4.7-2.7,6.5c-1.8,1.7-4.1,2.6-6.8,2.6c-2.3,0-4.1-0.7-5.5-2.1
		c-1.4-1.4-2.2-3.2-2.2-5.5c0-2.5,0.9-4.6,2.7-6.3C301.1,634.2,303.3,633.3,305.9,633.3z M327.5,633.3c2.4,0,4.3,0.7,5.8,2.1
		c1.5,1.4,2.2,3.2,2.2,5.4c0,2.6-0.9,4.7-2.7,6.5c-1.8,1.7-4,2.6-6.7,2.6c-2.3,0-4.2-0.7-5.6-2.1c-1.4-1.4-2.2-3.2-2.2-5.5
		c0-2.5,0.9-4.6,2.7-6.3C322.8,634.2,324.9,633.3,327.5,633.3z"/>
	<path class="st2" d="M432.7,603c0.6,6.9,0,12-1.8,15.2c-1.7,3.2-3.8,5.3-6.3,6.1s-6.8,1.3-13.1,1.3h-64v-15.5h53.6
		c-5-1.7-12.5-5.9-22.6-12.4c-10.1-6.6-16-11.4-17.8-14.5c-1.2-2.5-1.4-5.1-0.6-7.7c1-2.9,2.9-5.4,5.6-7.6c2.7-2.1,5.7-3.3,8.9-3.4
		c0,2.9,2.3,6.8,6.9,11.5c4.6,4.7,10.4,9.5,17.5,14.2c7.2,4.7,13.9,8.3,20,10.7S429.9,604.1,432.7,603z"/>
</g>
</svg>
