<?xml version="1.0" encoding="utf-8"?>
<!-- Generator: Adobe Illustrator 24.0.1, SVG Export Plug-In . SVG Version: 6.00 Build 0)  -->
<svg version="1.1" id="Layer_4" xmlns="http://www.w3.org/2000/svg" xmlns:xlink="http://www.w3.org/1999/xlink" x="0px" y="0px"
	 viewBox="0 0 1140.2 978.7" style="enable-background:new 0 0 1140.2 978.7;" xml:space="preserve">
<style type="text/css">
	.st0{fill:#FFFFFF;stroke:#010101;stroke-width:38.28;stroke-miterlimit:10;}
</style>
<title>alqudsmap</title>
<path class="st0" d="M22.5,775.4c7-43.2,21.1-76.2,60.2-94.9c24.7-11.8,41.3-34,54.8-57.1c39.6-67.4,91.7-121.3,161.8-157.3
	c22.1-11.4,36.6-31.3,49.1-52.2c23.6-39.4,21.5-65.4-7.5-101c-4.8-5.9-10.4-11.4-14-17.9c-12.9-23.2-3.3-46.9,23.1-47.1
	c80.6-0.8,163.2-12.8,236.3,37.9c27.5,19,49.5,13.3,69.1-13.5c10.5-14.3,18.4-30.4,27.4-45.8c10.3-17.6,22-34.2,37.4-47.9
	c15.1-13.5,31.7-19,52.6-13.6c32,8.3,42.6,3.6,56.1-27.6c16.4-38.1,38.9-71.2,70.4-98.1c3.8-3.2,8-5.8,14.2-10.3
	c9.1,19.5,17,37.9,26.1,55.6c17.2,33.8,25.1,35,53.4,10.6c8.4-7.2,14.4-19.3,27.9-17.3c22.5,3.4,45.4,6,67.2,12.2
	c11.2,3.2,8.1,17.3,8.6,27.1c3.2,59.7,5.5,119.4,9.1,179c3.3,54.5,5.9,109.3,12.4,163.5c8.4,70.3-3,136.7-30,201.2
	c-13.2,31.6-26.5,63.3-40.1,94.8c-14.3,33.1-23.5,67.2-21.7,103.5c1.2,26-8.4,42.9-34.3,52.2c-29.9,10.6-58.4,24.8-87.8,37
	c-52,21.5-70.5,14.4-97.4-36.8c-6.5-12.4-12.5-25.1-19.6-37c-13.2-22-20.3-24.1-43.4-14.3c-54.7,23.3-54.7,23.3-73.6-30.7
	c-14.3-40.9-45.2-64.7-88.5-66.1c-16.4-0.6-33.4-0.1-49.3,3.7c-42.1,10.2-81.5,2.2-117.7-18.3c-38.3-21.7-71.9-19-105.5,8.4
	c-11.7,9.6-25.4,16.8-38.6,24.3c-8.9,5-19.2,9.7-28.8,3c-32.4-22.3-57.6-6.9-81.7,14.8c-12.6,11.4-23.7,20.3-34.5-2.3
	c-8.2-17.2-25.4-20.3-42.2-21.1C64.8,774.7,45.8,775.4,22.5,775.4z"/>
<g>
	<path d="M664.6,566.3h-11.7c-4.4,0-8.1-2.1-10.9-6.3c-3.2,4.2-8.2,6.3-14.9,6.3c-12.2,0-20.7-3.4-25.6-10.2
		c-2.8,6.8-8.5,10.2-17.2,10.2c-10.9,0-18.8-2.7-23.7-8c-0.3,13.3-3.9,24-10.8,32.1s-15.8,12.1-26.7,12.1c-8.3,0-15.9-2.2-22.7-6.7
		c-6.8-4.5-12.2-10.5-16-18.2c-3.8-7.6-5.8-16-5.8-25.1c0-11.7,3.2-17.6,9.5-17.6c3.2,0,7.8,1.8,13.6,5.3c-2.1,3.9-3.1,8-3.1,12.4
		c0,6.7,2,12.2,5.9,16.4c3.9,4.2,9.1,6.3,15.4,6.3c11.1,0,16.6-9.5,16.6-28.6c0-1.3-0.2-8.2-0.5-20.5c-0.3-9.9-0.4-16.1-0.4-18.7
		c0-3.5,1-6.4,3.1-8.4c2.1-2.1,4.9-3.1,8.6-3.1c6.1,0,11.4,1.8,15.9,5.3c-2,3-2.9,9.1-2.9,18.3c0,8.9,0,14.9,0.1,18.2l0.2-0.5
		c0,3.6,0.9,5.8,2.7,6.9c1.8,1,4.6,1.6,8.3,1.6c2.9,0,4.8-0.9,6-2.7c1.1-1.8,1.7-4.8,1.7-8.9c0-2.5-0.2-8.3-0.6-17.4
		c-0.3-7.9-0.4-13.1-0.4-15.6c0-7.5,3.4-11.3,10.1-11.3c7.7,0,13.6,1.7,17.6,5.1c-2,3.1-2.9,10.3-2.9,21.5c0,5.6,0.1,12.6,0.2,20.9
		v-0.1c0,3.6,0.9,5.8,2.7,6.9c1.8,1,4.6,1.6,8.3,1.6c2.9,0,4.8-0.9,6-2.7c1.1-1.8,1.7-4.8,1.7-8.9c0-1.3-0.2-7.9-0.5-19.8
		c-0.3-11.7-0.5-17.7-0.5-18c0-7.6,3.4-11.4,10.1-11.4c7.8,0,13.6,1.7,17.5,5.2c-1.9,3.2-2.9,10.3-2.9,21.4l0.2,21.2
		c0.1,0.4,0.2,0.8,0.2,1.1c0,3.5,0.8,6.3,2.3,8.5c1.6,2.2,3.3,3.3,5.3,3.3h10.9V566.3z"/>
	<path d="M727.3,566.3h-11.7c-5.3,0-9.2-1.8-11.7-5.5c-3.3,3.7-8.1,5.5-14.4,5.5h-28.7v-20.5h15.8c2.9,0,4.8-0.9,6-2.7
		c1.1-1.8,1.7-4.8,1.7-9c0-5.7-0.1-20.6-0.4-44.8l-0.5-43c0-3.5,1-6.4,3.1-8.4c2.1-2.1,5-3.1,8.7-3.1c6.3,0,11.6,1.7,16.1,5.2
		c-2,3.2-3,9.3-3,18.4c0,5.8,0.1,31.3,0.4,76.7c0.2,3.1,1.1,5.6,2.6,7.6c1.6,2,3.2,2.9,5,2.9h11V566.3z"/>
	<path d="M773.9,490c-1.9,3.1-2.9,9.2-2.9,18.4l0.2,19.3c0,3.1,0,6.1,0,8.9c0,2.9,0.1,5,0.1,6.3c0,1.4,0,2.2,0,2.4
		c0,14-6.4,21-19.2,21h-28.7v-20.5h15.9c2.9-0.1,4.8-1,6-2.8c1.1-1.8,1.7-4.8,1.7-9c0-1.5-0.2-8-0.5-19.8c-0.3-11.7-0.5-17.7-0.5-18
		c0-3.6,1-6.5,3.1-8.5c2.1-2.1,5-3.1,8.7-3.1C764,484.6,769.4,486.4,773.9,490z M751,577c3,0,5.6,1,7.6,2.9c2,1.9,3,4.3,3,7.1
		c0,3.4-1.2,6.2-3.6,8.5s-5.3,3.4-8.9,3.4c-3.1,0-5.6-0.9-7.5-2.8c-1.9-1.8-2.8-4.2-2.8-7.2c0-3.3,1.2-6.1,3.5-8.4
		C744.7,578.1,747.6,577,751,577z"/>
	<path d="M840.6,566.3h-33.5c-12.8,0-19.2-7-19.2-21c0-21.3,0-39.5,0.1-54.7l-0.5-44.4c0-3.5,1-6.4,3.1-8.5s4.9-3.1,8.6-3.1
		c6.2,0,11.6,1.8,16.1,5.3c-1.9,3.1-2.9,9.3-2.9,18.4c0,9,0,21.6-0.1,37.7c-0.1,16.2-0.1,28.9-0.1,37.9c0,4.2,0.6,7.2,1.7,9
		c1.1,1.8,3.1,2.7,6,2.7h20.6V566.3z"/>
	<path d="M885.2,490.1c-1.9,3.2-2.9,9.3-2.9,18.4l0.2,19.2c0.1,7.2,0.1,13.1,0.1,17.7c0,13.9-6.4,20.9-19.1,20.9h-28.6v-20.5h15.8
		c2.9-0.1,4.8-1,6-2.8c1.1-1.8,1.7-4.8,1.7-8.9c0-1.5-0.2-8-0.5-19.8c-0.3-9.4-0.4-15.4-0.4-18c0-3.5,1-6.3,3.1-8.4
		c2.1-2.1,4.9-3.1,8.5-3.1C875.5,484.8,880.9,486.6,885.2,490.1z M869.4,468c-3,0-5.5-0.9-7.4-2.8c-1.9-1.9-2.8-4.3-2.8-7.3
		c0-3.3,1.2-6.1,3.5-8.4c2.3-2.3,5.2-3.4,8.6-3.4c3,0,5.6,1,7.6,2.9c2,1.9,3,4.2,3,7c0,3.4-1.2,6.2-3.6,8.5
		C875.9,466.8,873,468,869.4,468z"/>
</g>
</svg>
