<?xml version="1.0" encoding="utf-8"?>
<!-- Generator: Adobe Illustrator 24.0.1, SVG Export Plug-In . SVG Version: 6.00 Build 0)  -->
<svg version="1.1" id="Layer_10" xmlns="http://www.w3.org/2000/svg" xmlns:xlink="http://www.w3.org/1999/xlink" x="0px" y="0px"
	 viewBox="0 0 849.6 1073.8" style="enable-background:new 0 0 849.6 1073.8;" xml:space="preserve">
<style type="text/css">
	.st0{fill:#FFFFFF;stroke:#010101;stroke-width:33.48;stroke-miterlimit:10;}
	.st1{enable-background:new    ;}
	.st2{fill:#010101;}
</style>
<title>toulkarimmap</title>
<path class="st0" d="M702.1,757.8c-73.9,55.8-132.1,126-182.7,202.7c-27.5,41.8-55.8,77.7-115,58.6c-17.3-5.6-32.7,10.1-48.6,17.1
	c-25.6,11.2-55,30.3-79.7,15.2c-29.2-17.8-17.6-54.2-15.5-83.2c2.6-36.8,10.5-73.2,12.9-110s-8.2-47.4-45.5-48
	c-36.9-0.6-73.9,2.5-110.8,1.9c-70-1-109.7-48.7-98.6-118.3c20.6-128.5,43-256.7,62.7-385.3c7.2-47,27.3-77.7,75.8-88.6
	c20.2-4.5,39.7-14.5,58.1-24.6c50.7-28.2,103.9-51.5,159-69.7c50.5-16.6,95.4-42.9,133.3-82.3c33.5-34.9,53.2-34.8,91.6-4.1
	c27.9,22.2,58,39.2,90.5,53.3c51,22.2,60.3,34.6,55.5,88.3c-5.7,62.4,10,113.1,58.9,155.3c38.6,33.3,37.4,60.2,4.6,100.1
	c-2.1,2.8-4.5,5.4-7.1,7.8c-35.9,29.9-38.6,64.3-14,102.5c7.4,10.6,5,16.6,15.6,25l6.3,6.1c20,32.5,5.9,34.7,12,35.8l-1.2-14.4
	c0.6,23.5,9,30.8,0.5,53.5c-1.2,3.2-1.9,6.7-2,10.1l-4.4,11.2c-13.1,8.4-3.8-1.2-8.7,14.8l-17,23.7c-5.6,1.1-23.7,3.3-27.8,6.5
	l-3.6,1.3c-13.5,8-11.7,5.4-22.9,17.8l0.2-0.1c-5.9,5.8-16.5,3.5-20.8,12l0.9-0.6C709.4,750.5,706.6,755.4,702.1,757.8z"/>
<g class="st1">
	<path class="st2" d="M249.9,537.7c0.2,5.1-0.8,9.8-3.1,14.1c-2.2,4.3-5.7,7.8-10.5,10.6c-4.7,2.7-10.3,4.1-16.7,4.1h-11.2
		c-5.1,0-9-1.4-11.6-4.2c-2,2.8-5.3,4.2-9.8,4.2h-4.4c-2.2,0-3.8,0.7-4.8,2.2c-0.9,1.5-1.4,3.9-1.4,7.2c0,1.1,0.1,6.5,0.4,16.1
		c0.3,9.6,0.4,14.5,0.4,14.7c0,2.8-0.8,5-2.5,6.7c-1.7,1.7-4,2.5-6.9,2.5c-5.1,0-9.4-1.4-12.9-4.2c1.5-2.6,2.3-7.5,2.3-14.8
		l-0.2-15.6c0-2.5,0-4.9,0-7.2c0-2.3-0.1-4-0.1-5.1c0-1.1,0-1.8,0-2c0-11.2,5.1-16.9,15.4-17h14.8c1.4,0,2.7-0.7,3.9-2.1
		c1.4-1.8,2.2-4.1,2.2-6.8l0.2-21.8c0-7-0.8-11.7-2.3-14c3.6-2.7,7.9-4.1,12.9-4.1c14-0.5,25,2.5,33.1,9.1
		C245.2,516.9,249.5,526,249.9,537.7z M218.9,550c8.7,0,13-4.1,13-12.3c0-4.4-1.9-8.9-5.8-13.6c-3.9-4.7-8.1-7.6-12.8-8.7l-0.6,27.8
		c0,2,0.5,3.6,1.5,4.9C215.2,549.3,216.7,550,218.9,550z"/>
	<path class="st2" d="M318.6,566.5h-15.3c-3.2,0-5.8-0.6-7.7-1.8c0,2.7-0.1,5.1-0.2,7.1c-0.1,2-0.4,4.2-0.8,6.5
		c-0.4,2.3-1,4.3-1.7,5.9c-0.7,1.6-1.7,3.3-3,4.9c-1.3,1.6-2.8,2.9-4.6,3.9c-1.8,1-3.9,1.7-6.6,2.3c-2.6,0.6-5.5,0.9-8.8,0.9
		c-3.8,0-7.1-1-9.9-3c-2.8-2-4.1-4.3-4.1-6.9c0-2.7,1.4-5.8,4.1-9.4c2,1.9,4.3,2.8,6.8,2.8c3.4,0,5.8-1.4,7.2-4.2
		c1.5-2.8,2.2-7.4,2.2-13.8c0-2.1-0.1-5-0.2-8.6c0.1-0.3,0.1-2.2,0.1-5.8c0-2.1-0.2-8.4-0.5-18.9c-0.2-9.4-0.3-15.2-0.3-17.6
		c0-2.9,0.9-5.3,2.6-7.1c1.7-1.8,4-2.8,6.9-2.8c5.4,0,9.7,1.6,13,4.9c-1.6,2.5-2.4,7.4-2.4,14.8c0,13.2,0,22.9,0.1,29.1h22.9V566.5z
		"/>
	<path class="st2" d="M431.3,566.5h-15.8c-5.2-0.1-8.7-1.9-10.4-5.5c-1.7,2.3-3.8,3.9-6.3,4.5c-2.5,0.7-6.8,1-12.8,1h-70.4V550h62
		c-0.9-0.3-8.5-5.8-22.8-16.6c-13-9.8-22.4-14.6-28.1-14.6c-3.7-3.3-5.8-6.7-6.2-10.2c-0.3-3.5,0.8-6.5,3.2-9.1
		c2.4-2.6,6.7-5.5,12.8-8.6c28.1-14.3,43.3-24.5,45.5-30.5c6.1,5.1,9.4,9.8,9.7,14.1c0.4,3.4-1,6.2-4.1,8.4c-1.8,1.2-10.8,5.9-27,14
		l-14,7.1c4.2,2.2,15.7,10.7,34.5,25.5c7.3,5.7,13.1,9.8,17.5,12.1c4.3,2.4,7.7,3.1,10,2.1c0.2,1.8,0.2,3.9,0.1,6.4h22.7V566.5z"/>
	<path class="st2" d="M428.2,550H441c2.3,0,3.9-0.7,4.8-2.2s1.4-3.9,1.4-7.2l-0.4-36.1c-0.2-19.5-0.3-31-0.3-34.6
		c0-2.8,0.8-5.1,2.5-6.7c1.7-1.7,4-2.5,6.9-2.5c5.1,0,9.4,1.4,13,4.2c-1.5,2.6-2.3,7.5-2.3,14.9c0,9,0,20.9,0.1,35.6l0.2,34.3
		c0,11.3-5.2,17-15.5,17h-23.1V550z"/>
	<path class="st2" d="M552.3,566.5h-20.7c-0.1,7.3-0.7,12.4-2,15.5c-4,9.4-11.8,14-23.5,14c-3.8,0-7.1-1-9.9-2.9
		c-2.8-1.9-4.1-4.2-4.1-6.8c0-2.7,1.4-5.8,4.1-9.4c2.1,1.9,4.3,2.9,6.7,2.9c1.6,0,3-0.3,4.1-0.9s2-1.3,2.6-2.1
		c0.6-0.8,1.1-1.9,1.5-3.3c0.4-1.4,0.6-2.5,0.7-3.4c0.1-0.9,0.2-2.1,0.3-3.5h-1.9c-14.9-0.3-25.3-5-31.3-14.1
		c-2.7-4.2-4.1-8.9-4.1-14.1c0-5.2,1.1-10.5,3.4-15.8c2.2-5.3,5.3-9.5,9.1-12.5c8.2-6.8,19.4-9.9,33.4-9.4c5,0,9.3,1.3,12.9,4
		c-1.6,2.4-2.4,7-2.4,13.8c0,2.1,0.1,6.8,0.2,14.2c0,1.9,0,3.9,0.1,5.9c0,4.3,0.1,8.1,0.1,11.5h20.6V566.5z M493,538.1
		c0,4.1,1.6,7.2,4.9,9.2c3.5,1.8,8.3,2.7,14.4,2.7c0-3.2,0-6.3,0-9.3c0-3,0-5.7,0-7.9c0-2.3,0-4.4,0-6.4c0-2,0-3.7,0-5.1
		c0-1.4,0-2.6,0-3.6c0-1,0-1.8,0-2.3v-0.8c-4.7,1.1-9,4.2-13.1,9.2C495,528.9,493,533.7,493,538.1z"/>
	<path class="st2" d="M549.3,550h13.4c1.3,0,2.1-0.3,2.5-1s0.5-2.1,0.5-4.2c0-3.9-0.2-17.4-0.5-40.6l-0.3-34.1
		c0-2.8,0.8-5.1,2.5-6.7s4-2.5,6.9-2.5c5.2,0,9.5,1.4,12.9,4.2c-1.5,2.6-2.3,8.4-2.3,17.4c0,3.6,0,17,0.2,40.2
		c2.8-5.1,6.5-9.6,11.2-13.5c4.7-3.9,9.8-6.3,15.4-7.5c5.6-1.1,11.6-1,18,0.3c6.4,1.3,11.3,3.4,14.8,6.5
		c7.7,6.6,11.5,15.9,11.5,27.7c0,8.8-3.9,16.2-11.8,22c-7.9,5.6-17.5,8.4-28.9,8.4h-65.9V550z M634,537.3c0.4-3.2-0.5-6.1-2.7-8.9
		c-2.2-2.8-5.1-4.8-8.7-6.1c-3.6-1.3-7.3-1.6-10.9-1c-3.1,0.6-6.2,2-9.3,4.3s-5.9,4.8-8.2,7.6c-2.3,2.8-4.3,5.7-5.9,8.6
		c-1.6,2.9-2.7,5.4-3.3,7.6c-0.1,0.3-0.1,0.5-0.1,0.7h22.5C624,550,632.9,545.7,634,537.3z"/>
</g>
</svg>
