<?xml version="1.0" encoding="utf-8"?>
<!-- Generator: Adobe Illustrator 24.0.1, SVG Export Plug-In . SVG Version: 6.00 Build 0)  -->
<svg version="1.1" id="Layer_11" xmlns="http://www.w3.org/2000/svg" xmlns:xlink="http://www.w3.org/1999/xlink" x="0px" y="0px"
	 viewBox="0 0 800.6 1066.8" style="enable-background:new 0 0 800.6 1066.8;" xml:space="preserve">
<style type="text/css">
	.st0{fill:#FFFFFF;stroke:#010101;stroke-width:35.23;stroke-miterlimit:10;}
	.st1{enable-background:new    ;}
	.st2{fill:#010101;}
</style>
<title>yafamap</title>
<path class="st0" d="M326.5,1045.7c-123-157.2-135.4-162-271.8-102.9C15,880.8,5.3,811.5,34.8,747.1
	c106.5-233,186.7-478,320.6-698.3c3.9-6.5,9-12.3,16.3-22.4c65.9,62,144.8,68.8,228.4,53.6c7.6-1.3,15.2-2.2,22.9-2.6
	c68.5-4.6,84.5,12,75.2,78.3c-5.3,38.1-11.2,76.1-16.9,114.1c-4.6,30.8-5.4,62.2,2.9,91.8c13.9,49.5,20.2,95.8,4.1,148.1
	C673.9,557,708,598.2,735.8,635c39.5,52.3,55.9,108.5,42.8,173.2c-5.1,25.4-13.3,49.6-27.6,71.3c-28.8,43.7-63.1,48-102.2,12.7
	c-7.5-6.8-12.7-16.2-19.8-23.5c-45.7-47-77.8-52.1-137.4-21.9c-16,8.1-30.3,21.4-47,25.7c-66.3,17.3-103.9,51.3-89.4,126.4
	C358.1,1013.3,353.4,1035.2,326.5,1045.7z"/>
<g class="st1">
	<path class="st2" d="M339.8,564.6h-28.4c-10.9,0-16.3-5.9-16.3-17.8c0-18.1,0-33.5,0.1-46.4l-0.4-37.7c0-3,0.9-5.4,2.7-7.2
		c1.8-1.8,4.2-2.7,7.3-2.7c5.3,0,9.8,1.5,13.6,4.5c-1.6,2.6-2.4,7.9-2.4,15.6c0,7.6,0,18.3-0.1,32c-0.1,13.8-0.1,24.5-0.1,32.2
		c0,3.5,0.5,6.1,1.5,7.6s2.7,2.3,5.1,2.3h17.5V564.6z"/>
	<path class="st2" d="M412.3,499c-1.7,2.6-2.5,7.8-2.5,15.6l0.2,16.9c0,2.7,0,5.4,0,7.8c0,2.5,0.1,4.3,0.1,5.5c0,1.2,0,1.9,0,2.1
		c0,11.8-5.4,17.7-16.2,17.7H335v-17.4h19.6c-2.9-4.7-4.3-9.6-4.3-14.5c0-10.9,4.4-20.1,13.1-27.7c3.9-3.4,9-6.1,15.4-8
		c6.3-1.9,12.9-2.7,19.9-2.5C404,494.5,408.5,496,412.3,499z M383,547.2c2.6,0,4.3-0.6,5.2-1.7c0.9-1.1,1.3-3.4,1.3-6.8
		c0-0.7-0.2-9.8-0.7-27.2c-5.3,1.3-9.9,4-13.8,8c-3.8,4.1-5.8,8.4-5.8,12.9c0,5.1,1.1,8.8,3.3,11.1C374.7,546,378.2,547.2,383,547.2
		z M385.7,485.6c-2.6,0-4.7-0.8-6.3-2.3c-1.6-1.6-2.4-3.6-2.4-6.1c0-2.8,1-5.2,2.9-7.1c2-1.9,4.4-2.9,7.3-2.9c2.6,0,4.7,0.8,6.4,2.4
		c1.7,1.6,2.5,3.6,2.5,6c0,2.9-1,5.2-3,7.2S388.7,485.6,385.7,485.6z"/>
	<path class="st2" d="M468.9,564.6h-28.4c-10.9,0-16.3-5.9-16.3-17.8c0-18.1,0-33.5,0.1-46.4l-0.4-37.7c0-3,0.9-5.4,2.7-7.2
		s4.2-2.7,7.3-2.7c5.3,0,9.8,1.5,13.6,4.5c-1.6,2.6-2.4,7.9-2.4,15.6c0,7.6,0,18.3-0.1,32c-0.1,13.8-0.1,24.5-0.1,32.2
		c0,3.5,0.5,6.1,1.5,7.6s2.7,2.3,5.1,2.3h17.5V564.6z"/>
	<path class="st2" d="M464,547.2h15c2.4,0,4.1-0.8,5.1-2.3s1.5-4.1,1.5-7.7c0-1.2-0.1-6.7-0.4-16.7c-0.3-9.9-0.4-15-0.4-15.2
		c0-3,0.9-5.4,2.7-7.1s4.2-2.6,7.3-2.6c5.3,0,9.8,1.5,13.6,4.5c-1.6,2.6-2.4,7.8-2.4,15.6l0.2,16.3c0.1,6.1,0.1,11.1,0.1,15
		c0,11.8-5.4,17.7-16.2,17.7H464V547.2z M474.7,573.1c2.6,0,4.7,0.8,6.5,2.4c1.7,1.6,2.6,3.6,2.6,6c0,2.9-1,5.3-3.1,7.3
		c-2,1.9-4.6,2.9-7.6,2.9c-2.6,0-4.7-0.8-6.3-2.4s-2.4-3.6-2.4-6.2c0-2.8,1-5.1,3.1-7C469.4,574.1,471.8,573.1,474.7,573.1z
		 M499,573.1c2.6,0,4.8,0.8,6.5,2.5c1.7,1.6,2.6,3.5,2.6,5.9c0,2.9-1,5.3-3.1,7.2c-2,2-4.5,3-7.6,3c-2.6,0-4.7-0.8-6.3-2.4
		s-2.4-3.6-2.4-6.2c0-2.8,1-5.1,3.1-7C493.7,574.1,496.1,573.1,499,573.1z"/>
</g>
</svg>
