<?xml version="1.0" encoding="utf-8"?>
<!-- Generator: Adobe Illustrator 24.0.1, SVG Export Plug-In . SVG Version: 6.00 Build 0)  -->
<svg version="1.1" id="Layer_1" xmlns="http://www.w3.org/2000/svg" xmlns:xlink="http://www.w3.org/1999/xlink" x="0px" y="0px"
	 viewBox="0 0 1737.3 1077.8" style="enable-background:new 0 0 1737.3 1077.8;" xml:space="preserve">
<style type="text/css">
	.st0{fill:#FFFFFF;stroke:#1E1E1C;stroke-width:47.22;stroke-miterlimit:10;}
	.st1{enable-background:new    ;}
	.st2{fill:#010101;}
</style>
<g id="Layer_8">
	<path class="st0" d="M582.5,619.1c17.7-73.5,35.2-141.5,50.2-210c15.8-72.4,29.2-145.3,43.7-217.9c2.5-12.7,4.8-25.5,8.4-38
		c18.1-62.4,53.7-83.4,112.8-58.9c63.6,26.5,124.5,33.3,187.3,1c15.1-7.8,32.3-7.8,49-8.2c55.5-1.3,111.2,1.3,165.3-16.3
		c30.4-9.9,54.7,3.1,72.2,28c20.2,28.8,39.6,58.2,58.5,87.9c15.3,24.1,16.1,48.3-1.4,72.6c-23.4,32.5-28.7,71-37.3,112
		c38,8.7,74,16.6,109.7,25.3c22,5.3,39.5-7.4,58.4-13.6c54.7-18,73.6-8.9,92.6,44.5c4.8,13.4,6.4,24.5-5.2,35.1
		c-28.7,26-27.1,58.4-20.1,92.6c13.4,65.3,8.5,79-48.3,114.5c-35.5,22.2-50.8,52.5-49,92.8c1.8,40.7,4.7,81.3,11,121.8
		c9,57.6,0.5,67.2-54.6,81.8c-37.5,9.9-73.9,23.9-111.1,35.1c-45.3,13.6-64.2,5.9-85.1-37c-16.3-33.3-32.9-66.3-55.5-95.9
		c-46.3-60.7-71-60.3-111.3,2.3c-7.9,12.3-14,25.8-21,38.6c-5.8,3.2-10.7,1.1-14-3.6c-35.1-49.6-80.6-59.7-136.9-40.1
		c-45.9,16-75.2,3-93.1-40.8c-11.1-27.2-17.1-56.6-24.9-85.1c-5.4-19.6-9.2-39.7-15-59.2c-10.7-36-35.4-55.4-72.9-58
		C626.7,620.9,608.4,620.3,582.5,619.1z"/>
	<g class="st1">
		<path class="st2" d="M925,565.9h-38c-14.6,0-21.8-8-21.8-23.9c0-24.2,0-44.9,0.1-62.2l-0.5-50.5c0-4,1.2-7.2,3.6-9.6
			c2.4-2.4,5.6-3.6,9.7-3.6c7.1,0,13.2,2,18.3,6.1c-2.2,3.5-3.2,10.5-3.2,21c0,10.2,0,24.5-0.1,42.9s-0.1,32.8-0.1,43.1
			c0,4.8,0.6,8.2,1.9,10.2c1.3,2.1,3.6,3.1,6.8,3.1H925V565.9z"/>
		<path class="st2" d="M1081.8,565.9h-22.3c-7.4-0.1-12.3-2.7-14.7-7.8c-2.4,3.3-5.4,5.4-8.9,6.4c-3.6,0.9-9.6,1.4-18,1.4h-99.3
			v-23.3h87.5c-1.2-0.4-12-8.3-32.2-23.5c-18.3-13.8-31.5-20.6-39.7-20.6c-5.3-4.6-8.2-9.4-8.8-14.4c-0.4-4.9,1.1-9.2,4.5-12.9
			c3.4-3.7,9.5-7.7,18.1-12.1c39.6-20.2,61-34.5,64.1-43c8.6,7.1,13.2,13.8,13.7,19.9c0.5,4.8-1.4,8.7-5.8,11.8
			c-2.6,1.7-15.3,8.3-38,19.7l-19.7,9.9c5.9,3.1,22.1,15.1,48.6,36c10.3,8.1,18.5,13.8,24.6,17.1s10.8,4.3,14.2,3
			c0.3,2.5,0.3,5.5,0.1,9.1h32L1081.8,565.9L1081.8,565.9z"/>
		<path class="st2" d="M1149,542.5h32.8c10.1,0.6,15.1,4.4,15.1,11.6c0,5.5-1.9,10.7-5.8,15.8c-2.7-2.5-5.8-3.9-9.3-4h-104.3v-23.3
			h29.3c-5.9-8.3-8.9-17.4-8.9-27.5c0-12.8,4.7-23.2,14.2-31c9.5-7.9,22.1-11.8,37.9-11.8c14.8,0,26.1,3.7,33.7,11.2
			c1.7,1.7,3,4.2,3.9,7.5c1,3.4,1.4,6.8,1.3,10.3s-1.4,6.6-3.8,9.2c-2.5,2.6-5.9,3.9-10.5,3.9c-7.4,0-13.3-1.5-17.7-4.4
			c1.6,0,2.9-1.2,3.8-3.6c1-2.4,1.2-5.1,0.6-8.2v-0.3c-3.5-1.2-7-1.7-10.3-1.7c-6.6,0-11.9,2.1-16.1,6.3c-4.2,4.2-6.3,9.7-6.3,16.4
			c0,6.2,1.9,11.4,5.6,15.7C1138,538.8,1142.9,541.5,1149,542.5z"/>
	</g>
</g>
</svg>
