<?xml version="1.0" encoding="utf-8"?>
<!-- Generator: Adobe Illustrator 24.0.1, SVG Export Plug-In . SVG Version: 6.00 Build 0)  -->
<svg version="1.1" id="Layer_16" xmlns="http://www.w3.org/2000/svg" xmlns:xlink="http://www.w3.org/1999/xlink" x="0px" y="0px"
	 viewBox="0 0 476.4 1060" style="enable-background:new 0 0 476.4 1060;" xml:space="preserve">
<style type="text/css">
	.st0{fill:#FFFFFF;stroke:#010101;stroke-width:29.28;stroke-miterlimit:10;}
	.st1{enable-background:new    ;}
	.st2{fill:#010101;}
</style>
<title>alliddmap</title>
<path class="st0" d="M381.1,971.5c-26.8,51.7-63,70.6-111.3,70c-25.1-0.3-50.3-0.5-75.2,2.3c-40.7,4.4-49,2.1-48-38.3
	c1.5-63.8-15.1-124.3-23.3-186.4c-3.9-29.7-11.1-57.6-28.6-82c-13.7-19.2-24.1-39-21.3-63.7C76.6,645,56,627.4,42,607.2
	c-38.2-55-36.8-95.4,6.5-143.9c56.1-63,65.2-134,33-210.2c-13.8-32.6-33.7-62.6-48.7-94.9c-19-40.7-13-61.3,26-83.3
	c30.4-17.1,63-30.2,102.8-48.9c-11.5,51.2-22.1,93.3-30.1,135.8c-9.5,50.4,0.5,60,51.6,53.8c20.8-2.6,41.3-7.3,62.1-9.2
	c37.9-3.3,58.1,6,64.9,43.2c22.9,126,82,236.5,141.6,347.1c16.3,30.2,12.9,56.3-10.7,79.9c-31,31.1-63.3,61-94,92.4
	c-47.1,48.3-54.9,102.1-26.5,154.5C333.4,947.2,355.9,957.8,381.1,971.5z"/>
<g class="st1">
	<path class="st2" d="M192.2,565.6h-9.8c-4.9-0.1-8.4-1.9-10.4-5.5c-2.9,3.7-6.8,5.5-11.5,5.5h-40.3c-7.4-0.3-11.2-3.1-11.2-8.4
		c0-4.3,1.4-8.3,4.3-12c2,1.9,4.3,2.9,6.8,3H151c2.4,0,4.1-0.8,5.1-2.3c1-1.5,1.4-4,1.4-7.6v-3.5c-0.1-5-2.4-9.3-7-12.8
		c-4.6-3.5-9.9-5.3-15.9-5.3c-4.4,0-8.4,0.9-12.1,2.7c-3.6-6.1-5.1-11.1-4.5-14.9c0.5-2.9,1.9-5,4.2-6.2c2.3-1.3,5.9-1.9,10.7-1.9
		c8,0,15.4,1.5,22.1,4.6c6.7,3.1,12,7.2,15.8,12.5c3.9,5.3,5.8,11,5.8,17.4v9c0.3,2.5,1,4.5,2.3,6c1.3,1.6,2.6,2.3,4,2.3h9.3V565.6z
		"/>
	<path class="st2" d="M245.2,565.6h-9.9c-4.5,0-7.8-1.6-9.9-4.7c-2.8,3.1-6.8,4.7-12.1,4.7H189v-17.4h13.3c2.4,0,4.1-0.8,5.1-2.3
		c1-1.5,1.4-4.1,1.4-7.6c0-4.8-0.1-17.4-0.3-37.8l-0.4-36.3c0-3,0.9-5.4,2.7-7.1c1.8-1.7,4.2-2.6,7.3-2.6c5.3,0,9.8,1.5,13.6,4.4
		c-1.7,2.7-2.6,7.9-2.6,15.6c0,4.9,0.1,26.5,0.3,64.8c0.2,2.6,0.9,4.8,2.2,6.4c1.3,1.7,2.7,2.5,4.2,2.5h9.3V565.6z"/>
	<path class="st2" d="M242,548.2h13.3c2.4,0,4.1-0.8,5.1-2.3c1-1.5,1.4-4.1,1.4-7.6l-0.4-37.8c-0.2-20.4-0.3-32.5-0.3-36.3
		c0-2.9,0.9-5.3,2.7-7.1c1.8-1.8,4.2-2.7,7.2-2.7c5.3,0,9.8,1.5,13.6,4.4c-1.6,2.7-2.4,7.9-2.4,15.6c0,9.5,0,21.9,0.1,37.3l0.2,36
		c0,11.9-5.4,17.8-16.2,17.8H242V548.2z"/>
	<path class="st2" d="M317.2,474.4c0,3.3,0.2,17,0.6,40.9l0.5,40.4c0,3-0.9,5.4-2.7,7.2s-4.2,2.7-7.2,2.7c-5.3,0-9.8-1.5-13.6-4.5
		c1.6-2.6,2.4-7.8,2.4-15.6l-0.5-40.9c-0.4-23.9-0.6-37.4-0.6-40.4c0-3,0.9-5.4,2.7-7.2s4.2-2.7,7.3-2.7c5.2,0,9.7,1.5,13.5,4.5
		C318,461.4,317.2,466.6,317.2,474.4z"/>
</g>
</svg>
