<?xml version="1.0" encoding="utf-8"?>
<!-- Generator: Adobe Illustrator 24.0.1, SVG Export Plug-In . SVG Version: 6.00 Build 0)  -->
<svg version="1.1" id="Layer_14" xmlns="http://www.w3.org/2000/svg" xmlns:xlink="http://www.w3.org/1999/xlink" x="0px" y="0px"
	 viewBox="0 0 1087 1062.7" style="enable-background:new 0 0 1087 1062.7;" xml:space="preserve">
<style type="text/css">
	.st0{fill:#FFFFFF;stroke:#010101;stroke-width:24.71;stroke-miterlimit:10;}
	.st1{enable-background:new    ;}
	.st2{fill:#010101;}
</style>
<title>alqudsmap</title>
<path class="st0" d="M706.3,280.3c35.8,144.9,155.3,7.9,159.3-72.5c-48.9-136,90.4-201.6,188.8-195c21.1,121.1-6.5,258.7,18.9,390.7
	c-292.8,221.7-187.6,422.1-304,641.7c-184.9-115,93.7-178.7-217.8-261.6c-32.9-20.8-8.8-71.6-53.5-88.5
	c-29.2,0.2-43.2,75.7-78.8,26.7c-40.2-97.5-49-106-144.2-113.2C171.4,368.8,98.3,663.9,25.2,462.2c-28.7-60.9-27.1-4.2,196.3-96.6
	C274.6,335,285.4,240,361.7,255c111.6,42.8,104.5,102.5,149.3-28.8c52.6,26,90.4,29,160.2,18.9C683.9,254.3,702.5,253.9,706.3,280.3
	z"/>
<g class="st1">
	<path class="st2" d="M547,500.5c-1.5,2.5-2.2,8-2.2,16.6l0.1,13.7c0,2.2,0,4.2,0,6.2c0,2,0,3.5,0.1,4.5c0,1,0,1.6,0,1.8
		c0,10.9-5,16.3-14.8,16.3c-9.4,0-16-2.6-19.9-7.9c-2.2,5.3-6.6,7.9-13.3,7.9c-8.5,0-14.6-2.1-18.4-6.2c-0.3,10.3-3.1,18.7-8.5,24.9
		s-12.3,9.4-20.7,9.4c-6.5,0-12.3-1.7-17.7-5.2c-5.3-3.5-9.5-8.2-12.4-14.1c-3-5.9-4.5-12.4-4.5-19.5c0-9.1,2.5-13.7,7.4-13.7
		c2.5,0,6,1.4,10.6,4.1c-1.7,3-2.5,6.2-2.5,9.6c0,5.2,1.5,9.5,4.6,12.7c3.1,3.3,7.1,4.9,11.9,4.9c8.7,0,13-7.4,13-22.2
		c0-1-0.1-6.4-0.4-16c-0.2-9.6-0.4-14.5-0.4-14.6c0-2.8,0.8-4.9,2.4-6.5c1.6-1.6,3.8-2.4,6.6-2.4c4.9,0,9,1.4,12.3,4.1
		c-1.5,2.4-2.2,7.1-2.2,14.2c0,6.9,0,11.6,0.1,14.1l0.1-0.4c0,2.8,0.7,4.5,2.1,5.4c1.4,0.8,3.6,1.2,6.5,1.2c2.2,0,3.7-0.7,4.5-2.1
		c0.9-1.4,1.3-3.7,1.3-6.9c0-2.8-0.1-7.3-0.3-13.5c-0.2-7.7-0.4-11.8-0.4-12.1c0-5.9,2.6-8.8,7.9-8.8c6.1,0,10.6,1.3,13.6,4
		c-1.5,2.5-2.2,8-2.2,16.7c0,4.3,0,9.8,0.1,16.3v-0.1c0,2.8,0.7,4.5,2.1,5.4c1.4,0.8,3.6,1.2,6.5,1.2c2.2,0,3.7-0.7,4.6-2.1
		c0.9-1.4,1.3-3.7,1.3-6.9c0-2.9-0.1-8-0.3-15.4c-0.2-9.1-0.4-13.8-0.4-14c0-5.9,2.6-8.9,7.8-8.9C539.5,496.4,544,497.8,547,500.5z"
		/>
	<path class="st2" d="M629.4,559.6h-9c-4.5,0-7.7-1.7-9.6-5.1c-2.7,3.4-6.2,5.1-10.6,5.1h-37c-6.8-0.3-10.3-2.9-10.3-7.7
		c0-3.9,1.3-7.6,4-11c1.9,1.7,4,2.6,6.3,2.7h28.3c2.2,0,3.8-0.7,4.7-2.1c0.9-1.4,1.3-3.7,1.3-7v-3.2c-0.1-4.6-2.2-8.6-6.4-11.8
		c-4.2-3.2-9.1-4.8-14.6-4.8c-4,0-7.7,0.8-11.1,2.5c-3.3-5.6-4.7-10.2-4.1-13.7c0.4-2.7,1.7-4.6,3.8-5.7c2.1-1.2,5.4-1.7,9.8-1.7
		c7.4,0,14.2,1.4,20.3,4.2c6.2,2.8,11,6.6,14.6,11.5c3.5,4.8,5.3,10.1,5.3,16v8.3c0.2,2.3,0.9,4.1,2.1,5.5c1.2,1.4,2.4,2.1,3.7,2.1
		h8.6V559.6z"/>
	<path class="st2" d="M709.7,559.6h-9.1c-4.2,0-7.2-1.4-9-4.3c-2.6,2.9-6.3,4.3-11.2,4.3h-53.9v-16h18c-2.6-4.3-3.9-8.8-3.9-13.3
		c0-5,1-9.6,3.1-14c2.1-4.4,5-8.2,8.8-11.4s8.4-5.7,14-7.4c5.6-1.7,11.7-2.5,18.4-2.2c4.8,0,8.9,1.4,12.4,4.1
		c-1.5,2.4-2.3,7.2-2.3,14.3l0.2,19.9c0,0.1,0.1,0.4,0.1,0.8c0,2.7,0.6,4.8,1.8,6.5c1.2,1.7,2.6,2.6,4.1,2.6h8.6V559.6z
		 M661.9,486.7c-2.4,0-4.3-0.7-5.7-2.1c-1.5-1.4-2.2-3.3-2.2-5.6c0-2.6,0.9-4.7,2.7-6.5c1.8-1.8,4-2.7,6.7-2.7
		c2.4,0,4.3,0.7,5.9,2.2c1.6,1.5,2.3,3.3,2.3,5.5c0,2.6-0.9,4.8-2.8,6.6C667,485.8,664.7,486.7,661.9,486.7z M670.4,543.7
		c2.3,0,3.9-0.5,4.7-1.6c0.8-1.1,1.3-3.1,1.3-6.2c0-0.6-0.2-8.9-0.7-24.9c-4.8,1.2-9,3.6-12.6,7.3c-3.5,3.7-5.3,7.6-5.3,11.8
		c0,4.7,1,8.2,3,10.3C662.8,542.6,666,543.7,670.4,543.7z M684.1,486.7c-2.4,0-4.3-0.7-5.8-2.1c-1.5-1.4-2.2-3.3-2.2-5.6
		c0-2.6,0.9-4.7,2.7-6.5c1.8-1.8,4.1-2.7,6.7-2.7c2.4,0,4.3,0.7,5.9,2.2c1.6,1.5,2.3,3.3,2.3,5.5c0,2.6-0.9,4.8-2.8,6.6
		C689.1,485.8,686.8,486.7,684.1,486.7z"/>
	<path class="st2" d="M706.7,543.7H719c2.2,0,3.8-0.7,4.7-2.1c0.9-1.4,1.3-3.7,1.3-7l-0.4-34.8c-0.2-18.8-0.3-29.9-0.3-33.4
		c0-2.7,0.8-4.9,2.4-6.5c1.6-1.6,3.8-2.4,6.6-2.4c4.9,0,9,1.4,12.5,4.1c-1.5,2.5-2.2,7.2-2.2,14.3c0,8.7,0,20.1,0.1,34.3l0.1,33.1
		c0,10.9-5,16.4-14.9,16.4h-22.2V543.7z"/>
	<path class="st2" d="M775.9,475.8c0,3.1,0.2,15.6,0.5,37.6l0.4,37.2c0,2.8-0.8,4.9-2.4,6.6c-1.6,1.6-3.8,2.4-6.6,2.4
		c-4.8,0-9-1.4-12.5-4.1c1.5-2.4,2.2-7.2,2.2-14.3l-0.4-37.6c-0.3-22-0.5-34.4-0.5-37.2c0-2.8,0.8-4.9,2.4-6.6
		c1.6-1.6,3.9-2.4,6.7-2.4c4.8,0,9,1.4,12.4,4.1C776.6,463.8,775.9,468.6,775.9,475.8z"/>
</g>
</svg>
