<?xml version="1.0" encoding="utf-8"?>
<!-- Generator: Adobe Illustrator 24.0.1, SVG Export Plug-In . SVG Version: 6.00 Build 0)  -->
<svg version="1.1" id="Layer_13" xmlns="http://www.w3.org/2000/svg" xmlns:xlink="http://www.w3.org/1999/xlink" x="0px" y="0px"
	 viewBox="0 0 893.1 1066.2" style="enable-background:new 0 0 893.1 1066.2;" xml:space="preserve">
<style type="text/css">
	.st0{fill:#FFFFFF;stroke:#010101;stroke-width:28.89;stroke-miterlimit:10;}
	.st1{enable-background:new    ;}
	.st2{fill:#010101;}
</style>
<title>gazamap</title>
<path class="st0" d="M720,78.3c55.7,113.8,30.4,42.1,126.9,88.2c-50.2,179.7,113.3,32.8-25.5,237.8c131.5,176.6-60,47.9-140.9,117
	c-78.1,381.9-29.9,118.9-235.7,261.5c-34.5,7.2-42.3-36.5-94.3-39.4c-33.2-8.9-155.6,94.3-139.3,35.3
	C702.6,168.6,606.6-124.6,720,78.3z"/>
<path class="st0" d="M210.4,834.2c-88.9,132.6,190,45.3,40.1,117.7c-66.8-22.7-82.6,71.1-137.6,93.1
	C-177.6,1112.5,273.7,647.7,210.4,834.2z"/>
<g class="st1">
	<path class="st2" d="M525,457.7c-1.4,2.1-2.1,6.2-2.1,12.2l0.1,14.1c0,2.3,0,4.5,0,6.6c0,2.1,0,3.7,0.1,4.7c0,1,0,1.6,0,1.8
		c0,4.2-1.6,7.6-4.8,10.1c-3.2,2.5-7.2,3.8-12,3.8h-6.3c-8.2,0-14.7-2.4-19.5-7.3c-4.7-4.9-7-10.8-6.7-17.7c0.1-4.5,1.1-8.9,3-13.1
		c1.9-4.3,4.5-7.7,7.7-10.4c3.2-2.7,7.4-4.8,12.6-6.3s10.7-2.2,16.4-2C518.2,454.2,521.9,455.4,525,457.7z M494.3,445.5
		c-2.1,0-3.8-0.7-5.2-2c-1.3-1.3-2-3-2-5.1c0-2.3,0.8-4.3,2.4-5.9c1.6-1.6,3.6-2.4,6-2.4c2.1,0,3.9,0.7,5.3,2c1.4,1.3,2.1,3,2.1,4.9
		c0,2.3-0.8,4.3-2.5,6C498.9,444.7,496.8,445.5,494.3,445.5z M500.9,496.7c1.9,0,3.3-0.6,4.1-1.7c0.9-1.1,1.3-2.5,1.3-4.3l-0.6-24.2
		c-4.1,1-7.8,3.5-11.1,7.5c-3.3,4-5,8-5,11.8C489.6,493.1,493.4,496.7,500.9,496.7z M514.3,445.5c-2.1,0-3.8-0.7-5.2-2
		c-1.3-1.3-2-3-2-5.1c0-2.3,0.8-4.3,2.4-5.9c1.6-1.6,3.6-2.4,6-2.4c2.1,0,3.9,0.7,5.3,2c1.4,1.3,2.1,3,2.1,4.9c0,2.3-0.8,4.3-2.5,6
		C518.9,444.7,516.8,445.5,514.3,445.5z"/>
	<path class="st2" d="M584.3,511h-13.2c-2.8,0-5-0.5-6.7-1.6c0,2.3,0,4.4-0.1,6.1c-0.1,1.7-0.3,3.6-0.7,5.6c-0.4,2-0.8,3.7-1.5,5.1
		c-0.6,1.4-1.5,2.8-2.6,4.2c-1.1,1.4-2.4,2.5-3.9,3.3c-1.5,0.8-3.4,1.5-5.7,2c-2.2,0.5-4.8,0.8-7.6,0.8c-3.3,0-6.2-0.8-8.5-2.5
		c-2.4-1.7-3.6-3.7-3.6-5.9c0-2.3,1.2-5,3.6-8.1c1.8,1.6,3.7,2.4,5.9,2.4c2.9,0,5-1.2,6.3-3.6s1.9-6.4,1.9-11.9c0-1.9,0-4.3-0.1-7.4
		c0-0.3,0.1-1.9,0.1-5c0-1.8-0.1-7.2-0.4-16.3c-0.2-8.1-0.3-13.1-0.3-15.1c0-2.5,0.7-4.6,2.2-6.2c1.5-1.6,3.5-2.4,5.9-2.4
		c4.6,0,8.4,1.4,11.2,4.2c-1.4,2.2-2,6.4-2,12.8c0,11.4,0,19.8,0.1,25.1h19.8V511z M555.9,446.3c-2.1,0-3.8-0.6-5.1-2
		c-1.3-1.3-2-3-2-5c0-2.3,0.8-4.2,2.4-5.8c1.6-1.6,3.6-2.4,6-2.4c2.1,0,3.9,0.7,5.3,2s2.1,3,2.1,4.9c0,2.3-0.8,4.3-2.5,5.9
		C560.5,445.5,558.4,446.3,555.9,446.3z"/>
	<path class="st2" d="M625.4,496.7h20c6.2,0.4,9.3,2.7,9.3,7.1c0,3.4-1.2,6.6-3.6,9.7c-1.7-1.5-3.6-2.4-5.7-2.4h-63.8v-14.3h17.9
		c-3.6-5.1-5.4-10.7-5.4-16.8c0-7.8,2.9-14.2,8.7-19c5.8-4.8,13.5-7.2,23.2-7.2c9.1,0,16,2.3,20.6,6.9c1,1,1.8,2.5,2.4,4.6
		c0.6,2.1,0.9,4.2,0.8,6.3c-0.1,2.2-0.8,4-2.3,5.6c-1.5,1.6-3.6,2.4-6.4,2.4c-4.5,0-8.2-0.9-10.8-2.7c1,0,1.8-0.7,2.3-2.2
		c0.6-1.5,0.7-3.1,0.4-5v-0.2c-2.2-0.7-4.3-1.1-6.3-1.1c-4,0-7.3,1.3-9.9,3.9c-2.6,2.6-3.8,5.9-3.8,10c0,3.8,1.1,7,3.4,9.6
		C618.7,494.4,621.7,496.1,625.4,496.7z M620.9,446.3c-2.2,0-3.9-0.7-5.2-2c-1.3-1.3-2-3-2-5.1c0-2.3,0.8-4.2,2.4-5.8
		c1.6-1.6,3.6-2.4,6-2.4c2.1,0,3.9,0.7,5.3,2c1.4,1.3,2.1,3,2.1,4.9c0,2.3-0.8,4.3-2.5,5.9C625.3,445.5,623.3,446.3,620.9,446.3z"/>
</g>
</svg>
