<?xml version="1.0" encoding="utf-8"?>
<!-- Generator: Adobe Illustrator 24.0.1, SVG Export Plug-In . SVG Version: 6.00 Build 0)  -->
<svg version="1.1" id="Layer_1" xmlns="http://www.w3.org/2000/svg" xmlns:xlink="http://www.w3.org/1999/xlink" x="0px" y="0px"
	 viewBox="0 0 1184.3 1071.7" style="enable-background:new 0 0 1184.3 1071.7;" xml:space="preserve">
<style type="text/css">
	.st0{fill:#FFFFFF;stroke:#010101;stroke-width:41.07;stroke-miterlimit:10;}
	.st1{enable-background:new    ;}
	.st2{fill:#010101;}
</style>
<title>jeninmap</title>
<path class="st0" d="M62.1,482.6c2.6-3.5,5.7-3.9,9.1-1.3c16.7-11.2,39.6,4,55-13c53.9-39.1,57.5-51,17.5-109.6
	c-34.7-50.9-47.5-100.6-12.5-155.8c19.6-31,45.8-53.4,83.6-52.5c58.2,1.3,96.1-20.1,120.8-76.1c25-56.7,99.7-72.1,148-28.6
	c63.3,56.9,126,54.6,196.1,20.6c29-14.2,59.1-26.1,89.9-35.7c57.7-17.7,84.9-0.6,98.4,57.6c10.4,44.7,9.4,90.1,4.7,135.1
	c-6,56.9,16,95.3,67.6,119c63.2,29,119.4,68.7,170.3,115.8c58.4,54,70.3,111.4,28,178.8c-41.1,65.4-93.9,123.2-131.1,191.5
	c-7.1,13.1-17.8,17.1-32.4,13.4c-66.2-16.8-110.9,19.1-152.5,62.6c-28.6,30-45.7,67.7-68.1,101.8c-33.4,51.1-47,57-99.5,26.2
	c-58.2-34.1-119.8-45.3-185.5-45.1c-32.2,0.1-64.7-1.6-96.6-5.9c-57.4-7.9-102-34.1-117.6-94.7c-4-15.6-13.9-26.2-25.1-36.5
	c-50.3-46.4-63.1-106.3-57.7-171c2.5-30.5,5.5-59.9-8.6-88.3c-1.7-8.1-5.7-13.9-14.5-15.3l1.3,1.3c-3.2-12.1-17.5-8.5-23.6-16.5
	l-0.2-0.1c-14.9-13.9-34.7-17.4-52.6-25.1l0.4,0.2c-7-8.8-18.7-7.1-27.4-12.2l1,0.5c-6.4-10.4-18.3-8.6-27.6-12.5
	C17.1,476.4,52.7,498.5,62.1,482.6z"/>
<g class="st1">
	<path class="st2" d="M511.1,558.8h-18.7c-6.1,0-10.4-1.9-12.8-5.6c-2.4,9.9-7.1,17.8-14.2,23.6c-7.1,5.8-15.3,8.7-24.7,8.7
		c-8.6,0-16.4-1.2-23.5-3.7c-7.1-2.4-13.2-6.1-18.5-11c-5.3-4.9-9.3-11.2-12.2-19c-2.9-7.8-4.3-16.8-4.3-27c0-6,0.8-10.4,2.3-13.2
		s3.9-4.2,7.2-4.2c3.3,0,7.8,1.8,13.5,5.4c-2.1,3.7-3.2,7.7-3.2,12.1c0,13.7,4,23.4,12.1,29.1c2.2,1.5,4.7,2.7,7.6,3.7
		c2.9,0.9,5.9,1.5,9.2,1.7c3.2,0.2,6.4-0.2,9.4-1.2c3.1-1,5.8-2.6,8.3-4.6c2.5-2,4.5-5,6-9c1.5-3.9,2.3-8.6,2.3-13.9
		c0-1.3-0.2-8.4-0.5-21.2c-0.3-10.3-0.4-16.8-0.4-19.6c0-3.5,1-6.3,3.1-8.3c2-2,4.9-3.1,8.5-3.1c6.2,0,11.5,1.7,15.9,5.2
		c-1.9,3.1-2.9,9.1-2.9,18.1c0,5.2,0,11,0.1,17.5l0.2,19.2h30.1V558.8z M423.4,489.3c-3,0-5.5-0.9-7.3-2.8c-1.9-1.8-2.8-4.2-2.8-7.2
		c0-3.2,1.2-5.9,3.5-8.2c2.3-2.3,5.2-3.4,8.6-3.4c3,0,5.5,0.9,7.5,2.8c2,1.8,3,4.2,3,6.9c0,3.3-1.2,6.1-3.5,8.4
		C429.9,488.2,426.9,489.3,423.4,489.3z"/>
	<path class="st2" d="M588.7,558.8H562c-5.6,0-9.6-1.8-12-5.4c-3.3,3.6-8.1,5.4-14.3,5.4h-28.3v-20.3H523c2.8,0,4.8-0.9,5.9-2.7
		c1.1-1.8,1.7-4.8,1.7-9c0-1.4-0.2-7.9-0.5-19.5c-0.3-9.3-0.4-15.2-0.4-17.8c0-3.5,1-6.3,3.1-8.3c2-2,4.8-3.1,8.4-3.1
		c6.1,0,11.4,1.8,15.9,5.3c-1.9,3.1-2.8,9.1-2.8,18.1l0.3,26c0.1,3.2,0.9,5.8,2.4,7.9c1.5,2,3.2,3.1,5,3.1h26.7V558.8z M530.4,568.8
		c3,0,5.5,0.9,7.5,2.8c2,1.8,3,4.2,3,7c0,3.4-1.2,6.2-3.5,8.5s-5.3,3.4-8.9,3.4c-2.9,0-5.4-0.9-7.2-2.8c-1.9-1.8-2.8-4.2-2.8-7.2
		c0-3.3,1.2-6,3.5-8.3C524.2,569.9,527,568.8,530.4,568.8z M558.6,568.8c3.1,0,5.7,0.9,7.6,2.8c1.9,1.8,2.9,4.2,2.9,7
		c0,3.4-1.2,6.2-3.5,8.5s-5.3,3.4-8.8,3.4c-3,0-5.5-0.9-7.3-2.8c-1.9-1.8-2.8-4.2-2.8-7.2c0-3.3,1.2-6,3.5-8.3
		C552.5,569.9,555.3,568.8,558.6,568.8z"/>
	<path class="st2" d="M650.5,558.8h-10.9c-5.6,0-9.7-1.8-12.1-5.4c-3.2,3.6-7.9,5.4-14.2,5.4H585v-20.3h15.6c2.8-0.1,4.8-1,5.9-2.7
		c1.1-1.8,1.7-4.7,1.7-8.8c0-1.4-0.2-8-0.5-19.6c-0.3-11.6-0.5-17.5-0.5-17.8c0-3.4,1-6.2,3.1-8.3c2.1-2.1,4.9-3.1,8.5-3.1
		c6.1,0,11.4,1.7,15.8,5.2c-1.9,3.1-2.8,9.2-2.8,18.2l0.2,25.9c0.1,3.3,1,5.9,2.5,7.9c1.5,2,3.2,3,5,3.1h10.9V558.8z M619.9,466.8
		c-3.1,0-5.5-0.9-7.4-2.8c-1.8-1.8-2.8-4.2-2.8-7.2c0-3.3,1.2-6,3.5-8.3c2.3-2.3,5.2-3.4,8.6-3.4c3,0,5.5,0.9,7.4,2.8
		c1.9,1.8,2.9,4.2,2.9,7c0,3.4-1.2,6.2-3.5,8.5C626.4,465.7,623.4,466.8,619.9,466.8z"/>
	<path class="st2" d="M758.1,529.1c0.8,9,0,15.7-2.4,19.9c-2.3,4.2-5,6.9-8.2,8c-3.2,1.2-8.9,1.7-17.1,1.7h-83.7v-20.3h70.1
		c-6.5-2.3-16.4-7.7-29.6-16.3c-13.2-8.6-21-14.9-23.2-19c-1.6-3.3-1.9-6.7-0.8-10.1c1.3-3.8,3.8-7.1,7.3-9.9
		c3.6-2.8,7.5-4.3,11.7-4.5c0,3.8,3,8.8,9,15c6,6.2,13.7,12.4,22.9,18.6c9.4,6.2,18.1,10.9,26.2,14.1
		C748.6,529.7,754.4,530.6,758.1,529.1z M689.7,568.8c3,0,5.5,0.9,7.5,2.8c2,1.9,3,4.2,3,7c0,3.3-1.2,6.1-3.5,8.4
		c-2.4,2.3-5.3,3.4-8.9,3.4c-3,0-5.4-0.9-7.3-2.7c-1.8-1.8-2.8-4.2-2.8-7.1c0-3.3,1.2-6,3.5-8.3
		C683.6,569.9,686.4,568.8,689.7,568.8z"/>
</g>
</svg>
