<?xml version="1.0" encoding="utf-8"?>
<!-- Generator: Adobe Illustrator 24.0.1, SVG Export Plug-In . SVG Version: 6.00 Build 0)  -->
<svg version="1.1" id="Layer_15" xmlns="http://www.w3.org/2000/svg" xmlns:xlink="http://www.w3.org/1999/xlink" x="0px" y="0px"
	 viewBox="0 0 1165.3 854.3" style="enable-background:new 0 0 1165.3 854.3;" xml:space="preserve">
<style type="text/css">
	.st0{fill:#FFFFFF;stroke:#010101;stroke-width:16.75;stroke-miterlimit:10;}
	.st1{enable-background:new    ;}
	.st2{fill:#010101;}
</style>
<title>ramallahmap</title>
<path class="st0" d="M867.7,713.7c-29.3-33.9-47.8-49.9-71.4-44.6c-1.9,0.4-3.7,1.2-5.3,2.3c-145.6,97.1-328.8-166.8-319.7,97
	c0,0.8,0,1.6-0.1,2.4c-2,18.5-0.4,29.3-25.2,19.6c-1.3-0.5-2.5-1.2-3.6-2c-310.4-223.3-343.1,65.5-429-36.1
	c-1.6-1.9-2.7-4.1-3.3-6.5c-20.8-87.8,161.4-171.5,164-236.3c0-1,0-2-0.2-2.9c-22.7-138-272.7-352.1-43.3-432.4
	c3.1-1.1,6.5-1.2,9.7-0.4c45.4,12.3,87.8,29.3,129.4,1C485.5-83.7,410,97.3,790.6,53.6c1.9-0.2,3.9-0.1,5.8,0.4
	c96.1,22.9,62.4,189.3,158.3,192.6c84,2.7,101-86.7,153.5,33.4c0.3,0.8,0.7,1.5,1.2,2.2c98,155,15.2,98.6,10.1,206.2
	c-0.1,2,0.2,3.9,0.8,5.8c50.6,156.7,32.1,303-107.2,350.8c-5.2,1.8-11,0.9-15.4-2.5C971.8,822.9,911.9,764.1,867.7,713.7z"/>
<g class="st1">
	<path class="st2" d="M487.3,447.7h-6.4c-3.7-0.1-6.2-1.3-7.5-3.8c-2.6,2.5-6.2,3.8-10.7,3.8h-5.3c-6.9,0-12.3-2-16.2-6.1
		c-3.9-4.1-5.8-9-5.6-14.7c0.1-3.8,0.9-7.4,2.5-11c1.6-3.5,3.7-6.4,6.5-8.6c2.6-2.2,6.1-4,10.5-5.2c4.3-1.2,8.9-1.8,13.7-1.7
		c3.6,0,6.7,1,9.3,2.9c-1.1,1.8-1.7,5.2-1.7,10.2l0.1,14.9c0,0.1,0.1,0.3,0.1,0.5c0,2,0.5,3.7,1.4,5c0.9,1.3,1.9,1.9,3,2h6.4V447.7z
		 M457.9,435.8c1.5,0,2.7-0.5,3.4-1.4c0.7-0.9,1.1-2.1,1.1-3.6l-0.5-20.1c-3.4,0.8-6.5,2.9-9.2,6.2c-2.8,3.4-4.2,6.6-4.2,9.8
		C448.5,432.8,451.6,435.8,457.9,435.8z"/>
	<path class="st2" d="M523.6,447.7h-6.8c-3.1,0-5.3-1.1-6.8-3.2c-1.9,2.1-4.7,3.2-8.3,3.2h-16.6v-11.9h9.1c1.7,0,2.8-0.5,3.5-1.6
		s1-2.8,1-5.2c0-3.3-0.1-11.9-0.2-25.9l-0.3-24.9c0-2.1,0.6-3.7,1.8-4.9c1.2-1.2,2.9-1.8,5-1.8c3.6,0,6.7,1,9.3,3
		c-1.2,1.8-1.8,5.4-1.8,10.7c0,3.3,0.1,18.1,0.2,44.4c0.1,1.8,0.6,3.3,1.5,4.4c0.9,1.1,1.9,1.7,2.9,1.7h6.4V447.7z"/>
	<path class="st2" d="M521.4,435.8h9.1c1.7,0,2.8-0.5,3.5-1.6s1-2.8,1-5.2l-0.3-25.9c-0.1-14-0.2-22.3-0.2-24.9c0-2,0.6-3.6,1.8-4.8
		c1.2-1.2,2.9-1.8,5-1.8c3.6,0,6.7,1,9.3,3c-1.1,1.8-1.7,5.4-1.7,10.7c0,6.5,0,15,0.1,25.5l0.1,24.7c0,8.1-3.7,12.2-11.1,12.2h-16.6
		V435.8z"/>
	<path class="st2" d="M572.9,385.2c0,2.3,0.1,11.6,0.4,28l0.3,27.7c0,2.1-0.6,3.7-1.8,4.9c-1.2,1.2-2.9,1.8-5,1.8
		c-3.6,0-6.7-1-9.3-3.1c1.1-1.8,1.7-5.4,1.7-10.7l-0.3-28c-0.3-16.4-0.4-25.6-0.4-27.7c0-2.1,0.6-3.7,1.8-4.9c1.2-1.2,2.9-1.8,5-1.8
		c3.6,0,6.7,1,9.2,3.1C573.5,376.3,572.9,379.8,572.9,385.2z"/>
	<path class="st2" d="M671.3,427c0.1,3.7-0.6,7.1-2.2,10.2c-1.6,3.1-4.1,5.6-7.5,7.6c-3.4,2-7.4,2.9-12,2.9h-8c-3.7,0-6.4-1-8.3-3
		c-1.4,2-3.8,3-7,3H623c-1.6,0-2.8,0.5-3.4,1.6c-0.7,1-1,2.8-1,5.2c0,0.8,0.1,4.7,0.3,11.6c0.2,6.9,0.3,10.4,0.3,10.6
		c0,2-0.6,3.6-1.8,4.8c-1.2,1.2-2.9,1.8-5,1.8c-3.7,0-6.8-1-9.2-3c1.1-1.8,1.7-5.4,1.7-10.6l-0.1-11.2c0-1.8,0-3.5,0-5.2
		s0-2.9-0.1-3.7c0-0.8,0-1.3,0-1.4c0-8.1,3.7-12.1,11.1-12.2h10.6c1,0,1.9-0.5,2.8-1.5c1-1.3,1.6-2.9,1.6-4.9l0.1-15.7
		c0-5-0.6-8.4-1.7-10.1c2.6-1.9,5.7-2.9,9.2-2.9c10-0.4,17.9,1.8,23.8,6.6C667.9,412,671,418.5,671.3,427z M649,435.8
		c6.2,0,9.4-3,9.4-8.9c0-3.2-1.4-6.4-4.2-9.8c-2.8-3.4-5.8-5.4-9.2-6.2l-0.4,20c0,1.4,0.3,2.6,1,3.5
		C646.3,435.3,647.5,435.8,649,435.8z"/>
	<path class="st2" d="M693.6,385.2c0,2.3,0.1,11.6,0.4,28l0.3,27.7c0,2.1-0.6,3.7-1.8,4.9c-1.2,1.2-2.9,1.8-5,1.8
		c-3.6,0-6.7-1-9.3-3.1c1.1-1.8,1.7-5.4,1.7-10.7l-0.3-28c-0.3-16.4-0.4-25.6-0.4-27.7c0-2.1,0.6-3.7,1.8-4.9s2.9-1.8,5-1.8
		c3.6,0,6.7,1,9.2,3.1C694.2,376.3,693.6,379.8,693.6,385.2z"/>
	<path class="st2" d="M728,414.8c0,13.2,0,21,0.1,23.2c-0.1,2.8-0.1,5.1-0.2,6.8c-0.1,1.7-0.2,3.6-0.3,5.7c-0.1,2.1-0.3,3.7-0.5,4.9
		c-0.2,1.2-0.5,2.5-0.8,3.9c-0.4,1.4-0.8,2.5-1.2,3.2s-1,1.6-1.7,2.4c-0.7,0.8-1.5,1.5-2.3,1.9c-0.8,0.4-1.8,0.8-3,1.2
		c-1.2,0.4-2.4,0.6-3.7,0.7c-1.3,0.1-2.9,0.2-4.6,0.2c-2.8,0-5.1-0.7-7.1-2.1c-2-1.4-3-3.1-3-4.9c0-1.9,1-4.2,2.9-6.8
		c1.5,1.4,3.1,2,4.9,2c2.4,0,4.2-1,5.2-3s1.6-5.3,1.6-9.9c0-1.5,0-3.6-0.1-6.2v-4.1c0-2.3-0.1-6.8-0.2-13.5
		c-0.2-8.4-0.3-12.6-0.3-12.6c0-2.1,0.6-3.8,1.8-5.1s2.9-2,4.9-2c3.9,0,7,1.2,9.3,3.5C728.6,406,728,409.6,728,414.8z"/>
</g>
</svg>
