<?xml version="1.0" encoding="utf-8"?>
<!-- Generator: Adobe Illustrator 24.0.1, SVG Export Plug-In . SVG Version: 6.00 Build 0)  -->
<svg version="1.1" id="Layer_7" xmlns="http://www.w3.org/2000/svg" xmlns:xlink="http://www.w3.org/1999/xlink" x="0px" y="0px"
	 viewBox="0 0 823.4 1063.1" style="enable-background:new 0 0 823.4 1063.1;" xml:space="preserve">
<style type="text/css">
	.st0{fill:#FFFFFF;stroke:#1E1E1C;stroke-width:35.01;stroke-miterlimit:10;}
	.st1{enable-background:new    ;}
	.st2{fill:#010101;}
</style>
<title>safadmap</title>
<path class="st0" d="M186.8,587.8c147.3-116.2,63.6-53.5,190.1-89c111.3-89.4,131.4-242.6,132.4-396.3c7.1-4.6,6.6-7.4,38.9-46.8
	c3-2.2,4.8-4.5,9.8-18.7c8.6-0.3-5-18.6,17.8-19.6h2.1C746.2,194.1,814,57.7,805.2,122.7c-128.5,249.8-64.2,701.1-142.6,860.4
	c-148.9,111-119.9,12.6-180.1,2.5c-501.5,200.5-161.3-159-288-252.2l-1.5-1.6c10.3-24.3-30.1-23.6-70-14.6l-9.9,2.7
	c-16.3,6-16.1,1.4-29.4,14.6c-54.9,7.6-80.5-30.3-58.3-59.6l-3.9,6.1c3.4-3.5,4.1-5.8,10.8-17.1c13.5-12.5,26.5-25.6,39.1-39
	C97.2,618.3,151,606,186.8,587.8z"/>
<g class="st1">
	<path class="st2" d="M397.9,670.8h-9.8c-4.9-0.1-8.4-1.9-10.4-5.5c-2.9,3.7-6.8,5.5-11.5,5.5h-40.2c-7.4-0.3-11.1-3.1-11.1-8.3
		c0-4.3,1.4-8.3,4.3-11.9c2,1.9,4.3,2.9,6.8,3h30.7c2.4,0,4.1-0.7,5-2.2c1-1.5,1.4-4,1.4-7.6v-3.4c-0.1-5-2.4-9.3-7-12.8
		c-4.5-3.5-9.8-5.3-15.9-5.3c-4.4,0-8.4,0.9-12,2.7c-3.6-6.1-5.1-11.1-4.5-14.9c0.5-2.9,1.9-5,4.2-6.2c2.3-1.3,5.9-1.9,10.7-1.9
		c8,0,15.4,1.5,22,4.6c6.7,3,11.9,7.2,15.8,12.4c3.8,5.2,5.8,11,5.8,17.3v9c0.3,2.5,1,4.5,2.3,6c1.3,1.6,2.6,2.3,4,2.3h9.3V670.8z"
		/>
	<path class="st2" d="M485.1,670.8h-9.4c-4.8-0.1-8.3-1.6-10.3-4.6c-2.8,3-6.8,4.6-12.2,4.6h-58.5v-17.3h19.5
		c-2.8-4.7-4.2-9.5-4.2-14.4c0-10.8,4.4-20,13.1-27.5c3.9-3.4,9-6.1,15.3-8c6.3-1.9,12.9-2.7,19.8-2.4c5.3,0,9.8,1.5,13.5,4.4
		c-1.6,2.7-2.4,7.8-2.4,15.5l0.2,21.6c0.1,0.2,0.1,0.5,0.1,0.9c0,3.1,0.8,5.6,2.3,7.5c1.2,1.7,2.5,2.5,4.1,2.5h9.4V670.8z
		 M442.4,653.4c2.6,0,4.3-0.6,5.2-1.7s1.3-3.4,1.3-6.7c0-2-0.1-6-0.2-12.2c-0.3-9.4-0.4-14.3-0.4-14.8c-5.3,1.3-9.9,3.9-13.7,8
		s-5.8,8.3-5.8,12.9c0,5,1.1,8.7,3.2,11.1C434.2,652.3,437.6,653.4,442.4,653.4z M445.1,592.3c-2.6,0-4.7-0.8-6.3-2.3
		c-1.6-1.5-2.4-3.6-2.4-6.1c0-2.8,1-5.1,3-7.1c2-1.9,4.4-2.9,7.2-2.9c2.6,0,4.7,0.8,6.4,2.4c1.7,1.6,2.6,3.6,2.6,5.9
		c0,2.8-1,5.2-3,7.1C450.5,591.3,448,592.3,445.1,592.3z"/>
	<path class="st2" d="M579.3,609.6c8,7.1,12,16.8,12,29.3c0,6-1.9,11.5-5.6,16.4c-3.7,4.9-8.9,8.7-15.4,11.4c-6.5,2.7-13.7,4-21.7,4
		h-66.8v-17.3h15.2c0-3.7-0.1-10.2-0.3-19.3c-0.3-11-0.4-16.5-0.4-16.7c0-2.9,0.9-5.3,2.6-7c1.8-1.7,4.2-2.6,7.2-2.6
		c5.3,0,9.8,1.5,13.5,4.4c-1,1.6-1.8,5.5-2.2,11.7c2.8-5,6.5-9.4,11-13.1c5.2-4.3,10.7-7,16.5-8.1c5.9-1.2,12.2-1.1,18.8,0.2
		C570.5,604.2,575.7,606.4,579.3,609.6z M568.5,640.1c0.4-3.4-0.5-6.5-2.8-9.5c-2.3-2.9-5.3-5.1-9.1-6.5c-3.8-1.4-7.7-1.7-11.5-1
		c-4,0.7-7.9,2.8-11.9,6.2c-4,3.4-7.3,7-9.8,10.9s-4.5,7.6-5.9,11.2v1.9h23.2C558.1,653.4,567.4,649,568.5,640.1z"/>
</g>
</svg>
