<?xml version="1.0" encoding="utf-8"?>
<!-- Generator: Adobe Illustrator 24.0.1, SVG Export Plug-In . SVG Version: 6.00 Build 0)  -->
<svg version="1.1" id="Layer_6" xmlns="http://www.w3.org/2000/svg" xmlns:xlink="http://www.w3.org/1999/xlink" x="0px" y="0px"
	 viewBox="0 0 704.7 1076.9" style="enable-background:new 0 0 704.7 1076.9;" xml:space="preserve">
<style type="text/css">
	.st0{fill:#FFFFFF;stroke:#1E1E1C;stroke-width:51.53;stroke-miterlimit:10;}
	.st1{enable-background:new    ;}
	.st2{fill:#010101;}
</style>
<title>tabaryamap</title>
<path class="st0" d="M413.6,1050.8c-31.1,2.5-44.3-8.3-57.8-18.9c-49.2-38.4-105.8-50.7-166.6-39.1c-35.1,6.7-50.3-2-51-37.8
	c-1.6-86.8-39.5-161.2-87.3-232c-32.6-48.3-34.7-52.7,2-93.3c43.8-48.5,51.3-103.7,35.5-161C56.6,353.5,63.1,236.5,64,119.8
	c0.5-57.5,44.4-78.6,95.7-49c6.3,3.6,11.9,8.5,17.5,13.2c72.6,60.7,152.1,60.1,234.4,23c55.8-25.1,110.7-52.2,169.5-70.4
	c15.1-4.7,30.4-19.3,47.8-4c19.1,16.8,7.2,34.9,2.9,52.9c-8.5,35.9-29.4,65.3-51.1,94.4c-68,90.8-68.5,183.3,1.6,271.2
	c78.7,98.6,99.4,210.9,96.3,330.4c-1.6,62.1-9.6,123.7-22.2,184.7c-3.3,16.2-1.9,35.7-23.4,40.2
	C556,1022.5,478.9,1037.7,413.6,1050.8z"/>
<g class="st1">
	<path class="st2" d="M208.6,648h-36.1c-13.8,0-20.7-7.6-20.7-22.7c0-23,0-42.6,0.1-59l-0.5-47.9c0-3.8,1.1-6.9,3.4-9.1
		c2.3-2.3,5.3-3.4,9.2-3.4c6.7,0,12.5,1.9,17.3,5.7c-2.1,3.4-3.1,10-3.1,19.9c0,9.7,0,23.3-0.1,40.7c-0.1,17.5-0.1,31.1-0.1,40.9
		c0,4.5,0.6,7.7,1.8,9.7c1.2,1.9,3.4,2.9,6.5,2.9h22.3V648z"/>
	<path class="st2" d="M202.5,625.8h19.1c3.1,0,5.2-1,6.5-2.9c1.2-1.9,1.8-5.2,1.8-9.8c0-1.5-0.2-8.6-0.5-21.2
		c-0.3-12.6-0.5-19.1-0.5-19.4c0-3.8,1.1-6.9,3.4-9.1c2.3-2.2,5.3-3.3,9.2-3.3c6.7,0,12.5,1.9,17.3,5.7c-2.1,3.4-3.1,9.9-3.1,19.8
		l0.2,20.7c0.1,7.7,0.1,14.1,0.1,19.1c0,15-6.9,22.6-20.6,22.6h-32.9V625.8z M216,658.9c3.3,0,6,1,8.2,3.1c2.2,2.1,3.3,4.6,3.3,7.6
		c0,3.7-1.3,6.8-3.9,9.2c-2.6,2.5-5.8,3.7-9.6,3.7c-3.3,0-5.9-1-8-3c-2.1-2-3.1-4.6-3.1-7.8c0-3.6,1.3-6.5,3.9-8.9
		C209.3,660.1,212.4,658.9,216,658.9z M246.9,658.9c3.3,0,6.1,1.1,8.2,3.2c2.2,2,3.3,4.5,3.3,7.5c0,3.7-1.3,6.7-3.9,9.1
		c-2.5,2.5-5.7,3.8-9.6,3.8c-3.3,0-5.9-1-8-3c-2.1-2-3.1-4.6-3.1-7.8c0-3.6,1.3-6.5,3.9-8.9C240.2,660.1,243.3,658.9,246.9,658.9z"
		/>
	<path class="st2" d="M350.7,648h-20.4c-4.3,0-7.8-0.8-10.4-2.5c0,3.6-0.1,6.8-0.2,9.4c-0.1,2.7-0.5,5.6-1,8.7
		c-0.5,3.1-1.3,5.8-2.3,7.9c-1,2.2-2.3,4.4-4,6.5c-1.7,2.2-3.7,3.9-6.1,5.2c-2.4,1.3-5.3,2.3-8.8,3.1c-3.5,0.8-7.4,1.2-11.8,1.2
		c-5.1,0-9.5-1.3-13.2-3.9c-3.7-2.6-5.5-5.7-5.5-9.2c0-3.6,1.8-7.8,5.5-12.6c2.7,2.5,5.8,3.8,9.1,3.8c4.5,0,7.7-1.9,9.7-5.6
		c1.9-3.7,2.9-9.9,2.9-18.4c0-2.9-0.1-6.7-0.2-11.5c0.1-0.4,0.1-3,0.1-7.7c0-2.8-0.2-11.2-0.6-25.2c-0.3-12.5-0.4-20.3-0.4-23.5
		c0-3.9,1.1-7.1,3.4-9.5c2.3-2.5,5.3-3.7,9.2-3.7c7.2,0,13,2.2,17.3,6.6c-2.1,3.4-3.2,9.9-3.2,19.8c0,17.6,0,30.6,0.1,39h30.7V648z"
		/>
	<path class="st2" d="M418.3,648h-12.7c-5.6-0.1-9.7-2-12.4-5.8c-3.6,3.9-8.8,5.8-15.6,5.8h-31v-22.2h17.1c3-0.1,5.1-1.1,6.4-3
		s1.8-5.2,1.8-9.7c0-4.1-0.1-11.2-0.4-21.3c-0.3-12.6-0.5-19.1-0.5-19.4c0-3.9,1.1-7,3.4-9.2c2.3-2.2,5.3-3.3,9.2-3.3
		c6.8,0,12.6,1.9,17.4,5.7c-2.1,3.4-3.2,9.9-3.2,19.8l0.3,28.4c0.1,3.5,1,6.3,2.7,8.6c1.7,2.2,3.5,3.4,5.5,3.4h11.9V648z
		 M383.2,659.5c3.3,0,6,1,8.2,3.1c2.2,2.1,3.2,4.6,3.2,7.7c0,3.6-1.3,6.7-3.8,9.1c-2.6,2.5-5.8,3.7-9.6,3.7c-3.3,0-5.9-1-8-3
		c-2.1-2-3.1-4.6-3.1-7.8c0-3.6,1.3-6.6,3.8-9.1C376.5,660.7,379.6,659.5,383.2,659.5z"/>
	<path class="st2" d="M414.2,625.8h17.9c1.7,0,2.8-0.4,3.3-1.3c0.5-0.9,0.7-2.8,0.7-5.6c0-5.2-0.2-23.3-0.6-54.4l-0.4-45.6
		c0-3.8,1.1-6.8,3.4-9c2.3-2.3,5.3-3.4,9.2-3.4c6.9,0,12.6,1.9,17.2,5.6c-2.1,3.5-3.1,11.2-3.1,23.3c0,4.9,0.1,22.8,0.2,53.8
		c3.7-6.8,8.7-12.8,15-18c6.3-5.2,13.2-8.5,20.6-10c7.5-1.4,15.5-1.3,24,0.4c8.5,1.7,15.1,4.6,19.7,8.7c10.3,8.9,15.4,21.2,15.4,37
		c0,11.8-5.3,21.6-15.8,29.4c-10.5,7.5-23.4,11.3-38.7,11.3h-88.2V625.8z M527.6,608.9c0.5-4.2-0.7-8.2-3.6-11.9
		c-2.9-3.7-6.8-6.5-11.7-8.2c-4.9-1.7-9.7-2.2-14.6-1.3c-4.1,0.8-8.3,2.7-12.5,5.7c-4.2,3-7.9,6.4-11,10.2
		c-3.1,3.8-5.8,7.6-7.9,11.5c-2.2,3.9-3.7,7.2-4.4,10.1c-0.1,0.3-0.1,0.7-0.1,0.9h30C514.2,625.8,526.1,620.2,527.6,608.9z"/>
</g>
</svg>
