<?xml version="1.0" encoding="utf-8"?>
<!-- Generator: Adobe Illustrator 24.0.1, SVG Export Plug-In . SVG Version: 6.00 Build 0)  -->
<svg version="1.1" id="Layer_18" xmlns="http://www.w3.org/2000/svg" xmlns:xlink="http://www.w3.org/1999/xlink" x="0px" y="0px"
	 viewBox="0 0 305.6 1054.1" style="enable-background:new 0 0 305.6 1054.1;" xml:space="preserve">
<style type="text/css">
	.st0{fill:#FFFFFF;stroke:#010101;stroke-width:13.84;stroke-miterlimit:10;}
	.st1{enable-background:new    ;}
	.st2{fill:#010101;}
</style>
<title>thedeadseamap</title>
<path class="st0" d="M55.2,1021.8c-91.6-195.2-24.6-253.6-25.3-383.1c-35-170,26.5-279.1,55.1-426.2c-1.8-92.7,24.9-66.1,52.7-117
	C165.9,3.7,219.4-9.9,294.1,23.7c20.4,58.2-33.6,132-43.3,197.6c0.5,200.8,29.6,287-40.6,443.2c-18.6-52.3-72.3-126.1-113.5-25.4
	C-26,871,333.5,620,177.8,899.3C166,981.6,72.6,1099.5,55.2,1021.8z"/>
<g class="st1">
	<path class="st2" d="M107.8,405.1h-7.3c-1.5,0-2.8-0.3-3.7-0.9c0,1.3,0,2.4-0.1,3.4c0,1-0.2,2-0.4,3.1c-0.2,1.1-0.5,2.1-0.8,2.8
		c-0.3,0.8-0.8,1.6-1.4,2.3c-0.6,0.8-1.3,1.4-2.2,1.8s-1.9,0.8-3.1,1.1c-1.2,0.3-2.6,0.4-4.2,0.4c-1.8,0-3.4-0.5-4.7-1.4
		c-1.3-0.9-2-2-2-3.3c0-1.3,0.7-2.8,2-4.5c1,0.9,2.1,1.4,3.3,1.4c1.6,0,2.8-0.7,3.5-2s1-3.5,1-6.6c0-1,0-2.4-0.1-4.1
		c0-0.1,0-1.1,0-2.7c0-1-0.1-4-0.2-9c-0.1-4.5-0.1-7.3-0.1-8.4c0-1.4,0.4-2.5,1.2-3.4c0.8-0.9,1.9-1.3,3.3-1.3
		c2.6,0,4.6,0.8,6.2,2.3c-0.8,1.2-1.1,3.6-1.1,7.1c0,6.3,0,10.9,0,13.9h11V405.1z"/>
	<path class="st2" d="M161.2,405.1h-7.3c-2.9,0-4.7-1.1-5.5-3.1c-0.8,1.3-1.9,2.2-3.1,2.5c-1.2,0.4-3.3,0.6-6.3,0.6h-32.6v-7.9h27.4
		c-2.3-0.8-5.9-2.8-10.9-5.9c-5.5-3.5-8.8-6.1-9.7-7.8c-0.7-1.3-0.8-2.6-0.3-3.9c0.5-1.5,1.5-2.8,2.9-3.9s2.9-1.7,4.5-1.7
		c0,1.5,1.2,3.4,3.5,5.9c2.3,2.4,5.3,4.8,8.9,7.3c3.6,2.4,7,4.2,10.2,5.5c3.2,1.2,5.5,1.6,6.9,1c0.1,1.1,0.1,2.3,0,3.7h11.4V405.1z"
		/>
	<path class="st2" d="M185.3,405.1h-4.5c-2,0-3.5-0.7-4.4-2.1c-1.3,1.4-3.1,2.1-5.6,2.1h-11.1v-7.9h6.1c1.1,0,1.8-0.4,2.3-1.1
		c0.4-0.7,0.7-1.8,0.7-3.5c0-1.5,0-4-0.1-7.6c-0.1-4.5-0.2-6.8-0.2-6.9c0-1.4,0.4-2.5,1.2-3.3c0.8-0.8,1.9-1.2,3.3-1.2
		c2.4,0,4.5,0.7,6.2,2.1c-0.8,1.2-1.1,3.6-1.1,7.1l0.1,10.1c0,1.2,0.4,2.3,1,3.1c0.6,0.8,1.3,1.2,2,1.2h4.3V405.1z M172.8,409.2
		c1.2,0,2.1,0.4,2.9,1.1c0.8,0.7,1.2,1.6,1.2,2.7c0,1.3-0.5,2.4-1.4,3.3s-2.1,1.3-3.4,1.3c-1.2,0-2.1-0.4-2.9-1.1
		c-0.7-0.7-1.1-1.6-1.1-2.8c0-1.3,0.5-2.4,1.4-3.2C170.4,409.7,171.5,409.2,172.8,409.2z"/>
	<path class="st2" d="M183.9,397.2h6.1c1.1,0,1.9-0.3,2.3-1c0.4-0.7,0.7-1.8,0.7-3.5l-0.2-17.3c-0.1-9.3-0.1-14.8-0.1-16.6
		c0-1.3,0.4-2.4,1.2-3.2c0.8-0.8,1.9-1.2,3.3-1.2c2.4,0,4.5,0.7,6.2,2c-0.7,1.2-1.1,3.6-1.1,7.1c0,4.3,0,10,0,17l0.1,16.4
		c0,5.4-2.5,8.1-7.4,8.1h-11V397.2z"/>
	<path class="st2" d="M218.2,363.6c0,1.5,0.1,7.7,0.3,18.6l0.2,18.4c0,1.4-0.4,2.5-1.2,3.3c-0.8,0.8-1.9,1.2-3.3,1.2
		c-2.4,0-4.5-0.7-6.2-2.1c0.7-1.2,1.1-3.6,1.1-7.1l-0.2-18.6c-0.2-10.9-0.3-17.1-0.3-18.4c0-1.4,0.4-2.5,1.2-3.3
		c0.8-0.8,1.9-1.2,3.3-1.2c2.4,0,4.4,0.7,6.2,2.1C218.5,357.6,218.2,360,218.2,363.6z"/>
</g>
<g class="st1">
	<path class="st2" d="M111.9,495.1h-9.8c-2.2,0-3.8-0.7-4.7-2.1c-1.3,1.4-3.2,2.1-5.6,2.1H72.1c-6,0-10.2-0.9-12.7-2.6
		c-2.5-1.7-3.8-4.8-4-9.2c-0.1-3.7,0.7-6.9,2.3-9.8c1.7-2.8,3.6-4.2,5.9-4.2c1.6,0,2.9,1.2,3.9,3.6c-1.5,0.6-2.5,1.8-3.1,3.7
		c-0.6,1.9-0.6,3.9-0.1,6c0.4,1.7,1.2,2.9,2.4,3.6c1.2,0.7,3,1,5.3,1h14.7c1.1,0,1.9-0.3,2.3-1c0.4-0.7,0.7-1.9,0.7-3.6
		c0-0.5-0.1-3.1-0.2-7.6c-0.1-4.5-0.2-6.8-0.2-6.9c0-1.4,0.4-2.5,1.2-3.3s1.9-1.2,3.3-1.2c2.4,0,4.5,0.7,6.2,2.1
		c-0.8,1.2-1.1,3.6-1.1,7.1l0.1,10.1c0,1.3,0.4,2.3,1,3.1c0.6,0.8,1.3,1.2,2,1.2h9.8V495.1z M72.3,458.9c-1.2,0-2.1-0.4-2.9-1.1
		c-0.7-0.7-1.1-1.6-1.1-2.8c0-1.3,0.5-2.4,1.4-3.2c0.9-0.9,2-1.3,3.3-1.3c1.2,0,2.1,0.4,2.9,1.1c0.8,0.7,1.2,1.6,1.2,2.7
		c0,1.3-0.5,2.4-1.4,3.3C74.8,458.4,73.7,458.9,72.3,458.9z M83.3,458.9c-1.1,0-2.1-0.4-2.8-1.1c-0.7-0.7-1.1-1.6-1.1-2.8
		c0-1.3,0.5-2.4,1.4-3.2c0.9-0.9,2-1.3,3.3-1.3c1.2,0,2.2,0.4,2.9,1.1c0.8,0.7,1.2,1.6,1.2,2.7c0,1.3-0.5,2.4-1.4,3.3
		C85.9,458.4,84.7,458.9,83.3,458.9z"/>
	<path class="st2" d="M142.1,495.1h-10.4c-2.2,0-3.7-0.7-4.7-2.1c-1.3,1.4-3.2,2.1-5.6,2.1h-11v-7.9h6.1c1.1,0,1.9-0.3,2.3-1
		c0.4-0.7,0.7-1.9,0.7-3.5c0-0.5-0.1-3.1-0.2-7.6c-0.1-3.6-0.1-5.9-0.1-6.9c0-1.4,0.4-2.4,1.2-3.2c0.8-0.8,1.9-1.2,3.3-1.2
		c2.4,0,4.5,0.7,6.2,2.1c-0.7,1.2-1.1,3.6-1.1,7.1l0.1,10.1c0,1.2,0.4,2.3,1,3.1s1.2,1.2,1.9,1.2h10.4V495.1z M119.4,499
		c1.2,0,2.1,0.4,2.9,1.1c0.8,0.7,1.2,1.6,1.2,2.7c0,1.3-0.5,2.4-1.4,3.3c-0.9,0.9-2.1,1.3-3.5,1.3c-1.1,0-2.1-0.4-2.8-1.1
		c-0.7-0.7-1.1-1.7-1.1-2.8c0-1.3,0.5-2.3,1.4-3.2C116.9,499.5,118,499,119.4,499z M130.4,499c1.2,0,2.2,0.4,3,1.1
		c0.8,0.7,1.1,1.6,1.1,2.7c0,1.3-0.5,2.4-1.4,3.3c-0.9,0.9-2.1,1.3-3.4,1.3c-1.2,0-2.1-0.4-2.9-1.1c-0.7-0.7-1.1-1.7-1.1-2.8
		c0-1.3,0.5-2.3,1.4-3.2C128,499.5,129.1,499,130.4,499z"/>
	<path class="st2" d="M185.3,495.1h-7.5c-2.9,0-4.7-1.2-5.4-3.7c-2.6,2.5-6.1,3.7-10.4,3.7h-5.3c-2.5,0-4.3-0.7-5.5-2
		c-1,1.3-2.6,2-4.7,2h-5.8v-7.9h5.8c0.7,0,1.4-0.4,2-1.2c0.6-0.8,0.9-1.8,0.9-3.1l0.1-10.4c0-3.3-0.4-5.6-1.1-6.7
		c1.7-1.3,3.7-1.9,6.1-1.9c6.7-0.2,11.9,1.2,15.8,4.4c3.9,3.2,5.9,7.5,6.1,13.1c0.1,2.1-0.3,4-1.1,5.9h10V495.1z M161.6,487.2
		c4.2,0,6.2-2,6.2-5.9c0-2.1-0.9-4.3-2.7-6.5c-1.8-2.2-3.9-3.6-6.1-4.1l-0.3,13.3c0,1,0.2,1.7,0.7,2.3S160.6,487.2,161.6,487.2z"/>
	<path class="st2" d="M183.9,487.2h6.1c1.1,0,1.9-0.3,2.3-1c0.4-0.7,0.7-1.8,0.7-3.5l-0.2-17.3c-0.1-9.3-0.1-14.8-0.1-16.6
		c0-1.3,0.4-2.4,1.2-3.2c0.8-0.8,1.9-1.2,3.3-1.2c2.4,0,4.5,0.7,6.2,2c-0.7,1.2-1.1,3.6-1.1,7.1c0,4.3,0,10,0,17l0.1,16.4
		c0,5.4-2.5,8.1-7.4,8.1h-11V487.2z"/>
	<path class="st2" d="M218.2,453.6c0,1.5,0.1,7.7,0.3,18.6l0.2,18.4c0,1.4-0.4,2.5-1.2,3.3c-0.8,0.8-1.9,1.2-3.3,1.2
		c-2.4,0-4.5-0.7-6.2-2.1c0.7-1.2,1.1-3.6,1.1-7.1l-0.2-18.6c-0.2-10.9-0.3-17.1-0.3-18.4c0-1.4,0.4-2.5,1.2-3.3
		c0.8-0.8,1.9-1.2,3.3-1.2c2.4,0,4.4,0.7,6.2,2.1C218.5,447.7,218.2,450,218.2,453.6z"/>
</g>
</svg>
